<svg id="Adobe_Acrobat-Logo.wine" xmlns="http://www.w3.org/2000/svg" xmlns:xlink="http://www.w3.org/1999/xlink" width="240" height="234" viewBox="0 0 240 234">
  <defs>
    <style>
      .cls-1 {
        fill: #ff3500;
      }

      .cls-2 {
        fill: url(#radial-gradient);
      }

      .cls-3 {
        fill: url(#linear-gradient);
      }
    </style>
    <radialGradient id="radial-gradient" cx="0.399" cy="0.333" r="0.67" gradientTransform="translate(0.011) scale(0.973 1)" gradientUnits="objectBoundingBox">
      <stop offset="0" stop-color="#1d0f0b" stop-opacity="0.851"/>
      <stop offset="0.767" stop-color="#1d0f0b"/>
    </radialGradient>
    <linearGradient id="linear-gradient" y1="-1.976" x2="1" y2="-1.976" gradientUnits="objectBoundingBox">
      <stop offset="0.14" stop-color="#fff"/>
      <stop offset="1" stop-color="#ebedeb"/>
    </linearGradient>
  </defs>
  <path id="Path_9" data-name="Path 9" class="cls-1" d="M0,0H240V234H0Z"/>
  <path id="Path_10" data-name="Path 10" class="cls-2" d="M10,10H230V224H10Z"/>
  <path id="Path_11" data-name="Path 11" class="cls-3" d="M203.7,140.1c-4.8-5.2-15-7.9-29.4-7.9a165.378,165.378,0,0,0-27.2,2.5,135.272,135.272,0,0,1-16.8-19.3,178.732,178.732,0,0,1-10.4-16.3c5.1-15.7,8.6-30.8,8.6-42.3,0-8.6-2.8-22.8-15.6-22.8a10.621,10.621,0,0,0-8.7,5.2c-5.4,9.3-2.9,30.3,6.9,51.7-3.4,10.3-7.3,20.6-12.1,32.3a271.075,271.075,0,0,1-13.9,28.7c-27.8,11-45.5,23.5-47.3,33.5a9.818,9.818,0,0,0,3.1,9.1,14.7,14.7,0,0,0,10,3.5c16,0,33.8-23.4,47.1-47.3,7.4-2.6,15.2-4.9,23.2-7.1,8.7-2.3,17-4.1,24.9-5.5,19.3,17.5,36.4,20.1,44.9,20.1,10.6,0,13.6-4.4,14.7-7.2a10.841,10.841,0,0,0-2-10.9ZM107.1,40.8a6.8,6.8,0,0,1,5.8-3.6c4.7,0,7.4,4.2,7.4,11.9,0,8.3-2.6,21.8-7.6,37.3-9.3-21.7-9.4-39-5.6-45.6ZM40.9,186c1.6-8.3,17.4-19.5,41.6-29.6C69,179.5,55.7,193.7,47.3,193.7a6.462,6.462,0,0,1-4.4-1.6,6.7,6.7,0,0,1-2-6.1Zm102.3-50.6c-7.2,1.3-14.9,3-22.7,5.1-6.9,1.8-13.6,3.9-20.1,6a201.52,201.52,0,0,0,9.6-20.3c3.1-7.5,6.1-15.3,8.7-23.1,2.8,4.8,5.8,9.5,9.1,14.1A135.119,135.119,0,0,0,143.2,135.4Zm7,2c16.3-3,30.6-2.4,36.7-1.1,6.3,1.3,9.6,5.1,8.5,10.7-1.1,5.7-7.9,8.4-15.4,6.6C168,150.7,158.1,144.2,150.2,137.4Z"/>
</svg>
