<svg xmlns="http://www.w3.org/2000/svg" width="255.615" height="313.837" viewBox="0 0 255.615 313.837">
  <defs>
    <style>
      .cls-1 {
        fill: #1a1918;
      }

      .cls-2 {
        fill: #fff;
      }
    </style>
  </defs>
  <g id="ansible" transform="translate(-0.264 -0.302)">
    <g id="Group_12" data-name="Group 12" transform="translate(0 281.86)">
      <path id="Path_262" data-name="Path 262" class="cls-1" d="M67.517,32a1.789,1.789,0,0,1-1.532-.686L48.6,8.456V31.775H44.637V3.061A2.063,2.063,0,0,1,46.665,1a1.806,1.806,0,0,1,1.575.732l17.34,22.816V1.324h3.964V29.992A1.994,1.994,0,0,1,67.517,32"/>
      <path id="Path_263" data-name="Path 263" class="cls-1" d="M100.306,32.278a34.388,34.388,0,0,1-11.98-2.286l.946-3.293a37.15,37.15,0,0,0,11.034,1.966c5,0,7.612-1.783,7.612-4.3,0-2.287-2.028-3.43-9.008-6.722s-9.727-5.395-9.727-9.511c0-5.166,3.963-7.27,11.438-7.27a44.545,44.545,0,0,1,10.63,1.464l-.631,3.383a45.247,45.247,0,0,0-9.909-1.234c-5.268,0-7.43,1.005-7.43,3.521,0,2.468,1.576,3.52,8.962,6.95,7.792,3.612,9.773,5.441,9.773,9.19,0,5.442-5.135,8.139-11.71,8.139"/>
      <path id="Path_264" data-name="Path 264" class="cls-1" d="M130.8,1.324h4.1V31.775h-4.1Z"/>
      <path id="Path_265" data-name="Path 265" class="cls-1" d="M169.758,17.967h-10.18V28.3h10.18c3.467,0,5.584-2.2,5.584-5.259,0-2.88-2.206-5.075-5.584-5.075M167.775,4.8h-8.2v9.739h8.2c3.288,0,5.675-2.1,5.675-5.03,0-2.881-2.072-4.71-5.675-4.71M169.8,31.775h-12.25a2.044,2.044,0,0,1-2.073-2.058V3.381a2.072,2.072,0,0,1,2.073-2.057h10.133c6.215,0,9.908,3.063,9.908,7.864a7.687,7.687,0,0,1-3.874,6.447,7.782,7.782,0,0,1,5.81,7.407c0,4.847-4.008,8.733-9.727,8.733"/>
      <path id="Path_266" data-name="Path 266" class="cls-1" d="M199.212,31.775a2.063,2.063,0,0,1-2.025-2.058V1.324h4.1V28.072h16.3v3.7Z"/>
      <path id="Path_267" data-name="Path 267" class="cls-1" d="M245.526,32.278c-8.377,0-13.421-3.109-13.421-9.373a7.6,7.6,0,0,1,4.909-7.133,7.685,7.685,0,0,1-3.963-6.539c0-5.669,4.37-8.368,12.566-8.368a48.617,48.617,0,0,1,9.864,1.053L255.03,5.3a61.338,61.338,0,0,0-9.729-.868c-5.314,0-8.152,1.462-8.152,4.983,0,2.789,2.613,4.984,6.081,4.984h7.025a1.76,1.76,0,0,1,0,3.52H242.69c-3.964,0-6.485,1.966-6.485,4.984,0,4.435,4.1,5.761,9.232,5.761a45.1,45.1,0,0,0,9.637-1.1l.587,3.337a39.924,39.924,0,0,1-10.135,1.372"/>
      <path id="Path_268" data-name="Path 268" class="cls-1" d="M14.138,7.035l7.178,17.984L10.475,16.35ZM26.889,29.162,15.85,2.188A1.784,1.784,0,0,0,14.138,1a1.84,1.84,0,0,0-1.756,1.189L.264,31.775H4.408l4.8-12.2L23.52,31.318A2.311,2.311,0,0,0,25.052,32a1.994,1.994,0,0,0,2.026-2.011,2.717,2.717,0,0,0-.189-.83Z"/>
    </g>
    <g id="Group_13" data-name="Group 13">
      <path id="Path_269" data-name="Path 269" class="cls-1" d="M255.879,127.868A127.566,127.566,0,1,1,128.312.3,127.562,127.562,0,0,1,255.879,127.868"/>
      <path id="Path_270" data-name="Path 270" class="cls-2" d="M130.46,78.229l33.011,81.476-49.863-39.278ZM189.1,178.474l-50.778-122.2a8.2,8.2,0,0,0-7.866-5.389,8.47,8.47,0,0,0-8.084,5.389L66.644,190.312H85.709l22.062-55.265,65.839,53.19c2.648,2.141,4.559,3.11,7.042,3.11a9.1,9.1,0,0,0,9.322-9.111,12.071,12.071,0,0,0-.87-3.762Z"/>
    </g>
  </g>
</svg>
