<svg xmlns="http://www.w3.org/2000/svg" width="1000" height="1187.198" viewBox="0 0 1000 1187.198">
  <path id="Apple_Inc.-Logo.wine" d="M979.042,925.187a645.517,645.517,0,0,1-63.828,114.76q-50.344,71.778-82.222,99.37Q783.747,1184.6,727.32,1185.85c-27.041,0-59.652-7.695-97.611-23.3q-57.128-23.3-105.086-23.23-50.344,0-108.061,23.23-57.842,23.415-93.376,24.55-54.18,2.308-108.06-47.78-34.407-30.009-86-102.887Q73.816,958.6,38.187,855.789.033,744.66,0,640.5,0,521.161,51.627,434.817q40.595-69.283,108.127-109.372c45.06-26.748,93.749-40.379,146.182-41.25,28.69,0,66.312,8.874,113.066,26.315,46.622,17.5,76.557,26.374,89.682,26.374,9.812,0,43.068-10.377,99.443-31.064q79.969-28.777,135.168-24Q893.12,293.912,968.123,400.192q-134,81.189-132.64,227.187,1.209,113.626,82.295,188.84A270.439,270.439,0,0,0,1000,870.154q-9.892,28.689-20.958,55.034ZM749.964,23.751q0,89.06-64.928,166.122c-52.176,61-115.286,96.248-183.724,90.686a184.828,184.828,0,0,1-1.378-22.5c0-57,24.813-118,68.878-167.873q33-37.879,83.907-63Q703.5,2.438,748.718,0a215.5,215.5,0,0,1,1.246,23.75Z"/>
</svg>
