<svg xmlns="http://www.w3.org/2000/svg" xmlns:xlink="http://www.w3.org/1999/xlink" width="437.699" height="499.234" viewBox="0 0 437.699 499.234">
  <defs>
    <style>
      .cls-1 {
        fill: rgba(0,0,0,0.39);
      }

      .cls-2, .cls-8 {
        stroke: rgba(28,54,102,0.87);
        stroke-width: 11.298px;
      }

      .cls-16, .cls-2, .cls-8, .cls-9 {
        stroke-linecap: round;
        stroke-linejoin: round;
      }

      .cls-2 {
        fill: url(#radial-gradient);
      }

      .cls-3 {
        fill: #103070;
      }

      .cls-4 {
        fill: rgba(255,255,255,0.18);
      }

      .cls-16, .cls-5, .cls-8 {
        fill: none;
      }

      .cls-5 {
        stroke: rgba(255,255,255,0.18);
        stroke-width: 10.097px;
      }

      .cls-6 {
        fill: rgba(0,0,0,0.22);
      }

      .cls-7 {
        fill: #99a2b5;
      }

      .cls-9 {
        fill: #fff;
      }

      .cls-16, .cls-9 {
        stroke: #737f98;
        stroke-width: 10px;
      }

      .cls-10 {
        fill: #c2d4ee;
      }

      .cls-11 {
        opacity: 0.191;
        fill: url(#radial-gradient-2);
      }

      .cls-12 {
        fill: #c2d5e0;
      }

      .cls-13 {
        fill: #858cb1;
      }

      .cls-14 {
        fill: #7c84ab;
      }

      .cls-15 {
        fill: #616472;
      }
    </style>
    <radialGradient id="radial-gradient" cx="0.285" cy="0.349" r="0.595" gradientTransform="matrix(0.297, 0.95, -0.936, 0.321, 0.52, -0.038)" gradientUnits="objectBoundingBox">
      <stop offset="0" stop-color="#fefefe"/>
      <stop offset="1" stop-color="#016792"/>
    </radialGradient>
    <radialGradient id="radial-gradient-2" cx="0.26" cy="0.416" r="0.512" gradientTransform="matrix(0.469, 0.75, -0.586, 0.728, -0.219, 0.712)" gradientUnits="objectBoundingBox">
      <stop offset="0" stop-color="#fff"/>
      <stop offset="1" stop-color="#00140f"/>
    </radialGradient>
  </defs>
  <g id="Arora__web_browser_-Logo.wine" data-name="Arora_(web_browser)-Logo.wine" transform="translate(-39.645 -23.838)">
    <path id="Path_12" data-name="Path 12" class="cls-1" d="M-265.743,594.7c1.625-18.535,1.183-34.064,12.891-67.252,5.684-24.118,9.02-48.489,37.68-70.134,43.054-33.7,83.468-75.068,123.948-116.25,12.895-15.636,25.568-31.45,69.411-22.1,20.946.659,45.166,6.076,71.394,14.411,28.116.667,43.286,23.912,58.5,47.076,12.677,16.333,15.331,32.665,14.874,49-2.021,21.057-8.351,40.445,1.983,66.291,17.419,17.613,21.03,35.227,22.806,52.841L126.922,567.8c3.989,23.715,6.46,46.327,0,62.448-16.205,82.912-79.445,125.136-169.56,144.111-74.382,1.657-131.862-30.805-174.518-93.192-13.538-37.786-11.725-49.978-16.857-73.016C-259.887,593.078-256.276,598.413-265.743,594.7Z" transform="translate(329.599 -251.345)"/>
    <path id="Path_13" data-name="Path 13" class="cls-2" d="M674.878,406.838c0,99.68-82.357,180.486-183.951,180.486S306.975,506.518,306.975,406.838s82.358-180.486,183.951-180.486,183.952,80.806,183.952,180.486Z" transform="translate(-225.591 -80.467)"/>
    <path id="Path_14" data-name="Path 14" class="cls-3" d="M130,438.521c3.362,4.252,10.082-.447,16.81-5.172,8.081.936,15.748,2.7,21.552,8.19,5.75,3.453,11.573,7.053,15.086,6.034,3.1-1.756,6.055-3.582,6.9-6.466,1.5-3.523.645-7.83-1.293-12.5.937-3.088,1.043-6.453,8.62-7.327,1.546-1.2,5.926-5.558,3.449-9.052l-15.517-25c-5.439-10.893,1.75-13.75,8.62-16.81,6.186-3.575,13.844-6.018,5.6-20.69-14.687-15.15-26.578-31-27.587-49.569-2.019.858-15.143-3.836-23.275-6.034-8.906-2.024-17.982-7.54-30.173,9.051-1.55,9.984-3.2,12.945-8.62,25.431-2.994,8.753-3.023,16.023-3.88,23.707.547-1.67-.5,7.44-1.047,28.434-.125,4.841,1.14,11.365,1.047,16.825,2.088,9.525,8.533,22.1,15.517,29.31l.863,5.173C124.7,434.911,124.867,440.851,130,438.521Zm265.331-54.334,35.743-39.76c7.49-10.119,1.265-12.852-4.82-15.662l-18.473-6.024c-2.618-7.577-7.254-12.462-17.67-9.639-5.907-9.127-2.5-20.115,0-30.923,3.154-3.9,6.23-8.054,6.826-20.482-5.571-8.873-8-18.373-9.237-28.113l-.4-23.293c-8.786-2.53-14.982-1.36-17.67,4.82-5.085,9.774-7.588,21.269-15.262,29.317l-26.908-5.221c.416-39.542-3.087-70-21.686-65.462-2.609,8.736-40.025-4.67-51.705,2.634-14.162,15.423-13.71,26.14-16.568,37.526-5.768,6.452-4.9,13.567-2.008,20.884,9.643,13.694,14.864,21.86,14.056,22.49-.506,9.122-1.578,19.567.4,22.892.307,6.623,3.066,10.55,12.049,7.63,15.138-1.553,36.948-6.813,44.98-4.418,2.59,17,15.854,33.175,7.63,51l-.4,8.033c14.678,16.592,24.387,35.382,21.986,42.645-4.337,6.68-3.983,14.533-5.118,22.013-2.832,10.325-6.318,14.684-10.871,18.3-2.758,4.878-4.24,12.37-3.512,17.25,3.564.939,6.533.39,8.359-3.017,16.442-12.018,28.675-18.776,38.152-22.088Z"/>
    <path id="Path_15" data-name="Path 15" class="cls-4" d="M436.5,268.5c-9.472,52.844-59.4,103.627-152.02,141.7-55.827,22.947-175.282,34.42-200.92-55.421.059-101.87,39.08-180.31,167.646-204.9,88.4-1.3,149.178,39.758,185.295,118.627Z"/>
    <path id="Path_16" data-name="Path 16" class="cls-5" d="M-234.581,271.973c0,94.105-78.4,170.393-175.11,170.393S-584.8,366.078-584.8,271.973s78.4-170.393,175.11-170.393,175.11,76.287,175.11,170.393Z" transform="translate(674.396 54.447)"/>
    <path id="Path_17" data-name="Path 17" class="cls-6" d="M342.3,50.123l54.75,11.18c19.968,13.413,25.107,31.017,38.972,51.314,7.636,12.637,2.61,25.148,3.271,48.973-8.988,34.68,5.518,52.795,12.664,67.358,7.71,18.862,9.3,24.867,6.16,42.9-26.233,23.1-17.312,20.355-28.646,28.747-11.328,5.679-17.655-3.765-28.982-18.635,8.618-9.344,8.786-3.458,11.44-13.643-20.758-17.4-32.74-47.266-50.212-66.285-.692,16.3,2.063,39.5-2.818,57.454-7.3,23.7-13.857,37.9-10.181,51.61-.8,15.312-16.386,18-26.941,26.895-14.55,2.34-21.662-6.7-26.075-12.693l-15.935-75.515c-21.814-35.973-12.913-21.43-30.693-23.157-14.435,9.884-27.482,16.858-50.636,25.02-14.375,8.984-23.454,22.145-25.767,33.68-36.88,20.187-37.788,37.73-60.15,57.917-10.625-.583-40.386-6.782-44.908-10.808-7.924-3.182-6.091-9.253-5.664-14.908l16.523-52.4c2.336-11.416,3.138-22.833,7.076-34.249,8.033-23.919,26.115-39.444,45.31-54.04l49.084-43.793c25.2-25.581,58.471-67.53,80.42-80.275,18.562-13.918,48.125-6.382,81.938-2.65Z"/>
    <path id="Path_18" data-name="Path 18" class="cls-7" d="M75.6,201.123c.034-7.719-.53-15.387,7.25-23.75l12.75-15,7.75,7.5Z"/>
    <path id="Path_19" data-name="Path 19" class="cls-8" d="M674.878,406.838c0,99.68-82.357,180.486-183.951,180.486S306.975,506.518,306.975,406.838s82.358-180.486,183.951-180.486,183.952,80.806,183.952,180.486Z" transform="translate(-224.826 -79.966)"/>
    <path id="Path_20" data-name="Path 20" class="cls-9" d="M325.264,36.436l54.717,11.32A188.92,188.92,0,0,1,430.924,98.7c7.632,12.794,11.6,31.537,12.265,55.66-8.984,35.115-1.482,49.4,5.66,64.151,7.706,19.1,17.289,38.34,14.15,56.6-26.217,23.387-28.294,22.634-39.622,31.132-11.32,5.75-22.641-3.813-33.962-18.868,8.614-9.461,21.774-19.7,24.427-30.014-20.747-17.615-40.718-37.732-58.179-56.989-.692,16.5-1.936,33.92-6.814,52.1-7.29,24-2.73,37.063.943,50.944-.8,15.5-14.923,22.127-25.471,31.132-14.543,2.37-18.231-4.3-22.642-10.378l-17.924-89.622c-21.8-36.423-37.891-23.723-55.66-25.472-14.427,10.008-33.464,19.094-56.6,27.359-14.366,9.1-18.443,20.4-20.754,32.075-36.859,20.44-54.756,40.227-77.106,60.667-10.619-.59-18.375-2.817-22.894-6.893-7.92-3.222-6.088-9.369-5.66-15.1l16.512-53.058c2.335-11.56,3.136-23.118,7.072-34.677,8.028-24.219,26.1-39.938,45.283-54.717L163,120.4c25.186-25.9,58.437-68.375,80.374-81.28,18.55-14.092,48.1-6.462,81.89-2.682Z"/>
    <path id="Path_21" data-name="Path 21" class="cls-10" d="M200.1,85.873c42.79-25.972,121.254-62.665,198,25,15.357,27.781,14.15,52.8,14,78,10.04,21.956.433,11.166,32,69,3.217,9.333-14.382,18.666-23,28-.043,9.376,2.082,16.584,10,18l33-29v-20l-26-60,3-40c7.378-11.174-1.889-32.334-7-51-8.3-13.873-17.395-28.082-57-55-19.574-8.3-63.049-13.184-100-19-28.63.888-53.689,23.2-77,56Z"/>
    <path id="Path_22" data-name="Path 22" class="cls-10" d="M334.562,324.873c-7.538-30.525-5.114-65.578-1.539-101.154,1.721-2.638-1.386-10.1-5.77-18.846-49.2-61.578-43.8-59.26-46.922-66.924,26.033,24.764,58.557,56.608,52.307,46.154l5.385-60.384,23.462,56.923q-9.048,26.511-10.385,74.615c-8.814,21.422-5.969,30.125-3.846,39.616l4.23,19.23Z"/>
    <path id="Path_23" data-name="Path 23" class="cls-11" d="M271,131c9.715,33.635,23.564,57.39,36,62,.47,42.686,2.2,78.959,8,103,4.151,8.062,9.19,12.577,16,10l13-21,7-110,5-75c8,10.667,13.1,1.05,24,32,7.14,74.72,14.495,57.934,24,83,12.594,9.333,15.68,18.667,15,28-12.908,15.348-17.686,24.6-20,32l16,6,45-29-4-36-19-44,2-47-4-40L381,23,252,8,159,94l-49,47L64,194,39,290l31,16,61-54,16-7,17-35c17.977-3.93,37.357-12.07,58-24,15.7-1.883,28.822-14.045,52,14C269.1,184.8,270.913,156.173,271,131Z" transform="translate(3.1 21.873)"/>
    <path id="Path_24" data-name="Path 24" class="cls-12" d="M127.85,218.123s11.25-8,17-17.25-6-12-6-12l-23.5,23.25c1.32,5.455,2.123,11.54,12.5,6Z"/>
    <path id="Path_25" data-name="Path 25" class="cls-7" d="M110.1,211.623c-1.146-2.25,1-4.5,4.5-6.75l7.75-11.25c2.664-2.348.754-2.3,16.5-11.5,3.694,2.174,7.67,1.808,10.75,9.5.04,6.68.6,13.189-1.25,20.5-3.388,2.715-6.438,3.575-8.5-1-.35-2.252-.52-4.951,1.75-13.75.678-2.115-.743-3.53-2-5a17.7,17.7,0,0,0-9,5.75c-4.5,6.99-9.18,13.457-15,16.5-4.65,1.347-4.655-1.177-5.5-3Z"/>
    <path id="Path_26" data-name="Path 26" class="cls-13" d="M88.087,258.02l14.4,7.91c3.534.085,7.388.49,8.316-2.029,2.284-1.393,3.429-3.356,4.666-5.273-1.8-2.566-7.268-.852-12.17.2l-11.562-5.274Z"/>
    <path id="Path_27" data-name="Path 27" class="cls-14" d="M66.87,247.472l7.55,2.028,4.945.406-.26,4.665-15.358.2Z"/>
    <path id="Path_28" data-name="Path 28" class="cls-15" d="M50.36,300.006l19.472,5.273c1.414,5.317-1.95,9.041-3.448,13.387,4.916.14,16.158-6.707,18.458-12.372,2.632-4.483,3.953-9.949,8.519-12.982,2.227.616,3.71,2.723,3.245,8.722-7.1,12.73-15.55,17.309-23.326,25.963l-27.18-8.52Z"/>
    <path id="Path_29" data-name="Path 29" class="cls-16" d="M327.264,34.312l54.717,11.32a188.937,188.937,0,0,1,50.944,50.944c7.632,12.794,11.6,31.537,12.264,55.66-8.984,35.115-1.482,49.4,5.66,64.151,7.706,19.1,17.29,38.34,14.151,56.6-26.217,23.387-28.3,22.634-39.623,31.132-11.32,5.75-22.641-3.813-33.962-18.868,8.614-9.461,21.774-19.7,24.427-30.014-20.747-17.615-40.717-37.732-58.179-56.989-.691,16.5-1.936,33.92-6.814,52.1-7.29,24-2.73,37.063.944,50.944-.8,15.5-14.923,22.127-25.472,31.132-14.543,2.37-18.23-4.3-22.642-10.377l-17.924-89.623C263.953,196,247.864,208.7,230.1,206.953c-14.427,10.008-33.464,19.094-56.6,27.359-14.366,9.1-18.444,20.4-20.755,32.075-36.859,20.44-54.756,40.227-77.106,60.667-10.618-.59-18.375-2.817-22.894-6.893-7.92-3.222-6.088-9.369-5.66-15.1l16.512-53.058c2.336-11.56,3.137-23.118,7.072-34.677,8.029-24.219,26.1-39.938,45.283-54.717L165,118.274c25.186-25.9,58.437-68.375,80.374-81.28,18.55-14.092,48.1-6.462,81.89-2.682Z"/>
    <path id="Path_30" data-name="Path 30" class="cls-9" d="M357.8,143.816c.536.588,2.057,2.222,1.943,3.221-.071.627-.507.344-.836.526-.077.043-.074.16-.111.24a9.738,9.738,0,0,0,.158,2.19c.054.224.17.43.242.649a4.326,4.326,0,0,1,.293,1.479,6,6,0,0,1,.344,1.875c.005.265-.044.531-.02.795a4.223,4.223,0,0,0,.3.98c.25.508-.036,1.044.024,1.566a8.594,8.594,0,0,0,.35,1.02c.377.574-.113,1.32.011,1.887a1.159,1.159,0,0,0,.172.3,3.266,3.266,0,0,1,.288,2.14,1.483,1.483,0,0,0-.052.387c.014.089.1.15.147.225.565.907.255,2.024.215,3.033a19.147,19.147,0,0,1,.5,2.164,13,13,0,0,1-.09,2.077,4.431,4.431,0,0,1-.026.61,5.879,5.879,0,0,1-.2.667c-.059.23-.136.455-.177.688-.343,1.913.11-.274-.071,1.338a6.29,6.29,0,0,1-.149.66l-.146.687c-.024.25-.024.5-.072.748-.262,1.337-.148-.008-.356,1.26a6.767,6.767,0,0,0-.034,1.41c-.2.562-.2,1.2-.381,1.765-.05.156-.157.289-.216.442-.152.4-.256.807-.4,1.207-.308.59-.119,1.03-.17,1.59-.035.4-.216.77-.283,1.163-.042.239-.054.481-.08.721a7.746,7.746,0,0,1-.01.807c-.025.218-.278,1.068-.32,1.307-.258,1.451.108-.185-.067,1.387a5.382,5.382,0,0,1-.158.655c-.445,1.783.122-.607-.227,1.285-.088.478-.269.936-.351,1.415a5.364,5.364,0,0,0-.033,1.255c.1,1.218.1,2.44.1,3.66l-.385,0h0c.007-1.216,0-2.433-.1-3.646a5.653,5.653,0,0,1,.044-1.359c.08-.462.257-.9.342-1.364.356-1.93-.194.386.236-1.337a3.778,3.778,0,0,0,.146-.56c.18-1.65-.2.062.079-1.482.073-.412.261-.8.309-1.218a8.21,8.21,0,0,0,.01-.845c.03-.256.046-.515.09-.77.061-.354.243-.685.274-1.043.016-.192-.041-.383-.039-.576a3.959,3.959,0,0,1,.229-1.17c.146-.416.255-.845.417-1.254.045-.116.141-.21.178-.328.17-.544.168-1.156.376-1.7a6.956,6.956,0,0,1,.046-1.514c.345-2.076-.033.753.346-1.2.05-.26.052-.526.078-.79l.148-.694a4.538,4.538,0,0,0,.139-.569c.182-1.65-.268.509.083-1.438.079-.436.29-.84.368-1.277a4.546,4.546,0,0,0,.028-.618,12.673,12.673,0,0,0,.093-1.985c-.07-.766-.372-1.49-.5-2.245.038-.943.346-2-.176-2.848a2.088,2.088,0,0,1-.183-.445,1.383,1.383,0,0,1,.05-.375,2.872,2.872,0,0,0-.253-1.936,2.759,2.759,0,0,1-.208-.493c-.114-.558.338-1.175.014-1.724a5.926,5.926,0,0,1-.375-1.183c-.052-.473.206-.945,0-1.4a4.19,4.19,0,0,1-.322-1.125c-.024-.252.023-.506.02-.76a6.086,6.086,0,0,0-.342-1.86,3.9,3.9,0,0,0-.272-1.387c-.08-.247-.2-.48-.263-.733a6.682,6.682,0,0,1-.082-2.473,2,2,0,0,1,.37-.386c.146-.088.5.12.51-.051.069-1.05-1.353-2.493-1.9-3.125l.334-.19ZM315.791,147.5c.46,1.089.242,2.49.943,3.493.265.38.314.215.65.5a2.579,2.579,0,0,1,.264.306,5.607,5.607,0,0,1,.245.577c.062.2.071.42.12.627a6.826,6.826,0,0,0,.931,2.285,2.58,2.58,0,0,0,.415.378c.547.47-.088-.164.314.717.036.08.147.1.22.143a3.073,3.073,0,0,1,.3.51c.442,1.245-.185.385.5,1.178a2.4,2.4,0,0,1,.824,1.33c.03.168-.046.352.01.514.042.124.18.188.266.286.1.117.2.24.3.36a9.523,9.523,0,0,0,1.133,1.583c.187.2.4.365.584.568.328.371.593.793.894,1.187a11.636,11.636,0,0,0,1.279,1.8c.106.11.26.177.343.306.171.264.234.587.39.86.33.705,1.144,1.009,1.53,1.688.732,1.284-.192.282.6,1.052l.3.5c.133.063.3.08.4.19.353.4.12.452.323.8.047.08.145.125.187.209a5.245,5.245,0,0,1,.2.572,2.852,2.852,0,0,1,.388.292c.152.162.23.388.393.541a4.045,4.045,0,0,0,1.155.5,1.78,1.78,0,0,1,.844.7c.462.467.839,1.334,1.393,1.7.6.4.664-.154,1.08.647.14.64-.011.18.479.925.139.21.234.45.394.646a7.3,7.3,0,0,0,1.724,1.178,9.357,9.357,0,0,1,.958,1.1c.174.28.127.5.366.684.185.143.4.241.6.371a3.947,3.947,0,0,1,.448.374c.426.477.827,1.134,1.27,1.608a2.633,2.633,0,0,0,.34.26l.4.445c.038.09.2.619.386.734.122.078.28.085.407.155a4.554,4.554,0,0,1,.423.3,2.5,2.5,0,0,1,.527.361,1.861,1.861,0,0,1,.217.513c.17.4-.06.854.223,1.219.147.188.358.318.5.508.97,1.274-.022.385,1.023,1.216a11.433,11.433,0,0,1,.992.926c.1.074.227.088.321.162a8.545,8.545,0,0,1,1.113,1.146c.7.455.69,1.37,1.113,2.026a2.24,2.24,0,0,0,.346.342l.27.5a2.07,2.07,0,0,1,1.024,1.138c.073.161.066.355.154.51.078.137.226.222.331.34s.209.257.313.385a3.259,3.259,0,0,1,1.15,1.106c.047.108.3,1.383.314,1.432a6.086,6.086,0,0,0,.285.64c.86-.727,0,.745.28.815.038.01-.015-.075-.024-.112.1.145.213.282.3.435a4.771,4.771,0,0,1,.413,1.054,1.4,1.4,0,0,1,.213.223,4.521,4.521,0,0,1,.2.457c.115.245.462.88.562,1.065l-.339.182h0a12.454,12.454,0,0,0-1-1.808c-.056-.173-.1-.35-.167-.52a4.3,4.3,0,0,1-.24-.516c-.016-.064.107-.138.063-.188-.076-.086-.233-.044-.328-.109-.24-.164.2-.9-.284-.823-.1-.239-.231-.468-.31-.716a6.773,6.773,0,0,1-.162-.777,2.421,2.421,0,0,0-.08-.5c-.194-.47-.777-.808-1.144-1.1a7.217,7.217,0,0,1-.715-.862c-.072-.124-.054-.285-.113-.416a2.3,2.3,0,0,0-1.037-1.16c-.713-1.428.46.823-.625-.862-.415-.644-.378-1.5-1.063-1.944-.69-.893.028-.038-.707-.722-.106-.1-.173-.234-.286-.323s-.286-.132-.41-.228c-.348-.27-.581-.672-.966-.9-1.2-1.016-.1.033-1.058-1.25-.171-.228-.418-.394-.58-.63-.269-.39-.112-.81-.23-1.236-.023-.107,0-.238-.07-.32-.566-.643-1.648-.645-1.815-1.613l-.346-.4a3.714,3.714,0,0,1-.407-.33c-.143-.15-.241-.339-.375-.5s-.3-.3-.431-.462c-.148-.185-.248-.406-.4-.584a3.587,3.587,0,0,0-.415-.35,5.807,5.807,0,0,1-.677-.445c-.327-.292-.116-.279-.37-.688a9.845,9.845,0,0,0-.876-1.02,7.822,7.822,0,0,1-1.835-1.294,6.35,6.35,0,0,1-.383-.629c-.53-.835-.394-.4-.53-1.031.1-.226.084-.1-.315-.246a3.164,3.164,0,0,1-.68-.252c-.558-.372-.94-1.239-1.4-1.714-.493-.623-.723-.516-1.438-.86-.824-.4-.377-.247-.907-.84a6.708,6.708,0,0,0-.5-.464c-.3-.971.062.015-.39-.78a1.073,1.073,0,0,1-.1-.284c-.025-.1.021-.23-.05-.307-1.18-1.276-.042.526-.788-.76-1.147-1.282.2.355-.605-1.062-.4-.7-1.25-1.012-1.576-1.754a3.425,3.425,0,0,1-.2-.355c-.053-.13-.038-.29-.116-.407-.093-.142-.26-.219-.378-.341a11.664,11.664,0,0,1-1.293-1.822c-.289-.379-.54-.788-.856-1.144a9.3,9.3,0,0,1-1.744-2.181,4.761,4.761,0,0,1-.656-.89c-.046-.125.028-.267.008-.4a2.1,2.1,0,0,0-.76-1.21c-.808-1.094-.136-.006-.528-1.223-.34-1.057-.119.206-.575-.832-.291-.662.606.24-.194-.452a3.732,3.732,0,0,1-.492-.481,12.832,12.832,0,0,1-1.252-3.422c-.277-.365-.7-.484-.961-.877-.708-1.054-.531-2.48-.98-3.622l.382-.043Z"/>
  </g>
</svg>
