<svg id="atari-2" xmlns="http://www.w3.org/2000/svg" width="50.041" height="53.04" viewBox="0 0 50.041 53.04">
  <defs>
    <style>
      .cls-1 {
        fill: #fff;
      }
    </style>
  </defs>
  <path id="Path_271" data-name="Path 271" d="M48.12,35.04a1.861,1.861,0,0,0-1.92,1.8,1.925,1.925,0,0,0,1.92,1.92,1.845,1.845,0,0,0,1.92-1.92A1.783,1.783,0,0,0,48.12,35.04Z"/>
  <path id="Path_272" data-name="Path 272" class="cls-1" d="M48.12,35.281a1.556,1.556,0,0,1,1.561,1.56A1.454,1.454,0,0,1,48.12,38.4a1.521,1.521,0,0,1-1.559-1.56,1.647,1.647,0,0,1,1.559-1.56Z"/>
  <path id="Path_273" data-name="Path 273" d="M47.762,37.08h.358l.6.841h.359l-.6-.961c.3.015.547-.155.6-.6-.052-.376-.306-.565-.84-.6H47.4v2.16h.36v-.84h0Z"/>
  <path id="Path_274" data-name="Path 274" class="cls-1" d="M47.762,36.12h.479c.2-.046.444.005.48.24-.036.369-.287.39-.6.36h-.358v-.6Z"/>
  <path id="Path_275" data-name="Path 275" d="M19.681,34.2H24.72V0H19.681ZM16.08,0h2.64c0,15.983-.413,19.865-2.879,24.6C13.4,29.264,6.56,34.168.72,34.681v-5.16c4.408-.665,8.392-3.424,11.881-8.64C16.061,15.677,16.161,3.314,16.08,0ZM28.441,0H25.8c-.035,15.983.373,19.865,2.88,24.6,2.4,4.663,9.243,9.567,15.12,10.08v-5.16c-4.447-.665-8.433-3.424-11.88-8.64C28.421,15.677,28.319,3.314,28.441,0Zm12.48,53.04h2.4V37.561h-2.4ZM10.08,37.561v2.28h3.241v13.2h2.4v-13.2h3.121v-2.28ZM25.562,49.2l1.079,3.839h2.4L25.08,39.12c-.378-1.47-1.24-1.583-1.8-1.56-.64-.023-1.5.09-1.919,1.56L17.4,53.04h2.4L20.881,49.2h4.681Zm7.08-8.64V53.04h-2.4v-13.2c.049-1.592.687-2.3,2.281-2.28H35.04a4.212,4.212,0,0,1,4.2,4.56,4.157,4.157,0,0,1-2.639,4.32c-.5.4-.388.7-.12,1.2l3.6,5.4H37.321l-3.48-5.4A1.677,1.677,0,0,1,34.2,45.12c.487-.29,2.726-.908,2.761-2.879-.035-1.929-1.2-2.38-2.04-2.4H33.24c-.4.02-.625.209-.6.72ZM8.16,49.2,9.24,53.04h2.4L7.68,39.12c-.353-1.47-1.215-1.583-1.8-1.56-.616-.023-1.479.09-1.921,1.56L0,53.04H2.4L3.481,49.2Z"/>
  <path id="Path_276" data-name="Path 276" class="cls-1" d="M21.6,46.921,23.28,41.04l1.68,5.881H21.6Zm-17.4,0L5.881,41.04l1.68,5.881Z"/>
</svg>
