<svg xmlns="http://www.w3.org/2000/svg" width="998.013" height="998.025" viewBox="0 0 998.013 998.025">
  <defs>
    <style>
      .cls-1 {
        fill-rule: evenodd;
      }
    </style>
  </defs>
  <path id="Electronic_Arts-Logo.wine" class="cls-1" d="M499.006,0C223.852,0,0,223.855,0,499.014S223.852,998.025,499.006,998.025,998.013,774.173,998.013,499.014,774.162,0,499.006,0Zm0,933.393c-239.516,0-434.374-194.862-434.374-434.379S259.49,64.633,499.006,64.633,933.381,259.495,933.381,499.014,738.52,933.393,499.006,933.393ZM668.539,353.461h3.938V334.385h7.1v-3.368H661.458v3.368h7.082v19.076Zm17.318-17.342h.072l6.225,17.342h3.207l6.223-17.342h.088v17.342h3.7V331.018h-5.436l-6.016,17.554h-.1l-6.162-17.554h-5.525v22.443h3.729ZM572.527,331H327.041l-37.247,59.858H535Zm50.168.571L472.624,570.533H306.16l38.4-59.909h99.771l38.112-59.88H251.794l-38.1,59.88h54.641L192.519,630.235H508.908L625.768,445.94l42.609,64.684h-38.42l-36.385,59.909H707.345l39.506,59.7h72.576Z"/>
</svg>
