<svg id="Firefox-Logo.wine" xmlns="http://www.w3.org/2000/svg" xmlns:xlink="http://www.w3.org/1999/xlink" width="77.419" height="79.969" viewBox="0 0 77.419 79.969">
  <defs>
    <style>
      .cls-1 {
        fill: url(#linear-gradient);
      }

      .cls-2 {
        fill: url(#radial-gradient);
      }

      .cls-3 {
        fill: url(#radial-gradient-2);
      }

      .cls-4 {
        fill: url(#radial-gradient-3);
      }

      .cls-5 {
        fill: url(#radial-gradient-4);
      }

      .cls-6 {
        fill: url(#radial-gradient-5);
      }

      .cls-7 {
        fill: url(#radial-gradient-6);
      }

      .cls-8 {
        fill: url(#radial-gradient-7);
      }

      .cls-9 {
        fill: url(#radial-gradient-8);
      }

      .cls-10 {
        fill: url(#radial-gradient-9);
      }

      .cls-11 {
        fill: url(#radial-gradient-10);
      }

      .cls-12 {
        fill: url(#linear-gradient-2);
      }
    </style>
    <linearGradient id="linear-gradient" x1="0.914" y1="0.155" x2="0.083" y2="0.931" gradientUnits="objectBoundingBox">
      <stop offset="0.048" stop-color="#fff44f"/>
      <stop offset="0.111" stop-color="#ffe847"/>
      <stop offset="0.225" stop-color="#ffc830"/>
      <stop offset="0.368" stop-color="#ff980e"/>
      <stop offset="0.401" stop-color="#ff8b16"/>
      <stop offset="0.462" stop-color="#ff672a"/>
      <stop offset="0.534" stop-color="#ff3647"/>
      <stop offset="0.705" stop-color="#e31587"/>
    </linearGradient>
    <radialGradient id="radial-gradient" cx="0.859" cy="-0.129" r="1.283" gradientTransform="translate(-19.085) scale(0.813 1)" gradientUnits="objectBoundingBox">
      <stop offset="0.129" stop-color="#ffbd4f"/>
      <stop offset="0.186" stop-color="#ffac31"/>
      <stop offset="0.247" stop-color="#ff9d17"/>
      <stop offset="0.283" stop-color="#ff980e"/>
      <stop offset="0.403" stop-color="#ff563b"/>
      <stop offset="0.467" stop-color="#ff3750"/>
      <stop offset="0.71" stop-color="#f5156c"/>
      <stop offset="0.782" stop-color="#eb0878"/>
      <stop offset="0.86" stop-color="#e50080"/>
    </radialGradient>
    <radialGradient id="radial-gradient-2" cx="0.478" cy="0.395" r="1.283" gradientTransform="translate(-19.157) scale(0.813 1)" gradientUnits="objectBoundingBox">
      <stop offset="0.3" stop-color="#960e18"/>
      <stop offset="0.351" stop-color="#b11927" stop-opacity="0.741"/>
      <stop offset="0.435" stop-color="#db293d" stop-opacity="0.341"/>
      <stop offset="0.497" stop-color="#f5334b" stop-opacity="0.094"/>
      <stop offset="0.53" stop-color="#ff3750" stop-opacity="0"/>
    </radialGradient>
    <radialGradient id="radial-gradient-3" cx="0.5" cy="-0.3" r="1.855" gradientTransform="translate(299.067) scale(1.698 1)" gradientUnits="objectBoundingBox">
      <stop offset="0.132" stop-color="#fff44f"/>
      <stop offset="0.252" stop-color="#ffdc3e"/>
      <stop offset="0.506" stop-color="#ff9d12"/>
      <stop offset="0.526" stop-color="#ff980e"/>
    </radialGradient>
    <radialGradient id="radial-gradient-4" cx="0.194" cy="1.101" r="1.019" gradientTransform="translate(22.255) scale(1.096 1)" gradientUnits="objectBoundingBox">
      <stop offset="0.353" stop-color="#3a8ee6"/>
      <stop offset="0.472" stop-color="#5c79f0"/>
      <stop offset="0.669" stop-color="#9059ff"/>
      <stop offset="1" stop-color="#c139e6"/>
    </radialGradient>
    <radialGradient id="radial-gradient-5" cx="0.582" cy="0.366" r="0.54" gradientTransform="matrix(1.066, -0.235, 0.301, 1.138, 83.139, -23.161)" gradientUnits="objectBoundingBox">
      <stop offset="0.206" stop-color="#9059ff" stop-opacity="0"/>
      <stop offset="0.278" stop-color="#8c4ff3" stop-opacity="0.063"/>
      <stop offset="0.747" stop-color="#7716a8" stop-opacity="0.451"/>
      <stop offset="0.975" stop-color="#6e008b" stop-opacity="0.6"/>
    </radialGradient>
    <radialGradient id="radial-gradient-6" cx="2.081" cy="-1.04" r="2.922" gradientTransform="translate(3.126)" gradientUnits="objectBoundingBox">
      <stop offset="0" stop-color="#ffe226"/>
      <stop offset="0.121" stop-color="#ffdb27"/>
      <stop offset="0.295" stop-color="#ffc82a"/>
      <stop offset="0.502" stop-color="#ffa930"/>
      <stop offset="0.732" stop-color="#ff7e37"/>
      <stop offset="0.792" stop-color="#ff7139"/>
    </radialGradient>
    <radialGradient id="radial-gradient-7" cx="0.793" cy="-0.409" r="1.938" gradientTransform="translate(-17.501) scale(0.84 1)" gradientUnits="objectBoundingBox">
      <stop offset="0.113" stop-color="#fff44f"/>
      <stop offset="0.456" stop-color="#ff980e"/>
      <stop offset="0.622" stop-color="#ff5634"/>
      <stop offset="0.716" stop-color="#ff3647"/>
      <stop offset="0.904" stop-color="#e31587"/>
    </radialGradient>
    <radialGradient id="radial-gradient-8" cx="0.063" cy="-0.104" r="1.651" gradientTransform="matrix(0.222, 0.994, -1.378, 0.069, -474.245, 168.094)" gradientUnits="objectBoundingBox">
      <stop offset="0" stop-color="#fff44f"/>
      <stop offset="0.06" stop-color="#ffe847"/>
      <stop offset="0.168" stop-color="#ffc830"/>
      <stop offset="0.304" stop-color="#ff980e"/>
      <stop offset="0.356" stop-color="#ff8b16"/>
      <stop offset="0.455" stop-color="#ff672a"/>
      <stop offset="0.57" stop-color="#ff3647"/>
      <stop offset="0.737" stop-color="#e31587"/>
    </radialGradient>
    <radialGradient id="radial-gradient-9" cx="0.154" cy="-0.427" r="2.387" gradientTransform="translate(-4.736) scale(0.981 1)" gradientUnits="objectBoundingBox">
      <stop offset="0.137" stop-color="#fff44f"/>
      <stop offset="0.48" stop-color="#ff980e"/>
      <stop offset="0.592" stop-color="#ff5634"/>
      <stop offset="0.655" stop-color="#ff3647"/>
      <stop offset="0.904" stop-color="#e31587"/>
    </radialGradient>
    <radialGradient id="radial-gradient-10" cx="1.554" cy="-0.446" r="3.128" gradientTransform="translate(-28.76) scale(0.896 1)" gradientUnits="objectBoundingBox">
      <stop offset="0.094" stop-color="#fff44f"/>
      <stop offset="0.231" stop-color="#ffe141"/>
      <stop offset="0.509" stop-color="#ffaf1e"/>
      <stop offset="0.626" stop-color="#ff980e"/>
    </radialGradient>
    <linearGradient id="linear-gradient-2" x1="0.904" y1="0.151" x2="0.197" y2="0.835" gradientUnits="objectBoundingBox">
      <stop offset="0.167" stop-color="#fff44f" stop-opacity="0.8"/>
      <stop offset="0.266" stop-color="#fff44f" stop-opacity="0.635"/>
      <stop offset="0.489" stop-color="#fff44f" stop-opacity="0.216"/>
      <stop offset="0.6" stop-color="#fff44f" stop-opacity="0"/>
    </linearGradient>
  </defs>
  <path id="Path_45" data-name="Path 45" class="cls-1" d="M74.616,26.827c-1.684-4.052-5.1-8.427-7.775-9.81a40.266,40.266,0,0,1,3.925,11.764l.007.065C66.391,17.921,58.96,13.516,52.891,3.924c-.307-.485-.614-.971-.913-1.484-.171-.293-.308-.557-.427-.8A7.053,7.053,0,0,1,50.973.105a.1.1,0,0,0-.088-.1.138.138,0,0,0-.073,0c-.005,0-.013.009-.019.011s-.019.011-.028.015L50.78.005c-9.735,5.7-13.038,16.252-13.342,21.53a19.387,19.387,0,0,0-10.666,4.111,11.587,11.587,0,0,0-1-.758,17.968,17.968,0,0,1-.109-9.473,28.705,28.705,0,0,0-9.329,7.21h-.018c-1.536-1.947-1.428-8.367-1.34-9.708a6.928,6.928,0,0,0-1.294.687,28.225,28.225,0,0,0-3.788,3.245A33.845,33.845,0,0,0,6.271,21.2v0a32.733,32.733,0,0,0-5.2,11.743l-.052.256c-.073.341-.336,2.049-.381,2.42a.817.817,0,0,1-.009.085A36.938,36.938,0,0,0,0,41.042v.2A38.759,38.759,0,0,0,76.954,47.8c.065-.5.118-.995.176-1.5a39.857,39.857,0,0,0-2.514-19.469ZM29.946,57.165c.181.087.351.181.537.264l.027.017q-.282-.135-.564-.281ZM38.824,33.789Zm31.952-4.934v-.037l.007.041Z"/>
  <path id="Path_46" data-name="Path 46" class="cls-2" d="M74.616,26.827c-1.684-4.052-5.1-8.427-7.775-9.81a40.266,40.266,0,0,1,3.925,11.764v.037l.007.041a35.1,35.1,0,0,1-1.206,26.158c-4.442,9.531-15.194,19.3-32.024,18.825C19.358,73.327,3.343,59.833.349,42.159c-.545-2.787,0-4.2.274-6.465A28.876,28.876,0,0,0,0,41.042v.2A38.759,38.759,0,0,0,76.954,47.8c.065-.5.118-.995.176-1.5a39.857,39.857,0,0,0-2.514-19.469Z"/>
  <path id="Path_47" data-name="Path 47" class="cls-3" d="M74.616,26.827c-1.684-4.052-5.1-8.427-7.775-9.81a40.266,40.266,0,0,1,3.925,11.764v.037l.007.041a35.1,35.1,0,0,1-1.206,26.158c-4.442,9.531-15.194,19.3-32.024,18.825C19.358,73.327,3.343,59.833.349,42.159c-.545-2.787,0-4.2.274-6.465A28.876,28.876,0,0,0,0,41.042v.2A38.759,38.759,0,0,0,76.954,47.8c.065-.5.118-.995.176-1.5a39.857,39.857,0,0,0-2.514-19.469Z"/>
  <path id="Path_48" data-name="Path 48" class="cls-4" d="M55.782,31.383c.084.059.162.118.241.177a21.1,21.1,0,0,0-3.6-4.695C40.377,14.817,49.266.742,50.765.027L50.78.005c-9.735,5.7-13.038,16.252-13.342,21.53.452-.031.9-.069,1.362-.069a19.56,19.56,0,0,1,16.982,9.917Z"/>
  <path id="Path_49" data-name="Path 49" class="cls-5" d="M38.825,33.789c-.064.964-3.47,4.289-4.661,4.289-11.021,0-12.81,6.667-12.81,6.667.488,5.614,4.4,10.238,9.129,12.684.216.112.435.213.654.312q.569.252,1.138.466a17.235,17.235,0,0,0,5.043.973c19.317.906,23.059-23.1,9.119-30.066a13.38,13.38,0,0,1,9.345,2.269A19.56,19.56,0,0,0,38.8,21.466c-.46,0-.91.038-1.362.069a19.387,19.387,0,0,0-10.666,4.111c.591.5,1.258,1.168,2.663,2.553C32.065,30.79,38.81,33.474,38.825,33.789Z"/>
  <path id="Path_50" data-name="Path 50" class="cls-6" d="M38.825,33.789c-.064.964-3.47,4.289-4.661,4.289-11.021,0-12.81,6.667-12.81,6.667.488,5.614,4.4,10.238,9.129,12.684.216.112.435.213.654.312q.569.252,1.138.466a17.235,17.235,0,0,0,5.043.973c19.317.906,23.059-23.1,9.119-30.066a13.38,13.38,0,0,1,9.345,2.269A19.56,19.56,0,0,0,38.8,21.466c-.46,0-.91.038-1.362.069a19.387,19.387,0,0,0-10.666,4.111c.591.5,1.258,1.168,2.663,2.553C32.065,30.79,38.81,33.474,38.825,33.789Z"/>
  <path id="Path_51" data-name="Path 51" class="cls-7" d="M24.965,24.357c.314.2.573.374.8.531a17.968,17.968,0,0,1-.109-9.473,28.7,28.7,0,0,0-9.329,7.21C16.516,22.62,22.138,22.519,24.965,24.357Z"/>
  <path id="Path_52" data-name="Path 52" class="cls-8" d="M.354,42.159C3.345,59.833,19.363,73.327,37.548,73.842c16.83.476,27.582-9.294,32.024-18.825a35.1,35.1,0,0,0,1.206-26.158v-.037c0-.029-.006-.046,0-.037l.007.065C72.16,37.827,67.594,46.524,60.456,52.4l-.022.05c-13.908,11.327-27.218,6.834-29.912,5q-.282-.135-.564-.281C21.849,53.3,18.5,45.91,19.217,39.574A9.953,9.953,0,0,1,10.036,33.8a14.618,14.618,0,0,1,14.249-.572,19.3,19.3,0,0,0,14.552.572c-.015-.315-6.76-3-9.39-5.59-1.405-1.385-2.072-2.052-2.663-2.553a11.587,11.587,0,0,0-1-.758c-.23-.157-.489-.327-.8-.531-2.827-1.838-8.449-1.737-8.635-1.732h-.018c-1.536-1.947-1.428-8.367-1.34-9.708a6.928,6.928,0,0,0-1.294.687,28.225,28.225,0,0,0-3.788,3.245A33.845,33.845,0,0,0,6.271,21.2v0a32.733,32.733,0,0,0-5.2,11.743c-.019.079-1.4,6.1-.717,9.221Z"/>
  <path id="Path_53" data-name="Path 53" class="cls-9" d="M52.425,26.865a21.1,21.1,0,0,1,3.6,4.7c.213.161.412.321.581.476,8.787,8.1,4.183,19.55,3.84,20.365,7.138-5.881,11.7-14.578,10.329-23.555C66.391,17.921,58.96,13.516,52.891,3.924c-.307-.485-.614-.971-.913-1.484-.171-.293-.308-.557-.427-.8A7.053,7.053,0,0,1,50.973.1a.1.1,0,0,0-.088-.1.138.138,0,0,0-.073,0c-.005,0-.013.009-.019.011s-.019.011-.028.015c-1.5.711-10.388,14.786,1.66,26.834Z"/>
  <path id="Path_54" data-name="Path 54" class="cls-10" d="M56.6,32.036c-.169-.155-.368-.315-.581-.476-.079-.059-.157-.118-.241-.177a13.38,13.38,0,0,0-9.345-2.269c13.94,6.97,10.2,30.972-9.119,30.066a17.235,17.235,0,0,1-5.043-.973q-.569-.213-1.138-.466c-.219-.1-.438-.2-.654-.312l.027.017c2.694,1.839,16,6.332,29.912-5l.022-.05C60.787,51.586,65.391,40.133,56.6,32.036Z"/>
  <path id="Path_55" data-name="Path 55" class="cls-11" d="M21.354,44.745s1.789-6.667,12.81-6.667c1.191,0,4.6-3.325,4.661-4.289a19.3,19.3,0,0,1-14.552-.572,14.618,14.618,0,0,0-14.249.572,9.953,9.953,0,0,0,9.181,5.775c-.718,6.337,2.632,13.725,10.741,17.6.181.087.351.181.537.264-4.733-2.445-8.641-7.069-9.129-12.683Z"/>
  <path id="Path_56" data-name="Path 56" class="cls-12" d="M74.616,26.827c-1.684-4.052-5.1-8.427-7.775-9.81a40.266,40.266,0,0,1,3.925,11.764l.007.065C66.391,17.921,58.96,13.516,52.891,3.924c-.307-.485-.614-.971-.913-1.484-.171-.293-.308-.557-.427-.8A7.053,7.053,0,0,1,50.973.105a.1.1,0,0,0-.088-.1.138.138,0,0,0-.073,0c-.005,0-.013.009-.019.011s-.019.011-.028.015L50.78.005c-9.735,5.7-13.038,16.252-13.342,21.53.452-.031.9-.069,1.362-.069a19.56,19.56,0,0,1,16.982,9.917,13.38,13.38,0,0,0-9.345-2.269c13.94,6.97,10.2,30.972-9.119,30.066a17.235,17.235,0,0,1-5.043-.973q-.569-.213-1.138-.466c-.219-.1-.438-.2-.654-.312l.027.017q-.282-.135-.564-.281c.181.087.351.181.537.264-4.733-2.446-8.641-7.07-9.129-12.684,0,0,1.789-6.667,12.81-6.667,1.191,0,4.6-3.325,4.661-4.289-.015-.315-6.76-3-9.39-5.59-1.405-1.385-2.072-2.052-2.663-2.553a11.587,11.587,0,0,0-1-.758,17.968,17.968,0,0,1-.109-9.473,28.7,28.7,0,0,0-9.329,7.21h-.018c-1.536-1.947-1.428-8.367-1.34-9.708a6.928,6.928,0,0,0-1.294.687,28.225,28.225,0,0,0-3.788,3.245A33.845,33.845,0,0,0,6.271,21.2v0a32.733,32.733,0,0,0-5.2,11.743l-.052.256c-.073.341-.4,2.073-.447,2.445h0A45.1,45.1,0,0,0,0,41.042v.2A38.759,38.759,0,0,0,76.954,47.8c.065-.5.118-.995.176-1.5a39.857,39.857,0,0,0-2.514-19.469Zm-3.845,1.991.007.041Z"/>
</svg>
