<svg xmlns="http://www.w3.org/2000/svg" width="256" height="328.826" viewBox="0 0 256 328.826">
  <path id="flask" d="M76.5,203.351c-9.75-7.67-20.153-15.02-27.26-25.377a205.925,205.925,0,0,1-34.35-61.625c-4.76-14.45-6.39-29.941-12.53-43.83C-4.053,62.428,3.466,51.4,14.518,48.2c4.917-.948,13.568-5.59,3.125-2.268-9.364,6.866-10.266-6.24-.666-7.07,6.552-.869,8.964-6.23,6.721-11.056-7.036-4.59,17.055-9.626,4.932-16.473C16.01-2.288,46.29-4.91,38.818,10.561c-1.786,11.9,21.166-2.185,15.836,11.554,5.415,6.6,20.272,1.5,19.9,10.757,7.886.542,10.593,7.173,17.988,7.683,7.677,3.466,21.58,6.192,24.188,14.837-7.61,6.023-25.227-12.443-26.078,4.232,2.3,24.638,1.715,50.017,10.726,73.478,4.262,14.2,14.6,25.385,23.931,36.45,8.933,10.834,21.03,18.466,33.363,24.887a137.633,137.633,0,0,0,34.265,10.606c4.78-3.656,13.221-17.25,20.675-11.522.36,6.449-14.8,13.471-.711,12.758,8.278-2.5,14.013,6.394,20.826-1.629,6.278,7.436,26.09-4.747,21.625,10.45-6.042,3.9-14.85,1.543-20.9,6.906-9.972-4.983-17.912,4.453-28.956,3.263a212.66,212.66,0,0,1-37.167,3.1c-20.4-1.609-41.222-2.288-60.624-9.39-10.933-3.176-21.6-9.4-31.205-15.628Zm17.224,7.468c10.672,4.61,21.109,9.475,32.807,10.946,18.558,2.577,37.723,6.552,56.346,2.93-8.428-3.8-17.145,1.478-25.541-2.72-10.07,2.164-20.878-.556-31.12-1.9-11.64-5.184-24.206-8.748-35.107-15.485-13.628-4.975,7.043,6.383,10.724,7.306,8.514,4.83-9.365-2.48-11.89-4.487-7.132-4-8.04-3.165-.7.9,1.477.864,2.936,1.773,4.485,2.511Zm-20.31-14.353c10.345,3.832-.046-7.272-4.78-6.63-2.1-3.643-8.023-5.945-3.845-7.9-7.513,2.61-7.873-9.92-11.4-8.127-7.952-2.511-3.094-11.4-12.569-16.87-.864-5.756-9.41-10.745-12.13-19.423-1.2-4.446-9.658-17.2-4.466-5.33,4.42,11.43,12.195,21.227,18.669,31,5.022,9.31,10.96,19.048,20.108,24.855,3.087,2.962,6.061,7.493,10.415,8.422ZM43.624,163.751C43.982,162.188,45.514,167.131,43.624,163.751Zm42.183,37.3C88.1,200.03,82.511,199.762,85.807,201.056Zm5.61,2.048C90.836,200.278,88.854,204.686,91.417,203.1Zm7.03,2.93C101.788,202.847,93.287,204.024,98.447,206.034Zm12.045,6.713C112.525,209.746,103.985,211.617,110.492,212.747ZM87.364,196.624C92.554,193.262,80.648,196.577,87.364,196.624Zm5.27,2.628C92.483,197.479,90.757,200.049,92.634,199.252ZM118.979,215.7c4.237,2.675,24.738,5.859,11.9,1.1C128.728,217.247,107.078,210.668,118.979,215.7ZM77.156,183.12C76.744,181.343,70.576,181.152,77.156,183.12Zm12.26,7.155C92.613,188.045,82.792,188.555,89.416,190.275ZM99.734,196.6C104.318,194.872,92.307,194.865,99.734,196.6ZM72.16,177.686c4.97,3.811,20.05.49,7.611-2.275-5.656-3.015-18.407-5.08-9.715,1.818Zm34.566,21.1C108.8,195.256,98.041,196.766,106.726,198.781Zm-10.5-8.345c12.15,3.434-10.22-7.69-3-1.268l1.6.726Zm21.058,12.17C128.789,202.716,106.883,201.018,117.281,202.606ZM67.734,171.028C67.282,168.884,64.9,171.206,67.734,171.028Zm69.013,42.5C137.054,209.656,132.993,216.41,136.747,213.526Zm-49.37-30.472C86.677,181.014,83.781,182.969,87.377,183.054ZM68.825,169.682C75.431,169.284,59.775,166.772,68.825,169.682Zm-21.978-14.2C46.024,152.308,39.661,149.784,46.847,155.478Zm57.695,36.614C103.332,190.711,103.972,192.392,104.542,192.092Zm35.9,22.037C140.337,212.016,138.492,214.925,140.447,214.129Zm-39.083-25.32C102.012,186.089,95.728,187.984,101.364,188.809ZM74.612,171.853C79.53,171.329,66.732,168.531,74.612,171.853Zm45.252,28.119C127.527,196.937,112.4,198.493,119.864,199.972ZM96.329,184c8.827,1.136-10.508-6.01-1.942-.642Zm30.68,18.864c8.247-4.923,5.527,11.542,13.989,1.393,8.343-6.094-7.207,7.533,3.073,1.086,7.441-4.977,18.426,2.36,25.365,4.747,4.988-.242,9.841,4.316,14.96,1.542,9.848-2.655-19.263-3.935-11.633-8.638-9.01,2.624-15.666-3.125-20.1-8.9-10.11-2.335-21.795-7.5-26.843-16.452-2.06-3.354,2.97.478-1.778-5.015-6.088-5.415-9.128-11.569-13.216-18.153-4.885-2.6-5.46-10.273-5.951-.254.04-6.324-5.9-10.581-7.35-8.815-.026-6.089,6.357-3.035,1.89-7.54-.96-6.311-4.126-12.888-5.075-20.016-1.476-3.433-.21-10.789-5.047-3.015-1.76,8.22-.582-10.1,2.158-4.06,3.6-6.16-1.3-5.435-1.492-4.584,2.342-5.2,1.485-12.575-.614-9.763,1.249-5.513,1.975-20.284-1.863-17.662,2.327-5.767,4.414-26.38-5.7-18.518C77.692,60.3,70.6,61.73,67.25,63.4c10.508,5.794-1.06,2.092-5.343,1.17-.556,5.362-4.793,3.047-10.09,3.1,8.462,1.046-4.12,8.65-8.964,5.7-6.3,3.008,5.434,10.528.124,12.855.655,3.5-9.652-1.267-8.847,6.828-6.115-2.578-.837,9.6,2.223,5.48,10.4,2.818,7.324,9.233,7.585,15.333-1.694,3.55-8.37-8.35-1.485-7.8-5.434-8.823-6.008-3.192-10.521.908-1.046.295,11.509,5.832,3.63,8.566,6.931,1.073,7.134,7.141,8.547,10.98,4.165,4.34,3.307-4.795,8.3.425-3.16-4.65-16.715-13.1-5.8-10.39-.06-4.676-1.976-8.45,1.372-8.359,3.316-6-3.472,14.792,4,7.168,2.065-.9,2.583-6,6.3.484,5.394,5.31,1.949,9.153-5.663,4.289,1.36,4.623,10.181,6.27,8.52,13.5,1.758,6.356,4.218,4.014,6.362,3.648,1.68,6.173,2.637,1.635,2.715-1.308,7.7,1.65,5.891,6.2,8.3,9.378,5.3,2.392-7.591-16.224,1.512-5.6,9.578,8.651,3.6,12.26-5,10.875,5.44-.44,7.191,7.357,14,7.082,6.205,2.955,10.41,14.294-.288,9.572-3.708-3.348-16.846-7.474-6.114-1.111,9.9,4.59,17.773,7.33,27.326,13.092,6.834,4.878,9.788,10.467,12.378,11.574-5.747,2.745-17.314-2.191-8.723-3.7-5.362-.975-11.39-3.688-6.258,2.988,4.368,3.649,15.465,3.262,17.46,3.674-1.687,3.715-4.583,4.01.065,4.3-5.186,2.766,1.668,3.2,2.145,4.773ZM116.4,172.906c-3.158-3.3-3.975-9.481-.562-4.108C117.594,169.505,121.446,178.9,116.4,172.906Zm34.547,21.945C152.918,194.721,151.008,196.347,150.95,194.851Zm-39.528-30.04C111.3,159.821,112.558,168.661,111.422,164.811Zm-3.434-4.617C104.013,152.524,112.99,162.365,107.988,160.194ZM66.373,131.475C68.708,130.852,67.524,135.462,66.373,131.475Zm33.121,17.949C100.926,144.042,101.175,153.937,99.494,149.424Zm-23.4-16.27C74.45,130.186,79.544,135.941,76.1,133.154Zm20.075,6.435c-3.76-8.422,2.668-4.6.837,1.38ZM61.548,116.5c-1.68-2.765-4.46-10.874-3.564-13.351.8,4.034,8.573,17.354,3.805,5.519-5.263-9.92,6.3,3.216,7.488,5.695.556,2.459-3.25-.673-.674,5.1C63.9,112.89,65.83,123.092,61.548,116.5Zm-10.7-7.375C51.288,102.7,53.3,113.531,50.85,109.124Zm4.813,1.66C57.958,105.934,59.553,117.546,55.663,110.784Zm-11.581-8.957c-3.983-3.964-6.867-7.612.189-2.46,2.714.105-6.041-8.3.655-2.668,7.035,1.283,3.471,11.543-.844,5.128Zm6.081-.157C52.479,99.375,51.393,103.926,50.163,101.67Zm3.747,1.2C50.4,96.294,58.167,105.626,53.91,102.866Zm-7.441-7.107c-11.58-10.314,14.549,5.387,1.89,1.908Zm33.185,19.276c-5.015-3-1.334-21.153.38-8.742,4.872-1.577-.27,6.415,3.36,6.336C82.826,117.669,81.2,119.483,79.654,115.035Zm12.274,7.258C92.418,116.821,92.961,126.035,91.928,122.293ZM89.8,120.181C90.346,117.847,89.849,122.934,89.8,120.181Zm-41.06-27.81c-7.44-10.267,21.625,10.383,4.768,2.6C51.745,94.51,49.621,94.346,48.737,92.371ZM72.376,104.9C71.671,96.256,73.946,106.331,72.376,104.9Zm17.943,11.513C91.705,111.491,90.425,119.672,90.319,116.414ZM49.882,88.454c4.421-.948,18.322,7.762,5.558,2.485-1.418-1.57-4.446-.857-5.558-2.486Zm37.971,18.924c.473-8.84,2.644-5.277.02,1.269l-.02-1.27Zm-34.682-22c1.8-2.643-4.788-11.947.947-3.336,2.48,1.968,7.173,3.3,3.028,4.126C63.665,91.914,55.558,87.722,53.171,85.375Zm32.8,19.244C87.22,94.549,87.076,110.517,85.976,104.619ZM49.4,76.076C50.784,75.486,50.136,77.912,49.4,76.076Zm8.56,5.094C60.166,76.546,62.024,86.322,57.964,81.17ZM82.1,94.594C82.079,92.822,82.556,97.177,82.1,94.594ZM80.7,91.5C77.351,83.236,83.819,95.876,80.7,91.5ZM78.645,86.08C78.085,82.666,80.555,90.37,78.645,86.08Zm3.348-5.44c-2.3-4.049,2.9-17.852,3.487-9.292-2.427,6.67-.7,10.4.986,1.452,3.127-7.036-.673,13.9-4.473,7.84Zm3.44-20.526C86.435,58.884,85.656,61.6,85.433,60.114Zm-5.746,113.21C78.326,172.134,79.862,174.077,79.687,173.324Zm11.835,5.984c6.584,1.694,6.552-1.021.6-1.832-3.2-2.974-13.3-6.133-4.256-.366C88.462,178.628,90.352,178.588,91.522,179.308Zm-23.37-15.525c3.622,2.709,13.659,7.664,5.165,1.035,2.864-3.33-5.48-5.1-2.713-7.33-7.043-4.311-5.56-3.925-.621-3.787-8.462-3.787,1.222-3.5.765-5.44-3.263-.642-16.211-5.756-8.593.418-7.742-3.944-1.845,1.471-4.185.9-7.92-2.158,7.05,6.03-1.256,4,4.539,3.6,12.222,9.22,1.916,3.8-1.353,1.955,7.377,4.918,9.521,6.4ZM80.529,170.9C95.576,175.744,73.146,164.967,80.529,170.9Zm63.364,38.384C144.089,206.294,141.839,211.832,143.893,209.282Zm6.513,2.74c3.472-3.36.144,5.362,5.754-.823.058-4.428-.17-7.042-6.447-1.662-1.734.962-2.5,5.035.693,2.486ZM47.024,147.1C45.957,142.906,39.549,142.924,47.024,147.1Zm6.95,4.556C51.391,147.372,44.76,147.777,53.974,151.654Zm39.568,23.861c3.866,3.434,17.741,2.518,4.69.426C96.3,173.083,85.964,173.77,93.542,175.515Zm54.385,33.593C153.871,204.118,142.167,211.331,147.927,209.108Zm12.366,8.493C160.331,216,157.73,218.3,160.293,217.6Zm.02-2.243C166.9,208.388,153.937,215.77,160.313,215.358Zm-130.4-82.582c-5.61-8-3.485-11.6-8.9-18.14-1.028-5-9.285-16.341-4.27-4.329,4.59,7.03,5.95,17.91,13.17,22.469Zm128.329,80.365C170.364,205.313,153.277,209.734,158.246,213.141Zm9.247,3.622C173.561,211.557,163.654,215.677,167.493,216.763ZM44.963,138.248C46.7,135.665,40.478,137.915,44.963,138.248Zm120.6,76.043c5.872-3.785-1.353-3.2-1.065.346Zm-79.7-50.233C85.663,161.495,82.76,164.274,85.865,164.058Zm4.924,2.832C89.22,163.725,88.383,167.387,90.789,166.89Zm84.2,49.959c7.526-5.429-4.557-1.041-1.576,1.033Zm-2.883-1.393C178.236,210.322,165.635,217.731,172.1,215.456Zm14.724,9.8C190.942,222.5,181.826,224.368,186.827,225.257ZM48.737,136.385c5.512,1.235,22.042,13.581,12.293.857-4.995-1.478-2-13.687-7.094-11.529,3.42,5.715,2.81,8.14-4.37,4.545-9.016-4.408-5.067,2.178-3.3,4-2.408.549,3.177,2.086,2.47,2.13ZM23.607,116.54c.987-4.088-9.1-22.469-4.76-9.214C20.409,110.1,20.247,115.368,23.607,116.54Zm46.126,28.437C66.889,142.6,69.6,144.637,69.733,144.977Zm6.99,1.63C76.723,142.277,69,144.847,76.723,146.607Zm60.618,38.207C136.184,181.857,132.771,184.748,137.341,184.814Zm2.91,2.124C139.818,185.284,138.569,187.259,140.251,186.938Zm24.024,15.138C166.584,200.37,161.391,201.855,164.275,202.076ZM36.156,119.744C42.766,117.186,29.073,117.919,36.156,119.744ZM132,180.124C131.927,175.848,127.787,181.191,132,180.124ZM33.546,113.655C37.79,112.225,29.616,112.715,33.546,113.655Zm12.32,5.97C45.793,118.22,44.565,120.162,45.866,119.625Zm150.3,92.168c5.46-1.1,17.9,2.78,19.911-1.444-6.63-.164-22.932-4.683-23.7,1.071l1.452.23,2.342.143ZM49.782,120.613C49.882,116.277,46.4,120.45,49.782,120.613ZM17.39,98.138C15.919,89.878,11.792,96.888,17.39,98.138Zm7.722,1.942C25.211,97.425,18.042,97.693,25.112,100.08Zm4.414,2.171C28.251,101.217,28.532,103.551,29.526,102.251ZM57.31,120.07C58.619,118.866,54.211,119.181,57.31,120.07ZM26.59,97.36C25.839,91.122,17.638,96.425,26.59,97.36ZM10.745,87.08C10.522,84.2,9.2,88.165,10.745,87.08ZM13.1,85.3C12.72,81.888,11.078,85.733,13.1,85.3ZM26.12,93.07c5.506-2.158-10.026-4.473-1.125-.4ZM200.346,200.69C203.87,197.46,195.873,199.69,200.346,200.69ZM221.395,211.6C222.808,207.426,217.837,212.147,221.395,211.6ZM27.45,86.25C28.033,82.21,23.083,87.054,27.45,86.25ZM8.927,73.84c-.994-5.7-.857-15.714,8.658-12.333-12.7,2.524,8.8,15.79,6.081,5.315,5.342.263,10.45-3.157,7.644,2.027,10.528-1.157,17.82-10.285,27.987-9,7.918-1.052,16.576-1.844,25.11-5.035,7.016-.5,13.77-8.057,9.927-12.536-9.567-.81-19.586.386-30.159,2.492-11.717,2.432-22.362,7.061-34.186,9.05C18.46,55.367,32.3,58.08,29,58.688c-6.01,2.086,7.174,3.492-.778,5.7-4.91-.934-10.024-2.621-7.925-7.8C9.26,58.021-.444,62.6,8.28,73.832l.648.006ZM35.535,60.29c2.583-9.533,13.862,7.848,4.237,1.269A6,6,0,0,0,35.535,60.29Zm.5-4.624C39.772,52.888,38.019,57.23,36.037,55.666Zm4.741.08c.342-4.388,10.863,2.321,1.734,1.576l-1.734-1.577Zm6.487-2.609C49.639,50.363,47.953,55.595,47.265,53.137Zm1.662-1.111C52.876,47.285,71.27,49,57.806,51.56c-3.61-2.72-6.375,1.6-8.879.466Zm24.01-3.7C72.343,35.369,84.871,52.921,72.937,48.324Zm6.815-.04c2.49-6.525,9.67-2.621,1.157-1.314C81.091,47.67,80.654,50.345,79.752,48.284ZM24.765,82.9C32.2,78.344,16.865,78.947,24.765,82.9Zm5.505,1.524C32.88,81.654,24.594,83.3,30.27,84.426Zm-16.216-11.5C18.3,69.654,9.019,71.682,14.054,72.924ZM233.818,210.407C233.942,206.614,230.568,212.113,233.818,210.407Zm-22.331-15.243C212.121,190.8,208.617,195.544,211.487,195.164Zm28.471,16.715c5.945.02,18.014-1.852,5.08-1.845C243.005,210.349,233.21,210.284,239.958,211.879ZM35.11,81.75c4.813-.327,7.526-5.3-.936-5.022-13.11-1.353,11.567,4.493-1.68,2.819C30.716,80.724,35,82.077,35.11,81.75ZM39.347,83.9C38.843,80.809,37.855,85.536,39.347,83.9ZM44.375,70.49C46.461,67.9,41.485,69.8,44.375,70.49ZM28.367,43.74c8.593-2.916,20.337-6.2,24.392,1.44-4.127-4.963-1.667-9.855,2.23-2.59,5.512,7.344,8.27-3.341,4.687-5.807,4.088,5.074,8.73,7.475,2.733.322,6.52-7.841-13.045,1.026-17.491.934-2.138.96-22.089,5.087-16.55,5.7ZM33.4,34.1c4.9-3.694,16.943,2.2,9.214-3.676C41.858,29.761,25.694,34.887,33.4,34.1Zm17.859.738c5.728.144-2.471-7.7,4.355-4.146-1.118-3.661-7.951-4.348-11.292-5.812C42.434,28.231,48.167,34.887,51.261,34.841ZM36.534,18.63C38.516,15.943,33.056,20,36.534,18.63Zm7.3,1.745c9.238-1.222-2.356-3.975-1.866-.1l1.865.1ZM30.2,9.717C23.7,1.223,42.439,11.143,35.827,2.249,30.263-2.177,24.921,7.239,30.2,9.717Zm83.47,44.957c2.984-5.285-12.312-7.128-2.007-1.872.948.315.734,2.237,2.007,1.872ZM53.108,251.495q-.99,3.909-1.222,13.117,0,1.809-1.632,1.81a2.3,2.3,0,0,1-2.276-1.576,20.571,20.571,0,0,0-3.324-5.947,7.994,7.994,0,0,0-4.955-2.39q-3.323-.525-16.555-.525-3.03,0-3.963.644-.583.4-.583,1.749v26.409q0,1.341,1.688,1.283,5.192-.06,15.04-.7a3.417,3.417,0,0,0,2.6-1.256q.675-1.02,1.312-5.275a1.993,1.993,0,0,1,2.74-1.806c1.32.272,1.888.875,1.693,1.806q-1.635,7.932-1.053,20.64.062,1.512-1.923,1.632-1.635.176-2.04-1.75-1.512-7.285-5.624-7.785a126.712,126.712,0,0,0-13.38-.494c-.7,0-1.049.251-1.049.757v26.235a3.986,3.986,0,0,0,2.154,3.964q1.695.875,7.287,1.575c1.907.194,2.74,1.032,2.51,2.506q-.353,1.924-5.133,1.517-13.815-1.11-22.793.119Q.113,328.1.117,325.713q0-1.52,2.506-1.75,5.714-.643,5.712-10.027V264.028a10.726,10.726,0,0,0-1.369-5.915,11.8,11.8,0,0,0-5.1-3.761q-2.334-1.05-1.75-2.857c.194-.737.506-1.147.931-1.223a9.853,9.853,0,0,1,3.089.234q3.675.582,17.316.583,16.094,0,27.81-.7,3.9-.237,3.907.64a1.8,1.8,0,0,1-.061.466ZM90.915,325.5q0,2.332-2.623,2.04a115.636,115.636,0,0,0-19.936.231,6.136,6.136,0,0,1-2.946-.113c-.37-.235-.552-.875-.552-1.928q0-1.395,3.175-2.36t3.177-5.74V264.87q0-4.725-1.368-6.94a8.874,8.874,0,0,0-4.81-3.437q-1.809-.645-1.81-1.81,0-1.749,2.624-2.623a36.7,36.7,0,0,0,8.223-3.964q3.5-2.1,4.429-2.1,2.155,0,2.159,2.971,0-.229-.236,5.83-.169,5.77-.113,11.37l.23,52.06q0,3.558,1.75,5.162t6,2.126q2.622.289,2.623,1.983Zm52.729-3.438q0,1.227-4.458,3.7t-7.142,2.479a5.056,5.056,0,0,1-4.023-2.215q-1.749-2.215-2.45-2.214a36.378,36.378,0,0,0-5.54,2.388,23.208,23.208,0,0,1-10.084,2.393,11.728,11.728,0,0,1-7.987-2.8,10.638,10.638,0,0,1-3.5-8.4q0-10.086,23.088-14.457,3.96-.759,4.02-3.207l.119-3.732q.351-9.559-8.454-9.559-2.508,0-4.754,4.486t-6.441,4.842q-4.779.462-4.781-4.024,0-2.8,7.113-6.53a30.949,30.949,0,0,1,14.344-3.907q11.832,0,11.717,11.254l-.235,24.017q-.054,3.791,3.207,3.789a18.693,18.693,0,0,0,2.449-.291q1.811-.291,2.1-.292c1.125,0,1.688.761,1.688,2.275Zm-17.955-13.29c.04-.973-.187-1.617-.673-1.924a3.252,3.252,0,0,0-2.3-.178q-14.052,2.508-14.052,9.154,0,6.705,7.287,6.7a17.749,17.749,0,0,0,6-1.105q3.62-1.287,3.616-3.093l.118-9.559Zm61.3,6.583a11.744,11.744,0,0,1-4.753,9.825q-4.751,3.645-12.972,3.644a52.487,52.487,0,0,1-10.96-1.166q-4.725-1.05-5.481-1.923-.468-.82-.466-7.988,0-3.09,1.4-3.206a2.432,2.432,0,0,1,2.39,1.514q4.371,7.639,14.109,7.64,8.216,0,8.218-5.717a5.426,5.426,0,0,0-1.866-4.2q-2.041-1.924-7.927-4.49-8.514-3.787-11.369-6.647a10.9,10.9,0,0,1-3.09-8.162,11.388,11.388,0,0,1,4.839-9.793q4.488-3.384,12.008-3.381a45.321,45.321,0,0,1,8.632.757q4.2.759,4.372,1.866.462,3.261,1.924,9.446c.117.5-.43.911-1.632,1.222q-1.926.408-2.567-.64-4.6-7.524-11.66-7.522-7.986,0-7.987,5.13a5.475,5.475,0,0,0,2.157,4.546q1.926,1.458,9.037,4.551,7.463,3.205,10.146,5.77a11.722,11.722,0,0,1,3.5,8.919Zm68.587,10.2q0,2.04-2.741,2.157-4.081.06-10.668.583-3.267.643-4.664-.814a120.9,120.9,0,0,1-15.628-20.757,1.534,1.534,0,0,0-1.34-.931q-.99,0-3.437,1.75a4.713,4.713,0,0,0-2.741,4.31q0,1.986.117,5.718t1.863,4.894q1.226.82,5.655,1.284,2.74.351,2.742,2.04c0,.895-.146,1.45-.438,1.66a4.219,4.219,0,0,1-2.3.146q-5.829-.522-19.7.583-3.5.291-3.79-.875a4.485,4.485,0,0,1-.118-1.166c0-1.2,1.187-2.118,3.56-2.736q3.205-.822,3.205-7.523V264.928q0-4.779-.935-6.644-1.281-2.393-5.364-3.733-1.92-.638-1.923-1.806,0-1.7,2.74-2.623A36.554,36.554,0,0,0,208,246.1q3.209-2.1,3.964-2.1,2.394,0,2.393,3.033,0-.412-.061,5.77-.063,5.714-.056,11.428l.117,36.494c0,1.012.271,1.514.814,1.514a5.272,5.272,0,0,0,2.684-1.514q4.839-3.791,11.891-9.911a4.015,4.015,0,0,0,1.4-2.332c0-1.048-1.574-1.79-4.72-2.214a1.935,1.935,0,0,1-1.928-2.276q.177-2.04,2.041-1.749a101.142,101.142,0,0,0,12.243.644q5.6.054,11.138.057c1.2.04,1.806.757,1.806,2.158q0,1.98-2.855,2.158a21.472,21.472,0,0,0-8.453,2.04q-5.539,2.5-11.838,8.8a1.064,1.064,0,0,0-.466.874q0,.814,1.984,3.907,7.287,11.078,13.757,16.732,4.142,3.555,7.753,3.555a8.432,8.432,0,0,1,3.323.38q.645.379.645,2.01Z"/>
</svg>
