<svg xmlns="http://www.w3.org/2000/svg" width="115.546" height="116.149" viewBox="0 0 115.546 116.149">
  <path id="Frostbite__game_engine_-Logo.wine" data-name="Frostbite_(game_engine)-Logo.wine" d="M60.378,113.579l-1.355-2.57-1.838-6.16-1.837-6.162,1.6-6.208,1.6-6.21.078.08.079.078,1.592,14.787L61.881,116l-.074.073-.074.074Zm4.423-.17v-.115l-.8-4.979-.8-4.98-.14-.462-.142-.463h4.022l.547-.926.546-.926h.13l8.025,3.01,8.026,3.01-.51.148-.51.147-4.5.835-4.5.834-4.46,2.49-4.461,2.49H64.8Zm-16.9-3.593-6.981-2.627-.126-.126-.125-.125,4.033-6.167,4.033-6.166.186-.209.187-.208,1.936,2.928,1.937,2.929.659.48.658.48.483,5,.482,5,.008.727.008.728-.2-.01-.2-.01-6.98-2.628Zm30.473-10-1.6-3.626.3-.065.3-.064,4.362.735,4.363.735-2.7,1.928-2.7,1.928-.17.91-.172.91-.19.118-.19.118ZM61.348,101.96l-.013-.476-.593-6.549-.592-6.548h.412l1.789,1.14,1.789,1.142,2.655,1.617L69.45,93.9l2.24.555,2.24.556.586.249.588.249.934,1.855.934,1.855v2.394h-.5l-4.84-1.323L66.789,98.97h-.75l-2,1.522-2,1.521-.341.212-.342.211-.013-.476ZM34.185,98.623l-6.406-3.49-.01-.15-.01-.15,3.614-1.02,3.614-1.02,3.464-2.11,3.464-2.11.873-.524.872-.524.7.63.7.629,1.267,1.168L47.6,91.12v3.048l-3.109,3.971-3.109,3.971h-.793l-6.407-3.489Zm17.206-4.092-2.4-3.366-1.11-2.043-1.112-2.044,2.053-2.52,2.053-2.521h.334L52.878,86.4l1.668,4.362-.322,3.509L53.9,97.78l-.055.059-.055.058Zm28.623.426L73.4,93.381l-1.852-1.966L69.7,89.448l-3.546-.919-3.545-.918-.556-.523-.555-.522-.5-.845-.5-.846.9.158.9.157,4.971.7,4.971.7,9.237,4.011L90.7,94.6l.08.228.08.228-1.853.75-1.852.75-.264-.014-.265-.014-6.615-1.576Zm-24.477-4.35-.283-.765-.414-1.105-.415-1.105,1.1-1.54,1.1-1.542.447-.18.448-.18.3-.018.3-.018-1.049,3.5-1.048,3.506-.1.1-.1.1-.283-.765ZM84.777,90,82.4,89.267l-3.49-1.02-3.49-1.02.11-.177.108-.177,2.518-1.5,2.517-1.5,3.51.284,3.508.284.86.135.86.135V88.43l-.958,1.17-.958,1.168-.166-.015-.167-.015L84.777,90ZM33,88.644,30.971,87.6l-.453-.767-.453-.766-1.616-.446-1.616-.445-1.374-.4-1.375-.4L23,82.515l-1.08-1.874.11-.11.11-.11,3.006.672,3.006.673,6.053,1.184,6.054,1.183.1.1.1.1-1.237.963L38,86.267,36.84,87.989l-1.154,1.72L35.36,89.7l-.325-.014L33,88.644ZM16.2,86.13l-6.663-.608-.4-.089-.4-.089L4.373,79.722,0,74.1H.7l6.452,1.334L13.6,76.767l1.058,1,1.059,1,3.7,3.4,3.7,3.4.656.622.655.621-.788-.03-.788-.031Zm46.335-1.682-.117-.117,1.334-.762,1.333-.762.276-.605.276-.606,1.5-.738,1.5-.738L73,79.5l4.366-.616.33.434.331.434v.618l-1.654,2.176-1.653,2.176-6.035-.082-6.034-.08ZM41.206,82.594l-2.825-.425L38.217,82l-.163-.167.669-3.623.67-3.623-.544-1.065-.543-1.064.084-.081.085-.08,3.175,1.271,3.175,1.272,4.05,2.17,4.05,2.171-.146.147-.147.147-4.01,1.809-4.01,1.808-.29-.038-.29-.038Zm42.245-.275-1.061-.753-1.534.265-1.533.264-.137-.137-.137-.137,2.864-5.628,2.864-5.627,4.31-1.659L93.4,67.249l.518-.165.518-.164v1.66l-4.92,7.258L84.6,83.1l-.041-.012-.042-.011-1.06-.753ZM63.285,79.231l.137-.137,2.36-1.637,2.359-1.638,2.731-3.175L73.6,69.469l.193-.076.193-.076.6,1.61.6,1.61,1.13.927,1.13.926L78.779,76.2,80.1,78.019l-1.764.16-1.764.16-5.82.394-5.822.393-.892.121-.893.121Zm26.052-.7.26-.33,1.935-2.646,1.935-2.646,1.007-1.37,1.007-1.37,1.08.424,1.08.424,3.15-3.142,3.15-3.142.114.12.113.118-1.913,5.144-1.912,5.144-5.4,1.8-5.4,1.8h-.471ZM64.216,75.822,63.5,74.629H59.245v-.28l4.264-6.806,4.265-6.805.343-.365.343-.364.552,1.081.551,1.082v5.086l.655,1.118.655,1.117-2.234,2.9-2.234,2.9-.736.863-.736.863Zm-7.088-.2v-.157l1.152-5.378,1.152-5.377.627-2.977.627-2.976h1.072l2.222.391,2.22.391.081.08.08.081-4.436,7.859-4.437,7.859-.18.18-.18.18v-.157ZM46.016,73.943l-3.837-1.459-2.447-.94L37.284,70.6V62.722h.486l1.25.536,1.25.536.087-.088.088-.088-.7-1.027-.7-1.027L38.3,58.787l-.745-2.777.061-.06.061-.058,2.778,2.524,2.778,2.524,1.72,3.422,1.72,3.422,3.469,3.224,3.469,3.224-.07.085-.07.085-1.912-.57-1.91-.569-.418-.16-.417-.16.727,1.24.726,1.24-.21-.011-.21-.011-3.836-1.458Zm32.65-.762-2.143-1.964L75.4,69.5,74.28,67.774l.158-.256.158-.256,2.73-1.74,2.73-1.741H81.5l2.828.431,2.827.432.347.184.348.183-2.641,1.832L82.57,68.675,82,70.792l-.568,2.117-.313,1.118-.314,1.118ZM51.81,70.736l-3.326-3.383-.833-4.878L46.819,57.6l.069-.07.069-.068,1.976,1.222L50.909,59.9l.1.072.1.072.715,3.813.715,3.813,1.007,1.23,1.007,1.228.37,1.767.371,1.767-.075.227-.076.226Zm53.734-2.766,0-1.676-.164-1.734-.164-1.735L108.62,60.1l3.407-2.726,1.71.174,1.712.174.048.053.049.053-.437,1.965-.436,1.965-4.335,3.856L106,69.469l-.23.088-.23.089,0-1.676Zm-48.757.838-.168-.4-1.73-5.793-1.73-5.792,0-.293,0-.293,2.837-6.678,2.837-6.677.17.195.17.195.6,1.75.6,1.749-.84,2.484-.84,2.484-.785,8.2-.785,8.2-.084.53-.084.529-.168-.4ZM73.43,61.533l1.424-4.893V52.777L76.3,51.6l1.45-1.179L80.7,45.332l2.948-5.087.332-.454.332-.454L83.14,45.143l-1.174,5.805.086,3.795.087,3.795L77.2,62.482,72.27,66.427H72Zm-2.293,2.226-.013-.11-.48-3.837-.48-3.837.058-.071.057-.072,1.506.576,1.506.577-.123.32-.123.32-.85,3.012-.85,3.011-.1.11-.1.11-.013-.11Zm-31.88-9.145-5.81-5.176-.084-.078-.083-.078.287-1.065.286-1.065-2.25-5.1-2.25-5.094.062-.062.063-.062,4.386,2.6,4.386,2.6,1.017,2.467,1.016,2.467,1.942,4.333,1.943,4.334.514,2.007.514,2.007-.065.064-.065.065Zm23.055,1.065.118-1.026.92-9.134.92-9.134V34.412h.471l.175.992.175.992.913,4.3.913,4.3v.253l1.521,1.109,1.521,1.108.1.075.1.076-.6.837-.6.838.332,2.234.332,2.234-.612,1.155L68.4,56.064l-1.07.149-1.07.148-2.03.173-2.03.172Zm22.332-8.892v-4.94l.885-.675.884-.675.372.01.372.01,1.455.883,1.456.881-.057.27-.057.27-2.3,3.932-2.3,3.93L85,51.206l-.358.522v-4.94ZM60.781,43.465,60.1,41.423l-1.324-3.75-1.325-3.75.24-6.3.238-6.3.065-.53.064-.528,2.7,5.058,2.7,5.058-.867,7.437-.868,7.438-.13.13-.128.128Zm7.235-1.93-.621-.5-.9-4.423-.9-4.422.076-.225.075-.226,2.027,2.758,2.027,2.757-.508,2.326L68.774,41.9l-.069.067-.069.068Zm21-6.3-1.266-4.467,3.773-4.912L95.3,20.945l1.168,1.243,1.167,1.244-.156,3-.157,3-3.43,5.135L90.458,39.7h-.174ZM35.18,36.926l-1.97-1.444-2.859-4.41-2.857-4.411-.006-.556-.006-.557L27.1,19.463l-.387-6.085,0-1.056,0-1.056,1.706,1.717,1.7,1.717,3.455,6.152L37.022,27l.14,4.828.142,4.829.1.86.1.86-.181-.005-.182-.005L35.18,36.927ZM62.51,22.192,60.09,18.4l-.82-4.562-.82-4.561v-.77l3.079-4.256L64.608,0l.08.08.08.08.714,8.593.715,8.593-.47,3.518-.469,3.517-.163.8-.163.8Z"/>
</svg>
