<svg xmlns="http://www.w3.org/2000/svg" width="38.184" height="34" viewBox="0 0 38.184 34">
  <defs>
    <style>
      .cls-1 {
        fill: #1bdbdb;
      }
    </style>
  </defs>
  <path id="GoDaddy-Logo.wine" class="cls-1" d="M32.937,1.554C28.969-.925,23.744-.335,19.085,2.593,14.44-.335,9.213-.925,5.25,1.554c-6.27,3.918-7.032,14.009-1.7,22.539C7.478,30.382,13.623,34.067,19.093,34c5.47.068,11.615-3.617,15.545-9.906,5.325-8.531,4.569-18.621-1.7-22.539ZM6.431,22.292a20.434,20.434,0,0,1-2.46-5.632,16.1,16.1,0,0,1-.534-5.31C3.675,8.2,4.958,5.742,7.049,4.436s4.855-1.385,7.8-.217c.442.176.879.38,1.313.605a24.09,24.09,0,0,0-4.227,5.082C8.7,15.085,7.71,20.848,8.839,25.443a20.911,20.911,0,0,1-2.408-3.151Zm27.786-5.634a20.482,20.482,0,0,1-2.46,5.632,21.1,21.1,0,0,1-2.408,3.157,20.231,20.231,0,0,0-2.152-13.9.625.625,0,0,0-.895-.243l-7.72,4.823a.631.631,0,0,0-.2.871l1.133,1.811a.63.63,0,0,0,.869.2l5-3.127c.162.486.324.971.445,1.457a16.1,16.1,0,0,1,.536,5.3c-.238,3.151-1.521,5.606-3.612,6.914A7.059,7.059,0,0,1,19.177,30.6h-.16a7.051,7.051,0,0,1-3.578-1.036c-2.093-1.308-3.376-3.763-3.614-6.914a16.143,16.143,0,0,1,.534-5.31A21.015,21.015,0,0,1,18.8,7.022a16.137,16.137,0,0,1,4.531-2.806c2.936-1.169,5.7-1.091,7.8.217s3.374,3.761,3.612,6.914a16.145,16.145,0,0,1-.528,5.312Z"/>
</svg>
