<svg xmlns="http://www.w3.org/2000/svg" width="36" height="42" viewBox="0 0 36 42">
  <defs>
    <style>
      .cls-1 {
        fill: #4caf50;
      }

      .cls-2 {
        fill: #fff;
      }
    </style>
  </defs>
  <g id="icons8-hangout" transform="translate(-6 -3)">
    <path id="Path_285" data-name="Path 285" class="cls-1" d="M24,39A18,18,0,1,1,42,21,24.556,24.556,0,0,1,24,45Z"/>
    <path id="Path_286" data-name="Path 286" class="cls-2" d="M22,16v7a6.018,6.018,0,0,1-6,6V26a2.946,2.946,0,0,0,3-3H15a1.075,1.075,0,0,1-1-1V16a1.075,1.075,0,0,1,1-1h6A1.075,1.075,0,0,1,22,16Zm11-1H27a1.075,1.075,0,0,0-1,1v6a1.075,1.075,0,0,0,1,1h4a2.946,2.946,0,0,1-3,3v3a6.018,6.018,0,0,0,6-6V16A1.075,1.075,0,0,0,33,15Z"/>
  </g>
</svg>
