<svg id="Hewlett-Packard_Israel-Logo.wine" xmlns="http://www.w3.org/2000/svg" width="99.8" height="99.8" viewBox="0 0 99.8 99.8">
  <defs>
    <style>
      .cls-1 {
        fill: #0096d6;
      }
    </style>
  </defs>
  <path id="Path_89" data-name="Path 89" class="cls-1" d="M99.8,49.9A49.9,49.9,0,0,0,49.9,0c-.751,0-1.5.019-2.243.053L37.45,28.107h8.89c5.289,0,8.139,4.072,6.328,9.046l-12.59,34.6-10.571,0L43.018,34.664H35.069L21.558,71.75H10.983L26.869,28.107h0L36.427,1.843a49.912,49.912,0,0,0,1.888,96.6L47.576,73h.008l16.336-44.89H83.39c5.294,0,8.143,4.072,6.332,9.046L78.659,67.542A6.879,6.879,0,0,1,72.65,71.75H58.616l-10.2,28.027c.492.013.987.023,1.482.023A49.9,49.9,0,0,0,99.8,49.9"/>
  <path id="Path_90" data-name="Path 90" class="cls-1" d="M80.094,34.638H72.149L61.021,65.168h7.945l11.128-30.53"/>
</svg>
