<svg xmlns="http://www.w3.org/2000/svg" width="979.996" height="742.76" viewBox="0 0 979.996 742.76">
  <g id="_9616a927bff18067fed58861159b18d9" data-name="9616a927bff18067fed58861159b18d9" transform="translate(-10 -128.62)">
    <g id="Group_1" data-name="Group 1" transform="translate(0 511)">
      <path id="Path_1" data-name="Path 1" d="M388.71-374.96c-35.23,11.74-54.6,22.25-71.29,38.94-23.08,22.87-34.41,48.42-37.91,85.09-7,73.55,21.22,157,94.36,278.56,17.1,28.43,68.4,106.93,83.24,127.54l9.68,12.98,1.03-6.8c2.68-15.04,7.42-56.04,10.92-92.51,4.53-48.42,5.15-180.9,1.03-221.49-8.65-86.33-27.4-166.89-49.86-216.75-5.56-12.16-6.39-12.98-12.77-12.98C413.44-382.38,400.66-379.08,388.71-374.96Z"/>
      <path id="Path_2" data-name="Path 2" d="M570.02-367.34c-23.28,51.71-40.59,126.3-49.86,216.75-4.12,40.59-3.5,173.07,1.03,221.49,3.5,36.47,8.24,77.67,10.92,92.51l1.03,7,7.42-10.09C586.71,95.83,645.84-.6,673.04-55.81c35.23-71.91,48.21-119.71,47.8-176.16-.21-45.33-11.13-74.58-37.5-100.96-11.95-11.95-19.57-17.51-32.97-24.11-21.02-10.3-58.72-23.28-67.79-23.28C576.41-380.32,575.59-379.29,570.02-367.34Z"/>
      <path id="Path_3" data-name="Path 3" d="M143.12-226.41C105.21-169.13,84.61-121.95,82.34-86.72c-2.47,35.44,16.48,76.65,47.8,104.46,4.53,3.91,55.01,34.82,112.29,68.61s123.41,72.94,147.11,86.95,43.27,25.14,43.47,24.93c.82-1.03-273.82-444.62-275.26-444.62C156.92-246.39,150.33-237.33,143.12-226.41Z"/>
      <path id="Path_4" data-name="Path 4" d="M703.74-22.43C628.33,99.74,566.72,199.87,566.93,200.29c.21.21,66.76-38.53,147.52-86.12C859.5,28.46,861.77,27.01,878.04,10.32c27.61-28.43,41.82-62.02,39.56-94.98-2.27-35.23-22.87-82.41-60.78-139.69-7.21-10.92-13.8-19.99-14.63-19.99C841.57-244.33,779.15-144.41,703.74-22.43Z"/>
      <path id="Path_5" data-name="Path 5" d="M12.7,7.85c-2.88,9.27-3.71,60.78-1.24,77.67,7,48.21,28.84,87.98,62.63,113.94,23.69,18.13,45.33,27.2,90.65,38.12,7.42,1.65,38.53,1.85,124.65.21,63.05-1.24,115.38-2.47,116.41-2.68,1.24-.41-94.36-56.87-354.38-209.74C16.41,4.76,13.94,3.53,12.7,7.85Z"/>
      <path id="Path_6" data-name="Path 6" d="M788.83,121.17c-107.96,63.66-195.53,115.79-194.7,116,1.03.21,53.36,1.44,116.61,2.47,84.68,1.65,117.44,1.65,124.65-.21,31.73-7.42,42.44-10.92,59.34-19.16,66.34-32.14,98.69-93.13,94.98-179.25-.62-14.83-1.86-28.64-2.89-31.11C985.39,6,969.73,14.86,788.83,121.17Z"/>
      <path id="Path_7" data-name="Path 7" d="M247.58,263.54c-74.79,3.71-139.49,7.21-143.81,7.62l-7.62.62,14.63,19.57c25.34,33.79,42.03,48.62,71.49,62.43,11.95,5.77,16.07,6.59,30.29,6.59a89.13,89.13,0,0,0,30.91-4.95c21.02-7,55.01-24.31,79.53-40.59,19.98-12.98,70.26-52.13,72.94-56.45.82-1.24-1.65-1.86-5.56-1.86C386.65,256.74,322.37,259.83,247.58,263.54Z"/>
      <path id="Path_8" data-name="Path 8" d="M603.81,258.18c2.88,4.53,52.95,43.27,73.14,56.66,24.52,16.28,58.51,33.58,79.53,40.59a89.288,89.288,0,0,0,30.91,4.95c14.22,0,18.34-.83,30.29-6.59,18.13-8.45,35.44-20.6,47.39-32.97,9.06-9.48,39.15-48.21,38.12-49.24-.21-.41-60.78-3.3-134.33-6.8-73.76-3.5-141.13-6.8-150.2-7.62C607.73,256.33,602.99,256.74,603.81,258.18Z"/>
    </g>
  </g>
</svg>
