<svg xmlns="http://www.w3.org/2000/svg" xmlns:xlink="http://www.w3.org/1999/xlink" width="999.992" height="401" viewBox="0 0 999.992 401">
  <defs>
    <style>
      .cls-1, .cls-3 {
        fill: none;
      }

      .cls-2 {
        clip-path: url(#clip-path);
      }

      .cls-3 {
        stroke: #1f70c1;
        stroke-width: 27.37px;
      }
    </style>
    <clipPath id="clip-path">
      <path id="Union_1" data-name="Union 1" class="cls-1" d="M859.762,400V171.84L778.59,399.96l-1.68-.04L694.254,171.84V400H555.544V318h54.414V82H554.02V0H711.866l65.547,182.89L842.139,0h156.33V82H944.054V318h55.938v82ZM222.23,400V318h55.937V82H222.23V0H433.75c37.526,0,65.859,27.367,65.859,27.367l22.266,25.895c6.306,6.265,9.922,27.328,9.922,27.328l2.3,25.855c0,12.933-5.352,27.405-5.352,27.405l-11.523,25.855c-5.739,13.325-23.75,27.367-23.75,27.367v25.856s18.011,14.042,23.75,27.366L528.75,266.15s5.352,14.472,5.352,27.4l-2.3,25.855s-3.616,21.063-9.922,27.328l-22.266,25.9S471.276,400,433.75,400Zm140.23-82h81.993V242H362.46Zm0-160h81.993V82H362.46ZM1.523,400V318H55.937V82H0V-1H194.649V82H140.235V318h55.938v82Z"/>
    </clipPath>
  </defs>
  <g id="IBM-Logo.wine" class="cls-2" transform="translate(0 1)">
    <path id="Path_91" data-name="Path 91" class="cls-3" d="M0,13.683H1030V66.915H0m0,53.232H975v53.242H0v53.222H975v53.222H0m0,53.242H1030v53.242H0"/>
  </g>
</svg>
