<svg xmlns="http://www.w3.org/2000/svg" xmlns:xlink="http://www.w3.org/1999/xlink" width="228.873" height="223.815" viewBox="0 0 228.873 223.815">
  <defs>
    <style>
      .cls-1 {
        stroke: #2064a9;
        stroke-miterlimit: 10;
        fill: url(#radial-gradient);
      }

      .cls-2 {
        fill: url(#linear-gradient);
      }

      .cls-3 {
        fill: rgba(255,183,0,0.95);
      }

      .cls-4 {
        fill: #ffffa6;
      }

      .cls-5 {
        fill: url(#linear-gradient-2);
      }
    </style>
    <radialGradient id="radial-gradient" cx="0.493" cy="0.417" fx="0.47082939743995667" fy="0.4063900113105774" r="0.511" gradientTransform="matrix(0.624, 0.782, -0.786, 0.627, 0.513, -0.23)" gradientUnits="objectBoundingBox">
      <stop offset="0" stop-color="#89eafe"/>
      <stop offset="0.262" stop-color="#86e8fd"/>
      <stop offset="0.436" stop-color="#7ddff9"/>
      <stop offset="0.583" stop-color="#6ed2f2"/>
      <stop offset="0.716" stop-color="#59bee9"/>
      <stop offset="0.84" stop-color="#3ea5dd"/>
      <stop offset="0.954" stop-color="#1c87cf"/>
      <stop offset="1" stop-color="#0d79c8"/>
    </radialGradient>
    <linearGradient id="linear-gradient" x1="0.669" y1="0.038" x2="0.232" y2="1.052" gradientUnits="objectBoundingBox">
      <stop offset="0" stop-color="#ffb700" stop-opacity="0.949"/>
      <stop offset="0.86" stop-color="#ffb700" stop-opacity="0"/>
    </linearGradient>
    <linearGradient id="linear-gradient-2" x1="0.02" y1="0.858" x2="0.69" y2="0.294" gradientUnits="objectBoundingBox">
      <stop offset="0" stop-color="#ffb700" stop-opacity="0.949"/>
      <stop offset="1" stop-color="#ffb700" stop-opacity="0"/>
    </linearGradient>
  </defs>
  <g id="Internet_Explorer-Logo.wine" transform="translate(-12.047 -14.361)">
    <g id="Group_5" data-name="Group 5" transform="translate(-6.58 -0.95)">
      <path id="Path_94" data-name="Path 94" class="cls-1" d="M100.5,117.8c2.6-23.3,21-42,43.9-42,25.7,0,43.4,18,45,42ZM184.7,167c-6.5,13.4-20,22.1-40.4,22.6-28.3.7-43.2-23.4-43.9-44.1H246.2a107.273,107.273,0,0,0,.8-12.8,101.985,101.985,0,1,0-5.9,34.3Z"/>
    </g>
    <g id="Group_7" data-name="Group 7" transform="translate(-6.58 -0.95)">
      <path id="Path_95" data-name="Path 95" class="cls-2" d="M235.5,63.7c-.8,3.1-1.6,5.8-2.1,8.1a66.031,66.031,0,0,0-.6,7.1s3.8-2.4,4.7-3.6c.8-1.1,1.9-5.8,2.9-10.5Z"/>
      <path id="Path_96" data-name="Path 96" class="cls-3" d="M240.6,65c.7-3.1,1.3-6.3,1.6-8.5,1.3-8.1,4-51.3-53.7-39C111.1,33.9,68.3,94.6,61.5,103c-12.9,16-51.3,77.8-41.2,115.8C26.2,241,49.8,240.9,67,237.4l-1.2-6.1c-29.2,4.7-33.6-17.5-29.6-34.8,4.9-21.6,20.8-57.1,72.2-107.1C154,45,202.4,20.2,227.6,32.5c13.4,6.5,10.8,20.6,7.9,31.4Z"/>
      <g id="Group_6" data-name="Group 6">
        <path id="Path_97" data-name="Path 97" class="cls-4" d="M188.5,17.5C111.1,33.9,68.3,94.6,61.5,103c-8.1,10-26.1,38-36,66.8a56.812,56.812,0,0,1-2.1,6.6C55.2,94.9,134.2,37.2,191.6,16.9,190.6,17.1,189.5,17.3,188.5,17.5Z"/>
      </g>
      <path id="Path_98" data-name="Path 98" class="cls-5" d="M67,237.3a94.516,94.516,0,0,0,18.8-5.9c1.6-.9,7.1-3.9,12.1-6.9L93.5,222c-2.4.9-5.2,2-8.3,3.3A84.66,84.66,0,0,1,65.8,231Z"/>
    </g>
  </g>
</svg>
