<svg xmlns="http://www.w3.org/2000/svg" width="290.829" height="540.905" viewBox="0 0 290.829 540.905">
  <defs>
    <style>
      .cls-1 {
        fill: #e76f00;
      }

      .cls-2 {
        fill: #5382a1;
      }
    </style>
  </defs>
  <g id="java-4" transform="translate(-6.527 -4.399)">
    <path id="Path_307" data-name="Path 307" class="cls-1" d="M285.1,430.945h-2.037V429.8h5.486v1.14h-2.025v5.688H285.1Zm10.942.3h-.032l-2.02,5.393h-.924l-2.006-5.393h-.024v5.393H289.7v-6.828h1.976l1.86,4.835,1.854-4.835h1.969v6.828h-1.311Z"/>
    <path id="Path_308" data-name="Path 308" class="cls-2" d="M102.681,291.324s-14.178,8.245,10.09,11.035c29.4,3.354,44.426,2.873,76.825-3.259a133.666,133.666,0,0,0,20.414,9.967c-72.63,31.128-164.376-1.8-107.329-17.743M93.806,250.7s-15.9,11.771,8.384,14.283c31.406,3.24,56.208,3.505,99.125-4.759a44,44,0,0,0,15.271,9.309c-87.815,25.678-185.624,2.025-122.78-18.833"/>
    <path id="Path_309" data-name="Path 309" class="cls-1" d="M168.625,181.8c17.9,20.6-4.7,39.146-4.7,39.146s45.439-23.458,24.571-52.833c-19.491-27.4-34.438-41.005,46.479-87.934,0,0-127.013,31.721-66.349,101.621"/>
    <path id="Path_310" data-name="Path 310" class="cls-2" d="M264.684,321.369s10.492,8.646-11.555,15.333c-41.923,12.7-174.488,16.535-211.314.507-13.238-5.76,11.587-13.752,19.4-15.429,8.144-1.766,12.8-1.437,12.8-1.437-14.722-10.371-95.157,20.363-40.857,29.166,148.084,24.015,269.944-10.814,231.532-28.14M109.5,208.617S42.068,224.633,85.62,230.449c18.389,2.462,55.047,1.9,89.192-.956,27.906-2.354,55.928-7.358,55.928-7.358a118.435,118.435,0,0,0-16.959,9.074c-68.475,18.01-200.756,9.631-162.674-8.79,32.206-15.568,58.392-13.8,58.392-13.8m120.963,67.614c69.608-36.171,37.425-70.932,14.96-66.248a52.1,52.1,0,0,0-7.961,2.139,12.691,12.691,0,0,1,5.947-4.588c44.441-15.624,78.619,46.081-14.346,70.521a6.045,6.045,0,0,0,1.4-1.824"/>
    <path id="Path_311" data-name="Path 311" class="cls-1" d="M188.495,4.4s38.55,38.562-36.563,97.862C91.7,149.828,138.2,176.95,151.907,207.939c-35.158-31.723-60.96-59.647-43.65-85.637,25.406-38.151,95.792-56.648,80.238-117.9"/>
    <path id="Path_312" data-name="Path 312" class="cls-2" d="M116.339,374.246c66.815,4.277,169.417-2.373,171.846-33.987,0,0-4.67,11.984-55.219,21.5-57.027,10.731-127.364,9.479-169.081,2.6,0,0,8.541,7.067,52.454,9.883"/>
    <path id="Path_313" data-name="Path 313" class="cls-1" d="M105.389,495.049c-6.3,5.467-12.96,8.536-18.934,8.536-8.527,0-13.134-5.113-13.134-13.314,0-8.871,4.937-15.357,24.739-15.357h7.328v20.135m17.392,19.623V453.93c0-15.518-8.85-25.756-30.188-25.756a79.524,79.524,0,0,0-32.238,7l2.56,10.752c6.983-2.563,16.022-4.949,24.894-4.949,12.292,0,17.58,4.949,17.58,15.181v7.678H99.254c-29.865,0-43.337,11.593-43.337,28.993,0,15.018,8.878,23.554,25.594,23.554,10.745,0,18.766-4.437,26.264-10.929l1.361,9.221,13.645,0Zm58.043,0H159.133l-26.106-84.96h18.944l16.2,52.2,3.6,15.7a326.379,326.379,0,0,0,16.891-67.9h18.427c-4.938,27.976-13.822,58.684-26.264,84.96m83.214-19.623c-6.315,5.467-12.983,8.536-18.958,8.536-8.512,0-13.131-5.113-13.131-13.314,0-8.871,4.947-15.357,24.748-15.357h7.341v20.135m17.39,19.623V453.93c0-15.518-8.871-25.756-30.186-25.756a79.518,79.518,0,0,0-32.246,7l2.557,10.752c6.985-2.563,16.041-4.949,24.906-4.949,12.283,0,17.579,4.949,17.579,15.181v7.678h-6.146c-29.873,0-43.34,11.593-43.34,28.993,0,15.018,8.871,23.554,25.584,23.554,10.752,0,18.77-4.437,26.28-10.929l1.366,9.221,13.646,0ZM36.847,529.1c-4.958,7.239-12.966,12.966-21.733,16.206L6.527,535.2c6.673-3.424,12.4-8.954,15.055-14.1,2.3-4.581,3.252-10.485,3.252-24.6V399.5H43.312v95.666c0,18.875-1.51,26.5-6.465,33.936"/>
  </g>
</svg>
