<svg xmlns="http://www.w3.org/2000/svg" width="437.276" height="512.001" viewBox="0 0 437.276 512.001">
  <defs>
    <style>
      .cls-1 {
        fill: #fff;
      }

      .cls-2 {
        fill: #e69629;
      }
    </style>
  </defs>
  <g id="linux" transform="translate(-37.363)">
    <g id="Group_20" data-name="Group 20">
      <path id="Path_314" data-name="Path 314" class="cls-1" d="M259.345,110.181q-.114-1.184-.112-2.369c0-11.578,7.584-21,16.9-21,9.537,0,17.007,9.223,17.007,21a25.38,25.38,0,0,1-1.148,7.61,30.065,30.065,0,0,0,4.412-15.892c0-14.079-9-25.535-20.06-25.535s-20.06,11.455-20.06,25.535a32.108,32.108,0,0,0,1.615,10.1Z"/>
      <path id="Path_315" data-name="Path 315" class="cls-1" d="M209.407,87.924a11.178,11.178,0,0,1,1.707-.134c7.418,0,14.069,7.281,15.812,17.311a29.323,29.323,0,0,1,.334,3.277q.723-.368,1.471-.688a35.473,35.473,0,0,0,.364-5.006c0-12.986-6.879-23.957-15.019-23.957-6.933,0-12.775,7.636-14.44,17.95C201.532,91.973,204.993,88.657,209.407,87.924Z"/>
      <path id="Path_316" data-name="Path 316" class="cls-1" d="M349.093,349.859a145.959,145.959,0,0,0,2.063-52.525c-4.438-30.87-47.875-126.994-55.35-137.727-4.36.609-15.946,7.3-25.342,12.733-10.9,6.295-22.166,12.807-29.829,15.019a18.292,18.292,0,0,1-5,.677c-11.2,0-23.32-9.468-31.135-16.926-1.365,14.472-9.078,32.835-17.423,42.273-5.271,6.045-9.982,19.854-14.538,33.21-4.22,12.367-8.583,25.157-13.925,33.592-10.809,16.842-17.009,49.555-9.144,68.159,3.806,9.018,17.62,19.668,29.807,29.062,14.9,11.491,27.776,21.413,29.2,31.419,1.657,11.831-4.635,18.388-10.927,21.5l15.961,18.263a121.462,121.462,0,0,0,17.712,1.091,251.982,251.982,0,0,0,35.907-2.834c31.763-4.7,53.886-30.88,58.261-36.438.023-7.363.248-40.123,2.4-50.366.834-3.945,4.037-10.547,16.136-10.547A37.955,37.955,0,0,1,349.093,349.859Z"/>
    </g>
    <g id="Group_21" data-name="Group 21">
      <path id="Path_317" data-name="Path 317" class="cls-2" d="M210.488,147.081c.623,2.422,6.136,8.617,14.71,14.242,1.217.781,2.359,1.558,3.431,2.286,4.756,3.232,6.871,4.559,10.29,4.1,5.034-.66,23.579-11.9,31.5-16.706l1.971-1.194c2.949-1.8,5.306-3.023,7.2-4.009,3.75-1.951,4.089-2.266,4.249-2.978-.425-1.1-3.926-4.056-10.641-6.364-2.134-.764-5.162-1.974-8.67-3.374-7.589-3.03-17.984-7.176-22.2-7.922a2.816,2.816,0,0,0-.539-.045c-3.586,0-10.831,4.5-18.031,11.194C220.211,139.513,213.283,144.92,210.488,147.081Z"/>
      <path id="Path_318" data-name="Path 318" class="cls-2" d="M147.149,395.532c-3.119-5.222-5.815-9.735-7.27-11.984-5.738-8.931-15.7-18.907-20.442-18.907a1.424,1.424,0,0,0-.777.181c-2.533,1.442-4.662,5.837-6.723,10.084-2.847,5.875-6.075,12.535-12.036,16.146-4.41,2.676-11.152,4.138-17.668,5.555-4.637,1.007-15.493,3.362-16,5.562-.7,2.968-.049,6.033.781,9.913.977,4.578,2.2,10.274,1.158,17.267a91,91,0,0,1-3.354,12.627c-1.793,5.637-3.826,12.03-2.073,13.995,2.162,1.909,15.207,4.019,24.731,5.562,11.972,1.937,24.351,3.942,31.932,7.118l2.009.846c13.579,5.706,38.854,16.329,51.622,16.329a13.7,13.7,0,0,0,2.951-.274c2.2-1.482,11.531-8.184,13.284-16.424,2.394-10.619-7.338-23.005-13.349-29.444C169.25,432.519,156.477,411.14,147.149,395.532Z"/>
      <path id="Path_319" data-name="Path 319" class="cls-2" d="M435.761,420.974l-1.556-.819c-10.688-5.65-16.307-20.984-15.563-32.542a12.932,12.932,0,0,0-.557-5.045,58.358,58.358,0,0,1-8.143,10.7c-5.691,5.692-19.584,11.833-32.105,11.833a31.481,31.481,0,0,1-12.652-2.448c-12.5-5.451-14.2-21.081-14.234-28.917a3.266,3.266,0,0,0-.505.183c-.764,2.7-.024,11.806.475,17.935.267,3.279.542,6.669.7,9.78.708,13.708-3.658,36.958-7.447,54.049-3.6,16.732,3.1,28.464,11.224,31a8.1,8.1,0,0,0,2.453.346c7.487,0,19.886-7.749,30.848-19.285,7.788-8.189,25.122-17.04,40.416-24.85,8.622-4.4,17.537-8.956,20.071-11.271a2.26,2.26,0,0,0,.65-.821C449.681,428.282,439.568,422.972,435.761,420.974Z"/>
    </g>
    <path id="Path_320" data-name="Path 320" d="M461.071,411.093c-15.014-6.147-21.437-14.308-20.816-26.485.64-14.212-7.423-24.62-11.252-28.733,2.313-8.837,9.073-39.406.007-65.959-9.743-28.42-39.49-71.825-70.183-114.492-12.565-17.522-13.159-36.57-13.846-58.625-.658-21.036-1.4-44.88-13.131-71.387C319.1,16.55,293.5,0,261.628,0c-18.961,0-38.424,5.926-53.4,16.257-30.67,21.167-26.616,67.316-23.933,97.851.368,4.182.713,8.132.915,11.5,1.786,29.908.161,45.672-1.964,50.463-1.375,3.131-8.143,12.041-15.306,21.476-7.408,9.758-15.807,20.816-22.691,31.121-8.214,12.4-14.845,31.355-21.257,49.684-4.692,13.411-9.124,26.08-13.438,33.655a45.826,45.826,0,0,0-4.444,34.422c-3.1,2.15-7.568,6.386-11.343,14.366-4.563,9.736-13.821,14.967-33.072,18.669-8.847,1.81-14.947,5.53-18.137,11.056-4.642,8.043-2.113,18.148.193,25.056,3.408,10.151,1.284,16.577-2.577,28.246-.89,2.691-1.9,5.741-2.921,9.1-1.61,5.308-1.029,10.131,1.722,14.341C47.244,478.382,68.46,482.3,90.3,484.882c13.04,1.548,27.312,6.763,41.116,11.808,13.525,4.942,27.511,10.054,40.223,11.605a45.782,45.782,0,0,0,5.691.364c19.194,0,27.866-12.735,30.616-17.967,6.894-1.407,30.673-5.912,55.181-6.518,24.469-.7,48.143,4.135,54.85,5.635,2.108,4.036,7.667,13.253,16.527,18,4.87,2.662,11.647,4.188,18.588,4.188h0c7.413,0,21.516-1.753,32.678-13.5,11.133-11.8,38.949-26.859,59.261-37.856,4.533-2.454,8.773-4.751,12.491-6.822,11.41-6.325,17.636-15.362,17.081-24.794C474.141,421.194,468.955,414.322,461.071,411.093ZM276.345,74C287.406,74,296.4,85.45,296.4,99.53a30.071,30.071,0,0,1-4.412,15.892,25.444,25.444,0,0,0,1.148-7.61c0-11.774-7.47-21-17.007-21-9.32,0-16.9,9.419-16.9,21,0,.791.039,1.58.112,2.369-.494-.188-.975-.374-1.445-.552a32.108,32.108,0,0,1-1.615-10.1C256.284,85.451,265.282,74,276.345,74Zm-34.016,51.169c4.214.744,14.606,4.892,22.2,7.922,3.508,1.4,6.539,2.61,8.67,3.374,6.715,2.308,10.217,5.261,10.641,6.364-.159.713-.5,1.027-4.249,2.978-1.894.985-4.25,2.211-7.2,4.009L270.417,151c-7.92,4.8-26.465,16.048-31.5,16.706-3.42.46-5.535-.868-10.29-4.1-1.073-.73-2.214-1.506-3.431-2.286-8.573-5.627-14.088-11.82-14.71-14.242,2.795-2.16,9.723-7.568,13.27-10.771,7.2-6.7,14.445-11.194,18.031-11.194A2.608,2.608,0,0,1,242.329,125.164Zm-28.256-46.44c8.142,0,15.019,10.97,15.019,23.957a35.313,35.313,0,0,1-.364,5.006c-.5.213-.989.445-1.471.688a29.753,29.753,0,0,0-.334-3.277c-1.742-10.03-8.394-17.311-15.812-17.311a11.207,11.207,0,0,0-1.707.134c-4.413.735-7.875,4.049-9.772,8.751C201.3,86.359,207.142,78.724,214.073,78.724Zm-24.8,390.4c-1.753,8.241-11.083,14.942-13.284,16.424a13.689,13.689,0,0,1-2.951.274c-12.768,0-38.043-10.623-51.622-16.329l-2.009-.846c-7.583-3.178-19.961-5.18-31.932-7.118-9.525-1.543-22.568-3.653-24.731-5.562-1.753-1.966.28-8.358,2.073-13.995a90.717,90.717,0,0,0,3.354-12.627c1.036-6.993-.181-12.691-1.158-17.267-.829-3.881-1.484-6.945-.781-9.913.51-2.2,11.366-4.554,16-5.562,6.518-1.417,13.26-2.879,17.668-5.555,5.961-3.611,9.189-10.27,12.036-16.146,2.061-4.247,4.19-8.642,6.723-10.084a1.408,1.408,0,0,1,.777-.181c4.746,0,14.7,9.975,20.442,18.907,1.455,2.249,4.151,6.76,7.27,11.984,9.329,15.609,22.1,36.987,28.773,44.151C181.933,446.123,191.664,458.508,189.271,469.128ZM327.787,360.037c-2.145,10.243-2.372,43-2.4,50.366-4.375,5.558-26.5,31.732-58.261,36.438a252.265,252.265,0,0,1-35.907,2.834,121.764,121.764,0,0,1-17.712-1.091L197.55,430.321c6.292-3.109,12.584-9.666,10.927-21.5-1.42-10.005-14.291-19.928-29.2-31.419-12.187-9.394-26-20.042-29.807-29.062-7.865-18.6-1.665-51.315,9.144-68.159,5.342-8.434,9.705-21.225,13.925-33.592,4.556-13.356,9.268-27.166,14.538-33.21,8.345-9.438,16.057-27.8,17.423-42.273,7.814,7.458,19.936,16.926,31.135,16.926a18.326,18.326,0,0,0,5-.677c7.662-2.213,18.931-8.724,29.829-15.019,9.4-5.429,20.982-12.124,25.342-12.733,7.475,10.734,50.912,106.858,55.35,137.727a145.962,145.962,0,0,1-2.063,52.525,38.441,38.441,0,0,0-5.17-.371C331.824,349.488,328.621,356.092,327.787,360.037Zm121.407,71.584c-2.533,2.315-11.449,6.869-20.071,11.271-15.3,7.808-32.631,16.661-40.416,24.85-10.962,11.536-23.361,19.285-30.848,19.285a8.1,8.1,0,0,1-2.453-.346c-8.128-2.533-14.821-14.266-11.224-31,3.789-17.093,8.153-40.341,7.447-54.049-.163-3.112-.438-6.5-.7-9.78-.5-6.127-1.239-15.233-.475-17.935a3.228,3.228,0,0,1,.505-.183c.032,7.836,1.734,23.467,14.234,28.917A31.481,31.481,0,0,0,377.84,405.1c12.521,0,26.414-6.141,32.105-11.833a58.314,58.314,0,0,0,8.143-10.7,12.908,12.908,0,0,1,.557,5.044c-.744,11.558,4.873,26.891,15.563,32.542l1.556.819c3.807,2,13.92,7.307,14.083,9.824A2.37,2.37,0,0,1,449.194,431.621Z"/>
  </g>
</svg>
