<svg xmlns="http://www.w3.org/2000/svg" width="59.53" height="64" viewBox="0 0 59.53 64">
  <defs>
    <style>
      .cls-1 {
        fill: #0078d7;
      }
    </style>
  </defs>
  <path id="EdgeHTML-Logo.wine" class="cls-1" d="M18.62,38a10.965,10.965,0,0,0,2.68,7.52,12.287,12.287,0,0,0,2.94,2.5,17.423,17.423,0,0,0,3.58,1.73,22.029,22.029,0,0,0,3.95,1.02,25.327,25.327,0,0,0,4.05.33,26.874,26.874,0,0,0,4.78-.4A34.58,34.58,0,0,0,45,49.58a38.94,38.94,0,0,0,4.22-1.67c1.4-.64,2.82-1.34,4.28-2.12V59.35a48.123,48.123,0,0,1-4.83,2.05,49.408,49.408,0,0,1-4.83,1.44,37.436,37.436,0,0,1-4.97.88,49.094,49.094,0,0,1-5.22.28,28.941,28.941,0,0,1-6.95-.83,27.245,27.245,0,0,1-6.28-2.38,26.317,26.317,0,0,1-5.38-3.78,23.886,23.886,0,0,1-4.2-5,24.241,24.241,0,0,1-2.72-6.06,24.957,24.957,0,0,1-.95-6.96,25.9,25.9,0,0,1,1.08-7.52,23.9,23.9,0,0,1,8.07-11.91,26.189,26.189,0,0,1,6.58-3.8,13.884,13.884,0,0,0-3.1,4.73,20.457,20.457,0,0,0-1.43,5.48H41.15a22.94,22.94,0,0,0-.7-6.02,10.052,10.052,0,0,0-2.27-4.28,9.448,9.448,0,0,0-4.03-2.56,18.369,18.369,0,0,0-5.97-.86,28.4,28.4,0,0,0-8.25,1.23,34.72,34.72,0,0,0-7.84,3.4,37.987,37.987,0,0,0-6.84,5.18A32.3,32.3,0,0,0,0,28.54a37.334,37.334,0,0,1,1.73-7.77,33.075,33.075,0,0,1,3.25-6.9A30.949,30.949,0,0,1,9.62,8.13a27.649,27.649,0,0,1,5.9-4.4A29.857,29.857,0,0,1,22.49.91,35.733,35.733,0,0,1,30.45,0a27.9,27.9,0,0,1,4.9.44,34.729,34.729,0,0,1,4.77,1.22A28.05,28.05,0,0,1,54.47,12.61a29.266,29.266,0,0,1,3.76,8.17,33.166,33.166,0,0,1,1.3,9.27V38Z"/>
</svg>
