<svg xmlns="http://www.w3.org/2000/svg" xmlns:xlink="http://www.w3.org/1999/xlink" width="40.357" height="45.808" viewBox="0 0 40.357 45.808">
  <defs>
    <style>
      .cls-1, .cls-2 {
        fill: #c5f199;
      }

      .cls-2, .cls-4, .cls-5, .cls-9 {
        fill-rule: evenodd;
      }

      .cls-3, .cls-4 {
        fill: #73d216;
      }

      .cls-5 {
        fill: url(#linear-gradient);
      }

      .cls-6, .cls-7, .cls-8 {
        fill: none;
      }

      .cls-6 {
        stroke: #c5f199;
        stroke-width: 3.625px;
      }

      .cls-6, .cls-8 {
        stroke-linecap: round;
      }

      .cls-7, .cls-8 {
        stroke: #204c00;
      }

      .cls-7 {
        stroke-linejoin: round;
      }

      .cls-8 {
        stroke-linejoin: bevel;
      }

      .cls-9 {
        fill: url(#linear-gradient-2);
      }
    </style>
    <linearGradient id="linear-gradient" x1="-8.349" y1="-12.282" x2="-9.168" y2="-13.138" gradientUnits="objectBoundingBox">
      <stop offset="0" stop-color="#41a100"/>
      <stop offset="1" stop-color="#fff" stop-opacity="0"/>
    </linearGradient>
    <linearGradient id="linear-gradient-2" x1="-14.183" y1="-22.593" x2="-12.974" y2="-22.16" gradientUnits="objectBoundingBox">
      <stop offset="0" stop-color="#fff" stop-opacity="0.6"/>
      <stop offset="1" stop-color="#4e9a06" stop-opacity="0"/>
    </linearGradient>
  </defs>
  <g id="Midori__web_browser_-Logo.wine" data-name="Midori_(web_browser)-Logo.wine" transform="translate(0.039)">
    <g id="Group_8" data-name="Group 8">
      <path id="Path_104" data-name="Path 104" class="cls-1" d="M37.34.828C31.848,3.894,10.355.73,1.218,23.68-.066,29.74.6,38.093,6.456,38.466A3.84,3.84,0,0,1,9.334,40.3c3.742,6.093,9.136,5.563,11.368,2.653.428-.558,1.243-.4,1.821.046,6.747,5.185,11.271-3.022,13.576-9.459C37.016,30.721,41.623,8.659,39.8,6.3c-.542-.7-2.912,1.33-4.978,3.5-16.506,17.328-27.459,4.391,1.9-8.533l.446-.536.3.125"/>
      <path id="Path_105" data-name="Path 105" class="cls-2" d="M14.716,42.56l3.943-13.952M5.237,36.115l2.3-8.139M26.166,42.029l2.3-8.139"/>
    </g>
    <g id="Group_9" data-name="Group 9">
      <path id="Path_106" data-name="Path 106" class="cls-3" d="M38.054,9.887c-7,8.168-20.718,14.514-21.885,7.513-.576-3.453,3.5-8.168,10.5-12.836C18.6,6.851,3.965,13.982,2.8,25.247c-1.7,4.341-.575,13.6,4.674,12.164,1.4-.383,3.116,1.227,3.49,2.658.8,3.041,6.585,3.854,8.268,2.527a4.555,4.555,0,0,1,4.683-.406c6.01,3.317,8.9-5.177,9.829-8.58,5.424-11.96,3.141-19.055,4.307-23.723Z"/>
      <path id="Path_107" data-name="Path 107" class="cls-4" d="M26.166,42.029l2.3-8.139m-13.75,8.67,3.943-13.952M5.237,36.115l2.3-8.139"/>
    </g>
    <path id="Path_108" data-name="Path 108" class="cls-5" d="M329.511,447.614c2.71-5.3,7.726-5.358,16.512-2.481,5.834,0,13.676-5.522,18.11-10.471.994,19.206-7.56,38.549-15.177,31.017-1.018-1.007-1.785.1-3.289.937a4.041,4.041,0,0,1-3.686.528c-5.122.324-6.115-7.929-8.389-6.264-4.311,3.157-5.862-5.784-4.081-13.265Z" transform="translate(-326.263 -424.322)"/>
    <path id="Path_109" data-name="Path 109" class="cls-6" d="M8.275,37.958c-.331-2.872-.694-8.279,1.82-11.417M21,29.718c-2.9,7.568-1.014,8.846.4,12.96h0l-.179-.625"/>
    <g id="Group_10" data-name="Group 10">
      <path id="Path_110" data-name="Path 110" class="cls-7" d="M38.9.492C33.292,1.532,7.058,4.485,1.224,23.979c-1.7,6.6-.745,15.571,6.847,15.24.538-.023.594.154.785.607,3.126,7.4,10.819,6.05,12.549,3.151.246-.413-.374-.256,0,0,7.834,5.364,12.1-2.06,14.571-8.676,3.014-5.74,4.857-29.639,3.244-28.093C11.739,32.543,11.792,9.349,38.9.492"/>
      <path id="Path_111" data-name="Path 111" class="cls-8" d="M8.851,39.348c-1.972-8.99.344-10.572,1.245-12.987M21.321,42.778c-2.563-5.425-2.138-9.9-.317-13.239"/>
    </g>
    <path id="Path_112" data-name="Path 112" class="cls-9" d="M351.923,429.592c.185-2.3-22.608,7.325-22.318,18.169,3.968-5.156,7.823-5.582,14.15-3C348.367,449.07,334.573,441.214,351.923,429.592Z" transform="translate(-326.263 -424.322)"/>
  </g>
</svg>
