<svg xmlns="http://www.w3.org/2000/svg" width="51.158" height="46.985" viewBox="0 0 51.158 46.985">
  <defs>
    <style>
      .cls-1 {
        fill: #c22133;
      }

      .cls-2 {
        fill: #db212e;
      }

      .cls-3 {
        fill: #eb2126;
      }

      .cls-4 {
        fill: #ad213b;
      }

      .cls-5 {
        fill: #ba2133;
      }
    </style>
  </defs>
  <g id="OpenShift-Logo.wine" transform="translate(-3.069)">
    <path id="Path_122" data-name="Path 122" class="cls-1" d="M54.228,11.987a23.328,23.328,0,0,0-2-3.4l-8.213,2.989a15.349,15.349,0,0,1,2.414,3.251Zm-36.3,9.083L9.71,24.059a23.9,23.9,0,0,0,.651,3.894l7.8-2.841a15.267,15.267,0,0,1-.24-4.041"/>
    <path id="Path_123" data-name="Path 123" class="cls-2" d="M36.156,9.66a15.2,15.2,0,0,1,4.438,3.16l8.212-2.989A23.477,23.477,0,0,0,6.292,25.3l8.214-2.989A15.218,15.218,0,0,1,36.156,9.66m8.76,15.008a15.063,15.063,0,0,1-1.379,5.274,15.279,15.279,0,0,1-20.282,7.383,15.111,15.111,0,0,1-4.446-3.155l-8.2,2.982A23.464,23.464,0,0,0,51,33.421a23.254,23.254,0,0,0,2.115-11.735Z"/>
    <path id="Path_124" data-name="Path 124" class="cls-3" d="M46.936,14.641l-7.8,2.84a15.311,15.311,0,0,1,1.91,8.595l8.2-2.981a23.665,23.665,0,0,0-2.3-8.454M10.873,27.765l-7.8,2.843a23.758,23.758,0,0,0,3.67,7.955l8.195-2.984a15.339,15.339,0,0,1-4.061-7.814"/>
    <path id="Path_125" data-name="Path 125" class="cls-4" d="M53.038,9.823c-.259-.42-.528-.834-.814-1.236l-8.212,2.989a14.618,14.618,0,0,1,1.011,1.165Zm-35.145,12.9a14.534,14.534,0,0,1,.031-1.649L9.71,24.059c.042.526.109,1.049.188,1.57l8-2.91Z"/>
    <path id="Path_126" data-name="Path 126" class="cls-5" d="M53.112,21.686l-8.2,2.983a14.993,14.993,0,0,1-.693,3.525l8.921-3.253a23.557,23.557,0,0,0-.033-3.255m-42.5,15.467A23.269,23.269,0,0,0,12.7,39.689l8.922-3.254a15.165,15.165,0,0,1-2.816-2.266Z"/>
  </g>
</svg>
