<svg xmlns="http://www.w3.org/2000/svg" width="293.399" height="334.7" viewBox="0 0 293.399 334.7">
  <defs>
    <style>
      .cls-1 {
        fill: #b9c8d0;
      }

      .cls-2 {
        fill: #8ea5af;
      }

      .cls-3 {
        fill: #abb8c0;
      }

      .cls-4 {
        fill: #81989f;
      }

      .cls-5 {
        fill: #e5e9ec;
      }

      .cls-6 {
        fill: #3c9443;
      }

      .cls-7 {
        fill: #45ac4e;
      }

      .cls-8 {
        fill: #fff;
      }
    </style>
  </defs>
  <g id="XMLID_5_" transform="translate(-1.5)">
    <path id="XMLID_14_" class="cls-1" d="M30.7,241.4C12.5,232.2,1.5,220.2,1.5,207v68.8c0,20.7,27.3,38.7,67.2,47.4V254.4c-14.6-3.2-27.5-7.6-38-13Z"/>
    <path id="XMLID_10_" class="cls-1" d="M39.1,168.8a102.407,102.407,0,0,1-9.4-4.4c-17.5-9.2-28.1-21-28.1-33.9v67.7a32.7,32.7,0,0,0,.4,4.4c2.6,13.6,16.8,25.7,38.4,34.4a178.486,178.486,0,0,0,28.3,8.6V177.8A169.427,169.427,0,0,1,39.1,168.8Z"/>
    <path id="XMLID_3_" class="cls-2" d="M123.3,0C56,0,1.5,23.7,1.5,53c0,13.1,11,25.1,29.1,34.4,3,1.5,6.2,3,9.6,4.4a179.811,179.811,0,0,0,28.4,8.6L92,79.3l10.8-9.8L121,53,174.2,4.8A261.184,261.184,0,0,0,123.3,0Z"/>
    <path id="XMLID_4_" class="cls-1" d="M40.3,91.8c-3.4-1.4-6.6-2.8-9.6-4.4C12.5,78.1,1.5,66.1,1.5,53v68.7a32.7,32.7,0,0,0,.4,4.4C4.4,139.4,18.1,151.3,39,160c3.8,1.6,7.7,3,11.9,4.4a175.493,175.493,0,0,0,17.7,4.7V100.3a171.7,171.7,0,0,1-28.3-8.5Z"/>
    <path id="XMLID_9_" class="cls-3" d="M144.1,275.9a80.853,80.853,0,0,1-2-16.4q-9.15.6-18.9.6a271.743,271.743,0,0,1-29-1.5,240.39,240.39,0,0,1-25.6-4.1v68.8c1.3.3,2.6.6,4,.8a258.8,258.8,0,0,0,50.6,4.8,259.025,259.025,0,0,0,54.8-5.7,76.6,76.6,0,0,1-33.9-47.3Z"/>
    <path id="XMLID_2_" class="cls-4" d="M177.7,5.6c-1.2-.3-2.3-.5-3.5-.7L121,53,102.8,69.5,92,79.3,68.7,100.4a257.327,257.327,0,0,0,54.6,5.6c7.4,0,14.6-.3,21.6-.8,23.5-1.8,44.7-6.6,61.5-13.4,3.4-1.4,6.6-2.8,9.6-4.4,18.1-9.3,29-21.3,29-34.4,0-20.8-27.4-38.7-67.3-47.4Z"/>
    <path id="XMLID_7_" class="cls-3" d="M215.9,87.4c-3,1.5-6.2,3-9.6,4.4-16.8,6.8-37.9,11.6-61.5,13.4-7,.5-14.2.8-21.6.8a257.327,257.327,0,0,1-54.6-5.6v68.8a257.716,257.716,0,0,0,53.2,5.6h1.4c27.1,0,52.1-3.9,72.3-10.4,4.2-1.4,8.2-2.8,11.9-4.4,20.8-8.7,34.6-20.6,37.1-33.9a21.192,21.192,0,0,0,.4-4.4V53C245,66.1,234.1,78.1,215.9,87.4Z"/>
    <g id="XMLID_1_">
      <path id="XMLID_8_" class="cls-4" d="M244.6,126.1c-2.5,13.3-16.2,25.2-37.1,33.9-3.8,1.6-7.7,3-11.9,4.4-20.2,6.5-45.2,10.4-72.3,10.4h-1.4a257.717,257.717,0,0,1-53.2-5.6c-6.2-1.4-12.1-2.9-17.7-4.7-4.2-1.4-8.2-2.8-11.9-4.4-20.9-8.8-34.6-20.7-37.1-34a21.192,21.192,0,0,1-.4-4.4v8.8c0,12.9,10.6,24.7,28.1,33.9,2.9,1.5,6.1,3,9.4,4.4a178.247,178.247,0,0,0,29.6,9.1,259.685,259.685,0,0,0,50.3,5.6h4.3c32.7,0,62.3-5.6,84.2-14.7a102.406,102.406,0,0,0,9.4-4.4c17.5-9.2,28.1-21,28.1-33.9v-8.8A21.193,21.193,0,0,1,244.6,126.1Z"/>
      <path id="XMLID_19_" class="cls-4" d="M244.6,202.6c-2.4,12.7-15,24.1-34.3,32.7-1.3.6-2.7,1.2-4.1,1.7-3,1.2-6,2.3-9.3,3.4a214.423,214.423,0,0,1-42.2,9c-4,.5-8.1.8-12.3,1.1-6.3.4-12.7.7-19.2.7-9,0-17.8-.4-26.2-1.2a238.1,238.1,0,0,1-28.4-4.4A178.484,178.484,0,0,1,40.3,237C18.8,228.3,4.5,216.2,2,202.6a21.192,21.192,0,0,1-.4-4.4V207c0,13.1,11,25.1,29.2,34.4a162.284,162.284,0,0,0,38,13,240.4,240.4,0,0,0,25.6,4.1,271.743,271.743,0,0,0,29,1.5q9.6,0,18.9-.6c4.1-.3,8.1-.6,12-1.1a213.451,213.451,0,0,0,42.8-9.1,132.671,132.671,0,0,0,18.9-7.8c.9-.5,1.8-1,2.7-1.4,16.5-9,26.4-20.5,26.4-33v-8.7c0,.5-.1.9-.1,1.4a25.353,25.353,0,0,1-.4,2.9Z"/>
    </g>
    <path id="XMLID_16_" class="cls-3" d="M216.9,164.4q-4.616,2.376-9.4,4.4c-21.9,9.1-51.5,14.7-84.2,14.7H119a258.791,258.791,0,0,1-50.3-5.6v67.8a260.3,260.3,0,0,0,28.4,4.4c8.4.8,17.2,1.2,26.2,1.2,6.5,0,13-.2,19.2-.7,4.2-.3,8.3-.7,12.3-1.1a214.423,214.423,0,0,0,42.2-9c3.2-1.1,6.3-2.2,9.3-3.4,1.4-.6,2.7-1.1,4.1-1.7,19.3-8.6,31.9-20,34.3-32.7.2-1,.3-2,.4-3,0-.5.1-.9.1-1.4V130.5c-.2,12.9-10.7,24.7-28.3,33.9Z"/>
    <g id="XMLID_54_">
      <circle id="XMLID_85_" class="cls-5" cx="76.4" cy="76.4" r="76.4" transform="translate(142.1 181.9)"/>
      <g id="XMLID_78_">
        <path id="XMLID_82_" class="cls-6" d="M218.5,197.7a64.346,64.346,0,0,1,64.3,62.5v-1.9a64.4,64.4,0,0,0-128.8,0v1.9a64.726,64.726,0,0,1,64.5-62.5Z"/>
        <path id="XMLID_79_" class="cls-7" d="M218.5,322.7a64.346,64.346,0,0,0,64.3-62.5,64.326,64.326,0,0,0-128.6,0,64.346,64.346,0,0,0,64.3,62.5Z"/>
      </g>
      <path id="XMLID_67_" class="cls-6" d="M196.9,256v36l54.5-30.5L196.9,231Z"/>
      <path id="XMLID_58_" class="cls-8" d="M196.9,252.8v36.1l54.5-30.6-54.5-30.5Z"/>
    </g>
  </g>
</svg>
