<svg xmlns="http://www.w3.org/2000/svg" width="36" height="36" viewBox="0 0 36 36">
  <defs>
    <style>
      .cls-1 {
        fill: #03a9f4;
      }

      .cls-2 {
        fill: #020f16;
      }
    </style>
  </defs>
  <g id="icons8-adobe-photoshop" transform="translate(-6 -6)">
    <path id="Path_282" data-name="Path 282" class="cls-1" d="M6,10a4,4,0,0,1,4-4H38a4,4,0,0,1,4,4V38a4,4,0,0,1-4,4H10a4,4,0,0,1-4-4Z"/>
    <path id="Path_283" data-name="Path 283" class="cls-2" d="M20.016,19.174h-2v4.434h1.973a1.565,1.565,0,0,0,1.27-.537,2.376,2.376,0,0,0,.449-1.563,2.817,2.817,0,0,0-.459-1.694A1.474,1.474,0,0,0,20.016,19.174Z"/>
    <path id="Path_284" data-name="Path 284" class="cls-2" d="M9,9V39H39V9ZM23.365,24.789A4.706,4.706,0,0,1,19.928,26H18.014v5H15.143V16.781h4.844a4.444,4.444,0,0,1,3.364,1.309,4.707,4.707,0,0,1,1.255,3.4A4.4,4.4,0,0,1,23.365,24.789Zm9.317,5.547a4.309,4.309,0,0,1-2.793.859,4.442,4.442,0,0,1-2.051-.454,3.451,3.451,0,0,1-1.392-1.265,3.257,3.257,0,0,1-.5-1.748H28.57a1.679,1.679,0,0,0,.337,1.084,1.32,1.32,0,0,0,1.04.361q1.113,0,1.113-1.006a.861.861,0,0,0-.337-.649,6.691,6.691,0,0,0-1.5-.805,6.227,6.227,0,0,1-2.349-1.436,2.727,2.727,0,0,1-.64-1.846,2.95,2.95,0,0,1,1-2.29,3.808,3.808,0,0,1,2.651-.9,4.128,4.128,0,0,1,2.783.9,3.017,3.017,0,0,1,1.045,2.412H30.952q0-1.288-1.074-1.289a.957.957,0,0,0-1.006,1.035.8.8,0,0,0,.313.62,6.858,6.858,0,0,0,1.475.767,6.107,6.107,0,0,1,2.388,1.392,2.835,2.835,0,0,1,.7,1.987A2.78,2.78,0,0,1,32.682,30.336Z"/>
  </g>
</svg>
