<svg xmlns="http://www.w3.org/2000/svg" width="431.915" height="445.449" viewBox="0 0 431.915 445.449">
  <defs>
    <style>
      .cls-1 {
        stroke: #000;
        stroke-width: 37.395px;
      }

      .cls-2 {
        fill: #336791;
      }

      .cls-3, .cls-4 {
        fill: none;
        stroke-linecap: round;
        stroke-width: 12.465px;
      }

      .cls-3, .cls-4, .cls-5, .cls-6 {
        stroke: #fff;
      }

      .cls-3 {
        stroke-linejoin: round;
      }

      .cls-4 {
        stroke-linejoin: bevel;
      }

      .cls-5, .cls-6 {
        fill: #fff;
      }

      .cls-5 {
        stroke-width: 4.155px;
      }

      .cls-6 {
        stroke-width: 2.078px;
      }
    </style>
  </defs>
  <g id="PostgreSQL-Logo.wine" transform="translate(-0.502)">
    <path id="Path_128" data-name="Path 128" class="cls-1" d="M323.2,324.227c2.833-23.6,1.984-27.062,19.563-23.239l4.463.392c13.517.615,31.2-2.174,41.587-7C411.18,284,424.44,266.68,402.39,271.232c-50.3,10.376-53.755-6.655-53.755-6.655,53.111-78.8,75.313-178.836,56.149-203.322C352.514-5.534,262.036,26.05,260.522,26.87l-.482.09a179.2,179.2,0,0,0-33.554-3.5c-22.761-.374-40.032,5.967-53.133,15.9,0,0-161.408-66.5-153.9,83.628,1.6,31.936,45.777,241.655,98.47,178.31,19.259-23.163,37.871-42.748,37.871-42.748a48.852,48.852,0,0,0,31.912,8.147l.9-.765a34.99,34.99,0,0,0,.359,9.02c-13.572,15.166-9.584,17.83-36.723,23.415-27.457,5.66-11.326,15.734-.8,18.367,12.768,3.193,42.3,7.716,62.268-20.224l-.795,3.188c5.325,4.26,4.965,30.62,5.72,49.452s2.017,36.41,5.856,46.771,8.369,37.05,44.036,29.406c29.809-6.388,52.6-15.582,54.677-101.107"/>
    <path id="Path_129" data-name="Path 129" class="cls-2" d="M402.395,271.23c-50.3,10.376-53.76-6.655-53.76-6.655,53.111-78.808,75.313-178.843,56.153-203.326-52.27-66.785-142.752-35.2-144.262-34.38l-.486.087a179.386,179.386,0,0,0-33.56-3.5c-22.761-.373-40.026,5.967-53.127,15.9,0,0-161.411-66.5-153.9,83.63,1.6,31.938,45.776,241.657,98.471,178.312,19.26-23.163,37.869-42.748,37.869-42.748A48.85,48.85,0,0,0,187.7,266.7l.9-.765a35.175,35.175,0,0,0,.361,9.02c-13.575,15.166-9.586,17.83-36.723,23.415-27.459,5.66-11.328,15.734-.8,18.367,12.768,3.193,42.307,7.716,62.266-20.224l-.8,3.188c5.319,4.26,9.054,27.711,8.428,48.97s-1.044,35.853,3.147,47.253,8.368,37.05,44.042,29.406c29.809-6.388,45.256-22.942,47.4-50.555,1.525-19.63,4.976-16.729,5.194-34.28l2.768-8.309c3.192-26.61.507-35.2,18.872-31.2l4.463.392c13.517.615,31.208-2.174,41.591-7,22.358-10.376,35.618-27.7,13.573-23.148Z"/>
    <path id="Path_130" data-name="Path 130" class="cls-3" d="M215.866,286.484c-1.385,49.516.348,99.377,5.193,111.495s15.223,35.688,50.9,28.045c29.806-6.39,40.651-18.756,45.357-46.05,3.466-20.083,10.148-75.855,11.005-87.282M173.1,38.256S11.583-27.76,19.092,122.366c1.6,31.937,45.779,241.663,98.473,178.315,19.256-23.166,36.671-41.335,36.671-41.335M260.349,26.207C254.758,27.96,350.2-8.682,404.436,60.624c19.159,24.484-3.043,124.52-56.153,203.33"/>
    <path id="Path_131" data-name="Path 131" class="cls-4" d="M348.282,263.953s3.461,17.036,53.764,6.653c22.04-4.552,8.776,12.774-13.577,23.155-18.345,8.514-59.474,10.7-60.146-1.069-1.729-30.355,21.647-21.133,19.96-28.739-1.525-6.85-11.979-13.573-18.894-30.338-6.037-14.633-82.8-126.849,21.287-110.183,3.813-.789-27.146-99-124.553-100.6-97.385-1.6-94.19,119.762-94.19,119.762"/>
    <path id="Path_132" data-name="Path 132" class="cls-3" d="M188.6,274.334c-13.577,15.166-9.584,17.83-36.723,23.417-27.459,5.66-11.326,15.733-.8,18.365,12.768,3.2,42.307,7.718,62.266-20.229,6.078-8.509-.036-22.086-8.385-25.547-4.034-1.67-9.428-3.765-16.361,3.994Z"/>
    <path id="Path_133" data-name="Path 133" class="cls-3" d="M187.715,274.07c-1.368-8.918,2.93-19.529,7.536-31.943,6.922-18.626,22.893-37.255,10.117-96.339-9.523-44.029-73.4-9.163-73.436-3.193s2.889,30.26-1.067,58.548c-5.162,36.913,23.488,68.132,56.479,64.938"/>
    <path id="Path_134" data-name="Path 134" class="cls-5" d="M172.517,141.7c-.288,2.04,3.733,7.48,8.976,8.207s9.714-3.522,10-5.559-3.732-4.285-8.977-5.015-9.719.333-10,2.367Z"/>
    <path id="Path_135" data-name="Path 135" class="cls-6" d="M331.941,137.543c.284,2.04-3.732,7.48-8.976,8.207s-9.718-3.522-10.005-5.559,3.74-4.285,8.979-5.015,9.718.333,10,2.368Z"/>
    <path id="Path_136" data-name="Path 136" class="cls-3" d="M350.676,123.432c.863,15.994-3.445,26.888-3.988,43.914-.8,24.748,11.8,53.074-7.191,81.435"/>
  </g>
</svg>
