<svg id="python" xmlns="http://www.w3.org/2000/svg" width="512" height="512" viewBox="0 0 512 512">
  <path id="Path_323" data-name="Path 323" d="M116,296a55.061,55.061,0,0,1,55-55H341a25.028,25.028,0,0,0,25-25V75A75.084,75.084,0,0,0,291,0H221a75.084,75.084,0,0,0-75,75v41H256a15,15,0,0,1,0,30H75A75.084,75.084,0,0,0,0,221v70a75.084,75.084,0,0,0,75,75h41ZM221,76a15,15,0,1,1,15-15A15,15,0,0,1,221,76Zm0,0"/>
  <path id="Path_324" data-name="Path 324" d="M437,146H396v70a55.061,55.061,0,0,1-55,55H171a25.028,25.028,0,0,0-25,25V437a75.084,75.084,0,0,0,75,75h70a75.084,75.084,0,0,0,75-75V396H256a15,15,0,0,1,0-30H437a75.084,75.084,0,0,0,75-75V221A75.084,75.084,0,0,0,437,146ZM291,436a15,15,0,1,1-15,15A15,15,0,0,1,291,436Zm0,0"/>
</svg>
