<svg id="Raspberry_Pi-Logo.wine" xmlns="http://www.w3.org/2000/svg" width="72.515" height="92.604" viewBox="0 0 72.515 92.604">
  <defs>
    <style>
      .cls-1 {
        fill: #75a928;
      }

      .cls-2 {
        fill: #bc1142;
      }
    </style>
  </defs>
  <path id="Path_137" data-name="Path 137" d="M19.629,0A2.593,2.593,0,0,0,18.085.64c-1.4-.54-2.76-.728-3.975.372-1.876-.243-2.486.259-2.948.845-.412-.008-3.082-.423-4.306,1.4C3.779,2.9,2.807,5.07,3.909,7.1c-.628.973-1.28,1.934.19,3.789-.52,1.033-.2,2.153,1.027,3.51A2.97,2.97,0,0,0,6.577,17.67c-.213,1.987,1.822,3.142,2.43,3.554.233,1.158.72,2.25,3.045,2.854.383,1.726,1.781,2.023,3.134,2.386-4.472,2.6-8.307,6.019-8.281,14.411L6.25,42.044C1.122,45.162-3.491,55.184,3.723,63.33a39.865,39.865,0,0,0,1.965,6.409c1.052,8.168,7.921,11.993,9.732,12.445a32.842,32.842,0,0,0,9.308,5.285A15.452,15.452,0,0,0,36.171,92.6h.174a15.451,15.451,0,0,0,11.443-5.135,32.843,32.843,0,0,0,9.308-5.285c1.812-.452,8.68-4.277,9.732-12.445a39.87,39.87,0,0,0,1.965-6.409c7.214-8.147,2.6-18.17-2.527-21.288l-.656-1.168c.026-8.391-3.809-11.811-8.281-14.411,1.353-.362,2.75-.66,3.133-2.385,2.325-.6,2.811-1.7,3.045-2.854.608-.412,2.643-1.567,2.43-3.554a2.97,2.97,0,0,0,1.451-3.275c1.225-1.356,1.547-2.477,1.027-3.51,1.47-1.854.818-2.815.19-3.788,1.1-2.027.129-4.2-2.949-3.837-1.224-1.827-3.893-1.412-4.306-1.4-.462-.586-1.071-1.088-2.947-.845C57.188-.088,55.83.1,54.429.64,52.765-.673,51.664.379,50.406.777c-2.014-.658-2.475.243-3.465.611-2.2-.464-2.865.547-3.918,1.613L41.8,2.977c-3.314,1.953-4.96,5.929-5.543,7.973-.584-2.045-2.226-6.021-5.539-7.973L29.49,3C28.436,1.934,27.768.924,25.571,1.388c-.99-.367-1.449-1.269-3.465-.611A7.65,7.65,0,0,0,19.628,0Z"/>
  <path id="Path_138" data-name="Path 138" class="cls-1" d="M13.032,8.592c8.791,4.533,13.9,8.2,16.7,11.322-1.434,5.747-8.914,6.009-11.649,5.848a2.055,2.055,0,0,0,1.193-1.053c-.686-.488-3.12-.051-4.819-1.006a1.6,1.6,0,0,0,1.263-.749,13.843,13.843,0,0,1-4.351-1.8,2.459,2.459,0,0,0,1.778-.374,16.814,16.814,0,0,1-4.164-2.573c.743-.018,1.545-.007,1.778-.281a16.034,16.034,0,0,1-3.345-2.713c1.04.125,1.479.017,1.731-.164C8.155,14.03,6.9,13.17,6.3,11.914a2.1,2.1,0,0,0,1.988-.023C7.946,11.128,6.5,10.679,5.664,8.9c.813.079,1.676.177,1.848,0a8.78,8.78,0,0,0-1.66-3.3,29.662,29.662,0,0,0,4.257-.14l-1.076-1.1a8.494,8.494,0,0,1,4.7.468c.567-.447-.01-1.013-.7-1.591a17.082,17.082,0,0,1,3.93.982c.631-.569-.409-1.138-.912-1.708a10.056,10.056,0,0,1,4.117,1.614c.682-.653.039-1.209-.421-1.778A10.08,10.08,0,0,1,23.209,4.57c.309-.418.786-.724.211-1.731a8.778,8.778,0,0,1,2.76,2.409c.739-.471.44-1.114.444-1.708a27.534,27.534,0,0,1,2.994,3.135,2.639,2.639,0,0,0,.515-1.38c2.962,2.874,7.148,10.113,1.076,12.983A57.088,57.088,0,0,0,13.03,8.594Zm46.647,0c-8.79,4.533-13.9,8.2-16.7,11.322,1.434,5.747,8.914,6.009,11.649,5.848a2.055,2.055,0,0,1-1.193-1.053c.686-.488,3.12-.051,4.819-1.006a1.6,1.6,0,0,1-1.263-.749,13.842,13.842,0,0,0,4.351-1.8,2.459,2.459,0,0,1-1.778-.374,16.814,16.814,0,0,0,4.164-2.573c-.743-.018-1.545-.007-1.778-.281a16.037,16.037,0,0,0,3.345-2.713c-1.04.125-1.479.017-1.731-.164.995-1.019,2.254-1.879,2.854-3.134a2.1,2.1,0,0,1-1.988-.023c.338-.762,1.786-1.212,2.62-2.994-.813.079-1.676.177-1.848,0a8.788,8.788,0,0,1,1.661-3.3,29.653,29.653,0,0,1-4.257-.14l1.076-1.1a8.494,8.494,0,0,0-4.7.468c-.567-.447.01-1.013.7-1.591a17.083,17.083,0,0,0-3.93.983c-.63-.569.409-1.138.912-1.708a10.056,10.056,0,0,0-4.117,1.614c-.682-.653-.039-1.209.421-1.778A10.08,10.08,0,0,0,49.5,4.569c-.309-.418-.786-.724-.211-1.731a8.778,8.778,0,0,0-2.76,2.409c-.739-.471-.44-1.114-.444-1.708A27.525,27.525,0,0,0,43.1,6.674a2.638,2.638,0,0,1-.515-1.38C39.618,8.168,35.432,15.407,41.5,18.277A57.026,57.026,0,0,1,59.68,8.592Z"/>
  <path id="Path_139" data-name="Path 139" class="cls-2" d="M47,67.114c0,5.363-4.715,9.711-10.531,9.711s-10.531-4.348-10.531-9.711,4.715-9.71,10.531-9.71S47,61.751,47,67.114ZM30.379,39.375c4.363,2.859,5.15,9.339,1.757,14.473s-9.681,6.98-14.044,4.121S12.941,48.63,16.334,43.5s9.681-6.98,14.044-4.121Z"/>
  <path id="Path_140" data-name="Path 140" class="cls-2" d="M42.156,38.857C37.792,41.716,37.006,48.2,40.4,53.33s9.681,6.98,14.044,4.121,5.15-9.339,1.757-14.473S46.519,36,42.156,38.857ZM8.571,44.048c4.711-1.263,1.59,19.489-2.243,17.787C2.112,58.444.754,48.512,8.571,44.048Z"/>
  <path id="Path_141" data-name="Path 141" class="cls-2" d="M63.012,43.79c-4.711-1.262-1.59,19.491,2.243,17.788,4.216-3.392,5.574-13.324-2.243-17.788ZM47.006,28.336c8.13-1.373,14.895,3.457,14.622,12.273-.267,3.38-17.617-11.77-14.622-12.273Zm-22.462-.259C16.413,26.7,9.649,31.536,9.922,40.351c.267,3.38,17.617-11.77,14.622-12.274Zm11.678-2.056c-4.852-.126-9.509,3.6-9.52,5.763-.014,2.627,3.836,5.317,9.553,5.385,5.838.042,9.564-2.153,9.582-4.864.021-3.072-5.31-6.332-9.616-6.284Zm.3,53.871c4.23-.185,9.907,1.363,9.918,3.415.07,1.993-5.148,6.5-10.2,6.409-5.231.226-10.36-4.285-10.293-5.848-.078-2.292,6.369-4.082,10.573-3.977ZM20.892,67.727c3.012,3.629,4.385,10,1.871,11.883-2.378,1.435-8.153.844-12.257-5.053C7.738,69.61,8.095,64.575,10.039,63.1c2.906-1.771,7.4.621,10.854,4.632Zm30.649-1.15c-3.259,3.817-5.073,10.779-2.7,13.021,2.273,1.742,8.375,1.5,12.882-4.756,3.273-4.2,2.176-11.215.307-13.078-2.777-2.148-6.764.6-10.493,4.812Z"/>
</svg>
