<svg xmlns="http://www.w3.org/2000/svg" width="63.741" height="53.866" viewBox="0 0 63.741 53.866">
  <defs>
    <style>
      .cls-1 {
        fill: rgba(255,255,255,0);
      }

      .cls-1, .cls-2, .cls-3 {
        fill-rule: evenodd;
      }

      .cls-2 {
        fill: #020002;
      }

      .cls-3 {
        fill: #c1342c;
      }
    </style>
  </defs>
  <g id="red-hat-2-logo-svg-vector" transform="translate(0 -69.447)">
    <path id="Path_330" data-name="Path 330" class="cls-1" d="M0,0H63.741V53.866H0Z" transform="translate(0 69.447)"/>
    <path id="Path_331" data-name="Path 331" class="cls-2" d="M58.854,116.451a16.436,16.436,0,0,0-3.679-.441,14.934,14.934,0,0,0-5.56.975.48.48,0,0,0-.227.633c.171.5-.111,1.035-1.51,1.342-2.074.455-3.385,2.6-4.134,3.307-.879.836-3.363,1.348-2.991.85a18.514,18.514,0,0,0,2.092-2.916,24.5,24.5,0,0,1,1.9-2.625,9.6,9.6,0,0,0,1.313-2.395,16.889,16.889,0,0,0,.292-2.471,21.536,21.536,0,0,0,.824-2.918c.028-.457-1.919.658-2.843.658s-1.825-.553-2.65-.594c-1.021-.049-1.678.789-2.6.643-.526-.086-.972-.549-1.894-.584-1.313-.049-2.919.73-5.934.633-2.966-.1-5.7-3.746-6.078-4.328-.438-.682-.975-.682-1.557-.148a1,1,0,0,1-1.508-.24c-.389-.682-1.431-2.674-3.04-3.088a2.461,2.461,0,0,0-3.21,2.674c.15,1.461,1.1,1.871,1.532,2.648s.663,1.281,1.485,1.625c.584.242.8.6.628,1.084-.154.416-.76.512-1.161.531a3.062,3.062,0,0,1-1.877-.469,4.121,4.121,0,0,1-1.354-1.525,2.481,2.481,0,0,0-2.246-1.2,2.667,2.667,0,0,0-1.233.311,11.073,11.073,0,0,1-5.088,1.213H4.424a30.456,30.456,0,1,1,54.43,6.818Z"/>
    <path id="Path_332" data-name="Path 332" class="cls-2" d="M39.994,113.658a1.146,1.146,0,0,1,.1,1.318,2.59,2.59,0,0,1-.742.873,1.94,1.94,0,0,1-2.414.012c-.616-.393-.653-.523-1.506-.414-.61.08-.851-.533-.633-1.047s1.117-.92,2.238-.266c.5.295,1.287.92,1.973.367a5.426,5.426,0,0,0,.851-.838.094.094,0,0,1,.135,0Z"/>
    <path id="Path_333" data-name="Path 333" class="cls-3" d="M50.473,91.794a4.754,4.754,0,0,1-2.632,3.284c-.278.141-.383-.091-.257-.31a14.534,14.534,0,0,0,1.058-2.013c.292-.706.445-1.709-.137-3.805-1.144-4.12-3.535-9.629-5.271-11.417-1.677-1.724-4.712-2.209-7.458-1.506a11.008,11.008,0,0,1-6.656.462c-6.349-1.429-7.287,1.749-7.652,3.133s-1.24,5.321-1.24,5.321c-.291,1.6-.673,4.388,9.183,6.267,4.592.874,4.825,2.062,5.028,2.913a4.474,4.474,0,0,0,1.6,2.844c.655.438,0,.8-.729.873-1.955.2-9.182-1.87-13.457-4.3-3.5-2.138-3.557-4.063-2.755-5.7-5.285-.57-9.25.5-9.969,3-1.235,4.292,9.438,11.626,21.591,15.3,12.752,3.865,25.869,1.168,27.326-6.85.664-3.642-2.4-6.336-7.577-7.5Z"/>
    <path id="Path_334" data-name="Path 334" class="cls-2" d="M62.609,115.123h.206l.309.51h.2l-.337-.52a.3.3,0,0,0,.307-.32c0-.232-.138-.336-.415-.336h-.448v1.176h.178v-.51Zm0-.15v-.365h.245c.124,0,.254.027.254.172,0,.182-.134.193-.286.193Z"/>
  </g>
</svg>
