<svg xmlns="http://www.w3.org/2000/svg" xmlns:xlink="http://www.w3.org/1999/xlink" width="62.743" height="62.996" viewBox="0 0 62.743 62.996">
  <defs>
    <style>
      .cls-1 {
        opacity: 0.53;
      }

      .cls-2 {
        stroke: #cdcdcd;
        stroke-linecap: round;
        stroke-linejoin: round;
        stroke-width: 0.093px;
        fill: url(#linear-gradient);
      }

      .cls-3 {
        fill: url(#radial-gradient);
      }

      .cls-4 {
        fill: #f4f2f3;
      }

      .cls-5 {
        opacity: 0.409;
      }

      .cls-6 {
        fill: #ff5150;
      }

      .cls-7 {
        fill: #f1f1f1;
      }

      .cls-8 {
        opacity: 0.243;
      }
    </style>
    <linearGradient id="linear-gradient" x1="1.474" y1="0.909" x2="1.474" y2="-1.935" gradientUnits="objectBoundingBox">
      <stop offset="0" stop-color="#bdbdbd"/>
      <stop offset="1" stop-color="#fff"/>
    </linearGradient>
    <radialGradient id="radial-gradient" cx="0.502" cy="0.427" r="0.543" gradientTransform="translate(0)" gradientUnits="objectBoundingBox">
      <stop offset="0" stop-color="#06c2e7"/>
      <stop offset="0.25" stop-color="#0db8ec"/>
      <stop offset="0.5" stop-color="#12aef1"/>
      <stop offset="0.75" stop-color="#1f86f9"/>
      <stop offset="1" stop-color="#107ddd"/>
    </radialGradient>
  </defs>
  <g id="Safari__web_browser_-Logo.wine" data-name="Safari_(web_browser)-Logo.wine" transform="translate(-1.702)">
    <path id="Path_143" data-name="Path 143" class="cls-1" d="M170.03,48.426c0,16.048-13.51,29.058-30.176,29.058s-30.177-13.01-30.176-29.058,13.51-29.058,30.176-29.058,30.177,13.01,30.177,29.058Z" transform="translate(-106.78 -14.488)"/>
    <path id="Path_144" data-name="Path 144" class="cls-2" d="M383.294,211.977a31.325,31.325,0,1,1-31.325-31.325,31.325,31.325,0,0,1,31.325,31.325Z" transform="translate(-318.896 -180.605)"/>
    <path id="Path_145" data-name="Path 145" class="cls-3" d="M380.839,211.977a28.871,28.871,0,1,1-28.871-28.871,28.871,28.871,0,0,1,28.871,28.871Z" transform="translate(-318.896 -180.605)"/>
    <path id="Path_146" data-name="Path 146" class="cls-4" d="M33.073,4.007a.42.42,0,0,0-.421.421V9.283a.421.421,0,1,0,.842,0V4.428a.42.42,0,0,0-.421-.421Zm-2.754.174a.386.386,0,0,0-.086,0,.42.42,0,0,0-.375.462l.212,2.031a.421.421,0,1,0,.837-.087L30.7,4.556a.42.42,0,0,0-.377-.375Zm5.527,0a.42.42,0,0,0-.377.375l-.214,2.031a.421.421,0,1,0,.837.088l.214-2.031a.42.42,0,0,0-.375-.463.445.445,0,0,0-.085,0Zm-8.355.408a.42.42,0,0,0-.41.508l1.005,4.75a.421.421,0,1,0,.824-.174L27.9,4.925a.42.42,0,0,0-.414-.334Zm11.184,0a.42.42,0,0,0-.414.334L37.251,9.678a.421.421,0,1,0,.823.175L39.084,5.1a.42.42,0,0,0-.409-.508Zm-13.883.757a.408.408,0,0,0-.166.019.42.42,0,0,0-.27.53l.631,1.942a.421.421,0,1,0,.8-.26l-.631-1.942a.42.42,0,0,0-.364-.29Zm16.568,0a.42.42,0,0,0-.364.29l-.632,1.942a.421.421,0,1,0,.8.26L41.8,5.9a.421.421,0,0,0-.437-.55Zm-19.237.976a.421.421,0,0,0-.377.592l1.972,4.437a.421.421,0,1,0,.769-.342L22.514,6.579a.42.42,0,0,0-.392-.25Zm21.937.015a.421.421,0,0,0-.393.25l-1.978,4.434a.421.421,0,1,0,.769.343l1.978-4.434a.422.422,0,0,0-.376-.593ZM19.643,7.64a.421.421,0,0,0-.394.631l1.021,1.769A.421.421,0,1,0,21,9.619L19.979,7.85a.42.42,0,0,0-.335-.21Zm26.859,0a.419.419,0,0,0-.335.21L45.146,9.619a.421.421,0,1,0,.729.421L46.9,8.271A.421.421,0,0,0,46.5,7.64Zm-29.265,1.5a.421.421,0,0,0-.326.668l2.851,3.93a.421.421,0,1,0,.681-.494l-2.851-3.93a.42.42,0,0,0-.355-.174Zm31.7.021a.419.419,0,0,0-.355.173l-2.856,3.926a.421.421,0,1,0,.681.5l2.856-3.926a.422.422,0,0,0-.326-.669ZM15.087,10.945a.421.421,0,0,0-.335.7l1.367,1.518a.421.421,0,1,0,.626-.563l-1.366-1.518a.42.42,0,0,0-.291-.139Zm35.976,0a.421.421,0,0,0-.291.139L49.4,12.6a.421.421,0,1,0,.625.563L51.4,11.65a.421.421,0,0,0-.335-.7ZM13.025,12.925a.421.421,0,0,0-.26.734l3.609,3.248a.421.421,0,1,0,.563-.626l-3.609-3.248a.42.42,0,0,0-.3-.108Zm40.108.014a.419.419,0,0,0-.3.108l-3.611,3.246a.421.421,0,1,0,.563.626l3.611-3.246a.421.421,0,0,0-.259-.734Zm-41.822,2.19a.421.421,0,0,0-.262.762l1.652,1.2a.421.421,0,1,0,.495-.681l-1.652-1.2A.421.421,0,0,0,11.311,15.129Zm43.535.015a.421.421,0,0,0-.233.08l-1.653,1.2a.421.421,0,1,0,.494.681l1.653-1.2a.421.421,0,0,0-.262-.762ZM9.709,17.48a.421.421,0,0,0-.181.785l4.2,2.428a.421.421,0,1,0,.421-.729l-4.2-2.428a.421.421,0,0,0-.24-.056Zm46.727,0a.417.417,0,0,0-.24.056l-4.2,2.428a.421.421,0,1,0,.421.729l4.2-2.427a.421.421,0,0,0-.181-.785ZM8.5,19.986a.421.421,0,0,0-.18.806l1.865.832a.421.421,0,1,0,.343-.769l-1.865-.832a.42.42,0,0,0-.163-.037ZM57.656,20a.421.421,0,0,0-.164.037l-1.866.831a.421.421,0,1,0,.342.769l1.866-.831A.421.421,0,0,0,57.656,20Zm-50.237,2.6a.421.421,0,0,0-.095.82l4.616,1.5a.421.421,0,1,0,.261-.8l-4.616-1.5a.421.421,0,0,0-.166-.019Zm51.315.018a.408.408,0,0,0-.166.019l-4.617,1.5a.421.421,0,1,0,.26.8l4.617-1.5a.421.421,0,0,0-.094-.82ZM6.746,25.355a.421.421,0,0,0-.09.833l2,.425a.421.421,0,1,0,.175-.824l-2-.425a.413.413,0,0,0-.085-.009Zm52.655,0a.518.518,0,0,0-.085.009l-2,.424a.421.421,0,1,0,.175.823l2-.424a.421.421,0,0,0-.09-.833ZM6.237,28.121a.421.421,0,0,0,0,.838l4.828.51a.421.421,0,1,0,.089-.837l-4.828-.51a.432.432,0,0,0-.085,0Zm53.676.036a.386.386,0,0,0-.086,0l-4.829.5a.421.421,0,1,0,.087.837l4.829-.5a.421.421,0,0,0,0-.838ZM6.155,30.952a.421.421,0,1,0,0,.842H8.2a.421.421,0,1,0,0-.842Zm51.793,0a.421.421,0,1,0,0,.842h2.042a.421.421,0,1,0,0-.842Zm-46.8,2.294a.384.384,0,0,0-.085,0l-4.829.5a.421.421,0,1,0,.087.837l4.829-.5a.421.421,0,0,0,0-.838ZM55,33.276a.421.421,0,0,0,0,.838l4.828.51a.421.421,0,1,0,.088-.837l-4.828-.511a.434.434,0,0,0-.086,0ZM8.738,36.119a.43.43,0,0,0-.085.009l-2,.424a.421.421,0,1,0,.175.823l2-.424a.421.421,0,0,0-.09-.833Zm48.669,0a.421.421,0,0,0-.09.833l2,.425a.421.421,0,1,0,.175-.824l-2-.424a.413.413,0,0,0-.085-.009ZM12.1,37.781a.408.408,0,0,0-.166.019L7.318,39.3a.421.421,0,1,0,.26.8L12.2,38.6a.421.421,0,0,0-.094-.82Zm41.937.015a.421.421,0,0,0-.094.82l4.616,1.5a.421.421,0,1,0,.261-.8l-4.616-1.5A.421.421,0,0,0,54.039,37.8Zm-43.7,3.272a.42.42,0,0,0-.163.036l-1.866.831a.421.421,0,1,0,.342.769l1.866-.831a.421.421,0,0,0-.179-.806Zm45.459.016a.421.421,0,0,0-.18.805l1.865.832a.421.421,0,1,0,.343-.769l-1.865-.832a.42.42,0,0,0-.163-.037ZM13.973,42a.417.417,0,0,0-.24.056l-4.2,2.428a.421.421,0,1,0,.421.729l4.2-2.427A.421.421,0,0,0,13.973,42Zm38.2,0a.421.421,0,0,0-.181.785l4.2,2.427a.421.421,0,1,0,.421-.729l-4.2-2.428a.42.42,0,0,0-.24-.056ZM12.924,45.559a.421.421,0,0,0-.233.081l-1.653,1.2a.421.421,0,1,0,.494.681l1.653-1.2a.421.421,0,0,0-.262-.762Zm40.287.014a.421.421,0,0,0-.262.762l1.652,1.2a.421.421,0,1,0,.495-.681l-1.652-1.2a.421.421,0,0,0-.233-.081Zm-36.544.145a.418.418,0,0,0-.3.108l-3.611,3.246a.421.421,0,1,0,.563.626l3.611-3.246a.421.421,0,0,0-.259-.734Zm32.8.012a.421.421,0,0,0-.26.734l3.609,3.248a.421.421,0,1,0,.563-.626l-3.609-3.248a.419.419,0,0,0-.3-.108ZM20.093,48.814a.419.419,0,0,0-.355.173l-2.856,3.926a.421.421,0,1,0,.681.5l2.856-3.926a.421.421,0,0,0-.325-.669Zm25.936.018a.421.421,0,0,0-.326.668l2.851,3.93a.421.421,0,1,0,.681-.494l-2.851-3.93a.42.42,0,0,0-.355-.174Zm-29.623.606a.421.421,0,0,0-.291.139L14.749,51.1a.421.421,0,1,0,.625.563l1.367-1.518a.421.421,0,0,0-.335-.7Zm33.331,0a.421.421,0,0,0-.335.7l1.366,1.518a.421.421,0,1,0,.626-.563l-1.366-1.518a.42.42,0,0,0-.291-.139ZM24.082,51.124a.419.419,0,0,0-.392.25l-1.978,4.434a.421.421,0,1,0,.769.343l1.978-4.434a.422.422,0,0,0-.376-.593Zm17.956.012a.421.421,0,0,0-.377.592l1.972,4.437a.421.421,0,1,0,.769-.342L42.43,51.386a.42.42,0,0,0-.392-.25ZM20.606,52.494a.419.419,0,0,0-.335.21L19.25,54.473a.421.421,0,1,0,.729.421L21,53.125a.421.421,0,0,0-.394-.631Zm24.934,0a.421.421,0,0,0-.394.631l1.021,1.769a.421.421,0,1,0,.729-.421L45.875,52.7a.42.42,0,0,0-.335-.21Zm-17.055.063a.42.42,0,0,0-.414.333l-1.009,4.749a.421.421,0,1,0,.824.175L28.9,53.066a.42.42,0,0,0-.409-.508Zm9.16,0a.42.42,0,0,0-.409.508l1.005,4.75a.421.421,0,1,0,.824-.174l-1.006-4.75a.42.42,0,0,0-.414-.334Zm-4.573.479a.42.42,0,0,0-.421.421v4.855a.421.421,0,1,0,.842,0V53.461a.42.42,0,0,0-.421-.421Zm-7.726,1.569a.42.42,0,0,0-.364.29l-.631,1.942a.421.421,0,1,0,.8.26l.631-1.942a.422.422,0,0,0-.436-.55Zm15.45,0a.41.41,0,0,0-.166.019.42.42,0,0,0-.27.53l.631,1.942a.421.421,0,1,0,.8-.26L41.16,54.9a.42.42,0,0,0-.364-.29ZM30.431,55.692a.42.42,0,0,0-.377.375L29.84,58.1a.421.421,0,1,0,.837.088l.214-2.031a.42.42,0,0,0-.375-.463A.432.432,0,0,0,30.431,55.692Zm5.267,0a.386.386,0,0,0-.086,0,.42.42,0,0,0-.375.462l.212,2.031a.421.421,0,1,0,.837-.088l-.212-2.031a.42.42,0,0,0-.377-.375Z"/>
    <path id="Path_147" data-name="Path 147" class="cls-5" d="M164.906,35.367l-23.029,13.38L127.316,71.67l21.3-15.778Z" transform="translate(-112.105 -20.832)"/>
    <path id="Path_148" data-name="Path 148" class="cls-6" d="M36.373,34.828l-6.6-6.913L53.188,12.163Z"/>
    <path id="Path_149" data-name="Path 149" class="cls-7" d="M36.373,34.828l-6.6-6.913L12.957,50.58Z"/>
    <path id="Path_150" data-name="Path 150" class="cls-8" d="M12.957,50.58,36.373,34.828,53.188,12.163Z"/>
  </g>
</svg>
