<svg id="Skype-Logo.wine" xmlns="http://www.w3.org/2000/svg" width="50" height="50" viewBox="0 0 50 50">
  <defs>
    <style>
      .cls-1 {
        fill: #28a8ea;
      }

      .cls-2 {
        fill: #fff;
      }

      .cls-2, .cls-3 {
        fill-rule: evenodd;
      }

      .cls-3 {
        opacity: 0.1;
      }
    </style>
  </defs>
  <circle id="Ellipse_6" data-name="Ellipse 6" class="cls-1" cx="14.5" cy="14.5" r="14.5"/>
  <circle id="Ellipse_7" data-name="Ellipse 7" class="cls-1" cx="14.5" cy="14.5" r="14.5" transform="translate(21 21)"/>
  <circle id="Ellipse_8" data-name="Ellipse 8" class="cls-1" cx="24" cy="24" r="24" transform="translate(1 1)"/>
  <path id="Path_151" data-name="Path 151" class="cls-2" d="M18.776,24.544a7.294,7.294,0,0,1-2.287-2.415,6.672,6.672,0,0,1-.783-3.336,6,6,0,0,1,1.412-4.037A8.5,8.5,0,0,1,20.8,12.3a14.218,14.218,0,0,1,4.821-.811,18.72,18.72,0,0,1,3.208.246,11.579,11.579,0,0,1,2.223.574,4.312,4.312,0,0,1,1.741,1.112,2.25,2.25,0,0,1,.538,1.495,2.165,2.165,0,0,1-.565,1.558,1.881,1.881,0,0,1-1.422.592,2.559,2.559,0,0,1-1.057-.237,19.134,19.134,0,0,0-2.515-.92,9.13,9.13,0,0,0-2.424-.3,5.532,5.532,0,0,0-3.035.775A2.525,2.525,0,0,0,21.1,18.648a2.281,2.281,0,0,0,.629,1.595,5.734,5.734,0,0,0,1.695,1.212q1.066.529,3.18,1.4a3.3,3.3,0,0,1,.456.182A22.589,22.589,0,0,1,31,25.064a7.937,7.937,0,0,1,2.424,2.488,6.56,6.56,0,0,1,.875,3.454,6.947,6.947,0,0,1-1.212,4.165,7.2,7.2,0,0,1-3.39,2.515,14.288,14.288,0,0,1-5.094.829A16.05,16.05,0,0,1,17.655,37.2a3.779,3.779,0,0,1-1.431-1.112,2.5,2.5,0,0,1-.465-1.513,1.977,1.977,0,0,1,.61-1.54,2.252,2.252,0,0,1,1.576-.556,4.029,4.029,0,0,1,1.841.474q1.057.529,1.668.793a8.382,8.382,0,0,0,1.44.456,8.233,8.233,0,0,0,1.85.191,4.937,4.937,0,0,0,3.107-.829A2.737,2.737,0,0,0,28.9,31.3a2.412,2.412,0,0,0-.656-1.659,6.974,6.974,0,0,0-1.932-1.4q-1.276-.674-3.59-1.64a22.244,22.244,0,0,1-3.946-2.051"/>
  <path id="Path_152" data-name="Path 152" class="cls-3" d="M19.03.73a14.153,14.153,0,0,0-1.94-.5A26.075,26.075,0,0,0,.23,17.09a14.159,14.159,0,0,0,.5,1.94A10.983,10.983,0,0,0,1.4,20.7,23.947,23.947,0,0,1,20.7,1.4,10.99,10.99,0,0,0,19.03.73Z"/>
  <path id="Path_153" data-name="Path 153" class="cls-3" d="M19.03.73A25.019,25.019,0,0,0,.73,19.03,10.983,10.983,0,0,0,1.4,20.7,23.947,23.947,0,0,1,20.7,1.4,10.99,10.99,0,0,0,19.03.73ZM49.27,30.97a10.982,10.982,0,0,0-.67-1.67A23.947,23.947,0,0,1,29.3,48.6a10.984,10.984,0,0,0,1.67.67,14.153,14.153,0,0,0,1.94.5A26.075,26.075,0,0,0,49.77,32.91a14.162,14.162,0,0,0-.5-1.94Z"/>
  <path id="Path_154" data-name="Path 154" class="cls-3" d="M48.6,29.3A23.947,23.947,0,0,1,29.3,48.6a10.984,10.984,0,0,0,1.67.67,25.019,25.019,0,0,0,18.3-18.3A10.982,10.982,0,0,0,48.6,29.3Z"/>
</svg>
