<svg xmlns="http://www.w3.org/2000/svg" width="75.999" height="76" viewBox="0 0 75.999 76">
  <defs>
    <style>
      .cls-1 {
        fill: #8cd3df;
      }

      .cls-2 {
        fill: #5f9099;
      }

      .cls-3 {
        fill: #dd215a;
      }

      .cls-4 {
        fill: #a81945;
      }

      .cls-5 {
        fill: #ebb23d;
      }

      .cls-6 {
        fill: #b58a2f;
      }

      .cls-7 {
        fill: #cd171d;
      }

      .cls-8 {
        fill: #9c1116;
      }

      .cls-9 {
        fill: #7f9331;
      }

      .cls-10 {
        fill: #657527;
      }

      .cls-11 {
        fill: #66c1a0;
      }

      .cls-12 {
        fill: #4e917a;
      }

      .cls-13 {
        fill: #852759;
      }

      .cls-14 {
        fill: #551537;
      }

      .cls-15 {
        fill: #3ba08d;
      }

      .cls-16 {
        fill: #318575;
      }
    </style>
  </defs>
  <g id="icons8-slack" transform="translate(-2 -2)">
    <path id="Path_291" data-name="Path 291" class="cls-1" d="M8.685,42.593A6.183,6.183,0,0,1,6.653,30.57L61.262,11.579a6.182,6.182,0,1,1,4.063,11.678L10.716,42.248A6.168,6.168,0,0,1,8.685,42.593Z"/>
    <path id="Path_292" data-name="Path 292" class="cls-2" d="M63.295,11.733h0A5.684,5.684,0,0,1,65.16,22.785L10.551,41.776A5.683,5.683,0,0,1,6.818,31.041L61.427,12.05a5.657,5.657,0,0,1,1.868-.317m0-1a6.662,6.662,0,0,0-2.195.373L6.489,30.1A6.683,6.683,0,0,0,2.372,38.6h0a6.675,6.675,0,0,0,8.507,4.116L65.488,23.729a6.684,6.684,0,0,0-2.194-13Z"/>
    <path id="Path_293" data-name="Path 293" class="cls-3" d="M16.706,68.767a6.183,6.183,0,0,1-2.032-12.023L69.283,37.753a6.182,6.182,0,1,1,4.063,11.678L18.737,68.422A6.164,6.164,0,0,1,16.706,68.767Z"/>
    <path id="Path_294" data-name="Path 294" class="cls-4" d="M71.316,37.907h0a5.684,5.684,0,0,1,1.865,11.052L18.573,67.95A5.683,5.683,0,0,1,14.84,57.215L69.449,38.224a5.681,5.681,0,0,1,1.867-.317m0-1a6.661,6.661,0,0,0-2.195.373L14.511,56.271A6.682,6.682,0,1,0,18.9,68.894L73.51,49.9A6.683,6.683,0,0,0,77.627,41.4h0a6.685,6.685,0,0,0-6.311-4.489Z"/>
    <path id="Path_295" data-name="Path 295" class="cls-5" d="M62.583,69.478a6.187,6.187,0,0,1-5.839-4.153L37.752,10.715A6.183,6.183,0,1,1,49.431,6.653L68.422,61.262a6.189,6.189,0,0,1-5.839,8.216Z"/>
    <path id="Path_296" data-name="Path 296" class="cls-6" d="M43.592,3h0a5.686,5.686,0,0,1,5.366,3.818L67.95,61.427A5.683,5.683,0,1,1,57.215,65.16L38.224,10.551A5.687,5.687,0,0,1,43.592,3m0-1a6.689,6.689,0,0,0-6.312,8.88L56.271,65.489A6.675,6.675,0,0,0,64.778,69.6h0A6.683,6.683,0,0,0,68.895,61.1L49.9,6.489A6.684,6.684,0,0,0,43.592,2Z"/>
    <path id="Path_297" data-name="Path 297" class="cls-7" d="M51.23,42.23H63.6V54.6H51.23Z" transform="matrix(0.945, -0.329, 0.329, 0.945, -12.716, 21.543)"/>
    <path id="Path_298" data-name="Path 298" class="cls-8" d="M60.913,41.179l3.733,10.735L53.911,55.647,50.178,44.912l10.735-3.733m.616-1.273L48.9,44.3l4.39,12.624,12.624-4.39-4.39-12.624Z"/>
    <g id="Group_16" data-name="Group 16">
      <path id="Path_299" data-name="Path 299" class="cls-9" d="M42.244,16.391H54.609V28.756H42.244Z" transform="matrix(0.945, -0.329, 0.329, 0.945, -4.728, 17.16)"/>
      <path id="Path_300" data-name="Path 300" class="cls-10" d="M51.927,15.34,55.66,26.075,44.925,29.808,41.192,19.073,51.927,15.34m.616-1.273-12.624,4.39,4.39,12.624,12.624-4.39-4.39-12.624Z"/>
    </g>
    <g id="Group_17" data-name="Group 17">
      <path id="Path_301" data-name="Path 301" class="cls-11" d="M36.408,77.5a6.187,6.187,0,0,1-5.839-4.153L11.578,18.737a6.182,6.182,0,1,1,11.677-4.062L42.247,69.284A6.188,6.188,0,0,1,36.408,77.5Z"/>
      <path id="Path_302" data-name="Path 302" class="cls-12" d="M17.418,11.022h0a5.686,5.686,0,0,1,5.366,3.818L41.775,69.449a5.682,5.682,0,1,1-10.734,3.733L12.05,18.573a5.687,5.687,0,0,1,5.368-7.551m0-1a6.662,6.662,0,0,0-2.195.373h0A6.683,6.683,0,0,0,11.1,18.9L30.1,73.511A6.683,6.683,0,0,0,42.72,69.12L23.729,14.511a6.686,6.686,0,0,0-6.312-4.489Z"/>
    </g>
    <g id="Group_18" data-name="Group 18">
      <path id="Path_303" data-name="Path 303" class="cls-13" d="M25.391,51.23H37.756V63.6H25.391Z" transform="matrix(0.945, -0.329, 0.329, 0.945, -17.106, 13.555)"/>
      <path id="Path_304" data-name="Path 304" class="cls-14" d="M35.074,50.179l3.733,10.735L28.072,64.647,24.34,53.912l10.734-3.733m.616-1.273L23.066,53.3l4.39,12.624L40.08,61.53,35.69,48.906Z"/>
    </g>
    <g id="Group_19" data-name="Group 19">
      <path id="Path_305" data-name="Path 305" class="cls-15" d="M16.405,25.391H28.77V37.756H16.405Z" transform="matrix(0.945, -0.329, 0.329, 0.945, -9.118, 9.171)"/>
      <path id="Path_306" data-name="Path 306" class="cls-16" d="M26.088,24.34l3.733,10.735L19.086,38.808,15.353,28.073,26.088,24.34m.616-1.273L14.08,27.457l4.39,12.624,12.624-4.39L26.7,23.067Z"/>
    </g>
  </g>
</svg>
