<svg xmlns="http://www.w3.org/2000/svg" width="223.316" height="223.316" viewBox="0 0 223.316 223.316">
  <defs>
    <style>
      .cls-1 {
        fill: #1ed660;
      }
    </style>
  </defs>
  <path id="Spotify-Icon-Logo.wine" class="cls-1" d="M177.707,98.987c-35.992-21.375-95.36-23.34-129.719-12.912a10.443,10.443,0,0,1-6.064-19.987c39.443-11.972,105.008-9.66,146.443,14.936a10.444,10.444,0,0,1-10.661,17.963m-1.178,31.658a8.71,8.71,0,0,1-11.975,2.867C134.548,115.068,88.791,109.724,53.291,120.5a8.7,8.7,0,1,1-5.059-16.656C88.785,91.537,139.2,97.5,173.664,118.677a8.706,8.706,0,0,1,2.864,11.968m-13.663,30.4a6.954,6.954,0,0,1-9.569,2.316c-26.22-16.025-59.223-19.644-98.09-10.766a6.958,6.958,0,1,1-3.1-13.566c42.533-9.722,79.017-5.538,108.448,12.446a6.96,6.96,0,0,1,2.31,9.57M111.656,0a111.658,111.658,0,1,0,111.66,111.656A111.657,111.657,0,0,0,111.656,0"/>
</svg>
