<svg xmlns="http://www.w3.org/2000/svg" width="17103.973" height="11669.522" viewBox="0 0 17103.973 11669.522">
  <defs>
    <style>
      .cls-1 {
        fill: #fff;
      }

      .cls-2 {
        fill: none;
        stroke: #000;
        stroke-width: 150px;
      }
    </style>
  </defs>
  <g id="Squeak-Logo.wine" transform="translate(0.001 0.611)">
    <path id="Path_155" data-name="Path 155" d="M11501.2,6456.62c.284,663.268-431.33,1201.14-963.854,1201.14s-964.137-537.872-963.854-1201.14c-.284-663.266,431.331-1201.14,963.854-1201.14s964.138,537.872,963.854,1201.14Z"/>
    <path id="Path_156" data-name="Path 156" class="cls-1" d="M11234.6,6337.39c0,319.242-152.841,578.04-341.38,578.04s-341.376-258.8-341.376-578.04,152.841-578.04,341.376-578.04S11234.6,6018.149,11234.6,6337.39Z"/>
    <path id="Path_157" data-name="Path 157" d="M7565.13,6278.9c0,663.018-431.532,1200.5-963.853,1200.5s-963.855-537.482-963.855-1200.5,431.532-1200.5,963.855-1200.5S7565.13,5615.883,7565.13,6278.9Z"/>
    <path id="Path_158" data-name="Path 158" class="cls-1" d="M7298.54,6160.12c0,319-152.84,577.59-341.379,577.59s-341.377-258.594-341.377-577.59,152.84-577.59,341.377-577.59,341.38,258.6,341.38,577.59Z"/>
    <path id="Path_159" data-name="Path 159" class="cls-2" d="M5890.4,3731.01C2902.36-1958.78,612.51-832.571,2807.55,6575.4m8306.49-2904.23c2770.76-5356.64,5376.729-4986.11,3082.86,2845.3"/>
    <path id="Path_160" data-name="Path 160" d="M9816.51,9355.41c0,499.272-537.484,904.01-1200.5,904.01s-1200.5-404.738-1200.5-904.01,537.483-904.01,1200.5-904.01S9816.51,8856.141,9816.51,9355.41Z"/>
    <path id="Path_161" data-name="Path 161" class="cls-2" d="M6897.77,8826.79C4879.8,8294.96,2823.59,8280.79,23,9183.14M6779.9,9417.98c-2485.46-156.693-4208.6-199.325-6282.68,1423.55m6282.68-473.309c-2143.02-288.178-2965.35-99.844-4267.94,1068.12m7694.45-2430.92c2896.11-749.374,5029.59-206.733,6875.68,356.342m-6756.9,235.748c2656.05-199.325,4233.061-128.48,6282.68,1422.65m-6282.68-475.123c2019.1-253.564,2885.061-176.212,4267.939,1068.12"/>
  </g>
</svg>
