<svg id="Steam__service_-Logo.wine" data-name="Steam_(service)-Logo.wine" xmlns="http://www.w3.org/2000/svg" xmlns:xlink="http://www.w3.org/1999/xlink" width="232.851" height="233" viewBox="0 0 232.851 233">
  <defs>
    <style>
      .cls-1 {
        fill: url(#linear-gradient);
      }

      .cls-2 {
        fill: #fff;
      }
    </style>
    <linearGradient id="linear-gradient" x1="0.501" x2="0.501" y2="0.999" gradientUnits="objectBoundingBox">
      <stop offset="0" stop-color="#111d2e"/>
      <stop offset="0.212" stop-color="#051839"/>
      <stop offset="0.407" stop-color="#0a1b48"/>
      <stop offset="0.581" stop-color="#132e62"/>
      <stop offset="0.738" stop-color="#144b7e"/>
      <stop offset="0.873" stop-color="#136497"/>
      <stop offset="1" stop-color="#1387b8"/>
    </linearGradient>
  </defs>
  <path id="Path_162" data-name="Path 162" class="cls-1" d="M4.741,150.01A116.564,116.564,0,1,0,.1,108.76c7.54,12.66,10.481,20.49,4.641,41.25Z"/>
  <path id="Path_163" data-name="Path 163" class="cls-2" d="M110.35,87.322c0,.2,0,.392.01.576L81.852,129.31a32.389,32.389,0,0,0-19.1,5.29L.152,108.83S-1.3,132.66,4.74,150.42l44.254,18.26a32.3,32.3,0,0,0,63.816-7.89l40.79-29.15c.33.01.67.02,1,.02a44.33,44.33,0,1,0-44.25-44.338Zm-6.84,83.918a24.857,24.857,0,0,1-45.426,1.21l14.4,5.97A18.374,18.374,0,0,0,86.6,144.49l-14.89-6.17a24.925,24.925,0,0,1,31.8,32.92m51.09-54.38a29.534,29.534,0,1,1,29.49-29.538A29.545,29.545,0,0,1,154.6,116.86M132.51,87.277a22.145,22.145,0,1,1,22.14,22.183A22.172,22.172,0,0,1,132.51,87.277Z"/>
</svg>
