<svg xmlns="http://www.w3.org/2000/svg" width="574.947" height="163.225" viewBox="0 0 574.947 163.225">
  <defs>
    <style>
      .cls-1 {
        fill: #645a53;
      }

      .cls-1, .cls-2 {
        fill-rule: evenodd;
      }

      .cls-2 {
        fill: #ea5252;
      }
    </style>
  </defs>
  <g id="Udemy-Logo.wine" transform="translate(-0.001)">
    <path id="Path_164" data-name="Path 164" class="cls-1" d="M529.906,140.22h16.5l28.544-72.335h-16.33l-11.8,36.025L534.39,67.884H516.163l21.7,52.25ZM448.024,85.056v37.079H431.38V67.885h11.694l3.477,4.739c4.528-3.79,9.374-6,14.957-6,7.48,0,13.168,2.214,16.644,7.694,5.056-4.638,10.43-7.694,17.278-7.694,12.851,0,20.331,6.639,20.331,24.652v30.864H499.117V93.168c0-8.322-3.372-10.746-8.745-10.746a15.278,15.278,0,0,0-8.743,2.738,54.436,54.436,0,0,1,.317,6.111v30.864H465.3V93.168c0-8.322-3.373-10.746-8.85-10.746a14.219,14.219,0,0,0-8.428,2.634Zm-58.05,4.635h21.387c-1.16-7.056-4.953-10.429-10.64-10.429-4.848,0-9.48,2.845-10.746,10.43Zm11.906,33.5c-16.013,0-28.866-7.9-28.866-28.76,0-19.489,12.432-27.914,26.759-27.914,17.275,0,24.966,12.112,24.966,31.18h-34.87c1.16,9.375,6.955,12.116,14.645,12.116,7.438,0,13.256-1.836,17.758-4.865l-2.26,13.2C415.716,121.469,410.559,123.19,401.88,123.19ZM339.9,109.18c3.791,0,6.636-.634,9.585-2.845V82.74a16.284,16.284,0,0,0-9.057-2.318c-8.112,0-12.747,5.477-12.747,14.64,0,8.957,4.742,14.12,12.22,14.12Zm12.851,8.954a25.463,25.463,0,0,1-16.327,5.266c-14.854,0-25.6-9.164-25.6-28.021,0-18.751,12.325-28.863,28.125-28.863a29.15,29.15,0,0,1,10.533,1.79V45.279h16.647v76.856H355.6ZM240.307,90.006V49.8h17.275V89.69c0,14.327,6.425,17.276,15.275,17.276,9.587,0,14.537-4.215,14.537-17.276V49.8h17.382V90.006c0,23.7-10.323,33.6-32.76,33.6-20.86,0-31.71-8.533-31.71-33.6Z"/>
    <path id="Path_165" data-name="Path 165" class="cls-2" d="M196.279,93.02a5.31,5.31,0,0,0-2.347-1.1,112.908,112.908,0,0,1-16.74,13.945,15.493,15.493,0,0,1-7.83,2.525c-4.856,0-6.966-4.63-7.6-11.99-.844-9.885-1.414-21.726-1.414-40.027,0-18.77-4.26-31.53-15.608-32.532q-.733-.068-1.47-.072c-6.966,0-10.344,3.575-14.777,12.622-3.8,7.781-9.71,19.14-20.685,40.6C98.308,95.5,87.754,111.9,78.676,123.261c-2.528,3.149-4.526,5.312-6.4,6.542a6.664,6.664,0,0,1-3.727,1.24c-3.583,0-6.2-3.024-7.073-10.065a46.781,46.781,0,0,1-.317-5.711c0-14.513,5.49-38.073,14.987-72.78C83.108,17.245,80.154,0,64.954,0h-.17l-.011,0a14.413,14.413,0,0,0-9.044,3.45c-2.707,2.13-5.416,6.734-7.944,12.922C44.935,23.346,27.6,58.11.02,76.019-.3,82.829,3.55,89.635,11.36,90.373c7.11.673,12.158-2.323,18.658-6.69q-1.307,5.829-2.576,11.668c-.495,2.273-.81,3.735-.9,4.14A116.159,116.159,0,0,0,24.573,111.3c-3.89,34.766,12.225,51.922,31.1,51.922a37.947,37.947,0,0,0,9.382-1.164c20.792-5.272,40.808-29.122,64.5-84.025a152.718,152.718,0,0,0-.138,16.727c1.561,31.466,14.007,40.906,31.591,40.906,13.3,0,25.752-6.94,32.084-15.565a30.738,30.738,0,0,0,6.545-18.09c0-4.081-1.294-7.34-3.353-8.994"/>
  </g>
</svg>
