<svg xmlns="http://www.w3.org/2000/svg" width="377.457" height="378.574" viewBox="0 0 377.457 378.574">
  <defs>
    <style>
      .cls-1 {
        fill: #e60000;
      }

      .cls-2 {
        fill: #fff;
      }
    </style>
  </defs>
  <g id="vodafone-icon" transform="translate(-0.279 -1.102)">
    <path id="Path_328" data-name="Path 328" class="cls-1" d="M119.441,14.328C166.906-4.59,222.2-3.282,268.395,18.691c-13.165-2-26.555-.492-39.586,1.711-35.391,6.684-69.024,23.336-95.313,48.075-25.207,24.777-42.871,57.652-47.86,92.824-3.3,24.922-.241,51.062,10.942,73.746a109.9,109.9,0,0,0,56.258,53.394c23.559,9.97,50.887,9.86,74.75.961,35.805-13.14,61.531-48.62,64.473-86.527,1.851-24.844-4.192-51.273-20.883-70.328-15.934-18.652-39.238-28.926-62.559-34.774-1.25-23,9.586-45.722,26.77-60.68,9.543-8.6,21.386-14.09,33.633-17.6l.93-.321A191.164,191.164,0,0,1,353.777,97.75a187.046,187.046,0,0,1,23.9,95.64c-.16,43.016-16.239,85.606-43.8,118.5a188.481,188.481,0,0,1-102.246,62.965c-39.836,9.191-82.7,5.226-119.977-11.7a189.627,189.627,0,0,1-87.047-79.457A187.52,187.52,0,0,1,.32,188.051C.4,146.555,15.133,105.379,40.86,72.93a189.581,189.581,0,0,1,78.581-58.6Zm0,0"/>
    <path id="Path_329" data-name="Path 329" class="cls-2" d="M228.809,20.4c13.03-2.2,26.421-3.71,39.586-1.71l1.89.32-1.265.48c-12.247,3.512-24.09,9-33.633,17.6-17.184,14.957-28.02,37.68-26.77,60.68,23.32,5.847,46.625,16.12,62.559,34.773,16.691,19.055,22.734,45.484,20.883,70.328-2.942,37.906-28.668,73.387-64.473,86.527-23.863,8.9-51.191,9.008-74.75-.96a109.9,109.9,0,0,1-56.258-53.4C85.4,212.363,82.336,186.223,85.637,161.3c4.988-35.172,22.652-68.047,47.86-92.824,26.288-24.739,59.921-41.391,95.312-48.075Zm0,0"/>
  </g>
</svg>
