<svg xmlns="http://www.w3.org/2000/svg" width="86.039" height="86.087" viewBox="0 0 86.039 86.087">
  <defs>
    <style>
      .cls-1 {
        fill: #107c10;
      }
    </style>
  </defs>
  <path id="Xbox__app_-Logo.wine" data-name="Xbox_(app)-Logo.wine" class="cls-1" d="M38.73,85.91a42.933,42.933,0,0,1-19.1-6.776c-4.83-3.15-5.92-4.447-5.92-7.032,0-5.193,5.71-14.29,15.48-24.658,5.547-5.89,13.275-12.79,14.11-12.6,1.626.363,14.616,13.034,19.48,19,7.69,9.43,11.224,17.154,9.428,20.6-1.365,2.617-9.837,7.733-16.06,9.7A47.215,47.215,0,0,1,38.73,85.91ZM7.184,66.7C3.17,60.545,1.142,54.483.164,45.715c-.324-2.9-.21-4.55.733-10.494a42.941,42.941,0,0,1,10.46-21.24c2.158-2.24,2.35-2.3,4.982-1.41,3.19,1.08,6.6,3.436,11.89,8.22l3.09,2.794-1.69,2.07c-7.828,9.61-16.09,23.24-19.2,31.67-1.69,4.58-2.37,9.18-1.64,11.1.49,1.294.04.812-1.61-1.714ZM77.637,67.75c.4-1.936-.105-5.49-1.28-9.076C73.812,50.909,65.3,36.464,57.49,26.642L55.03,23.55l2.662-2.443a56.177,56.177,0,0,1,8.49-6.723c2.053-1.28,4.988-2.413,6.25-2.413.777,0,3.516,2.85,5.726,5.95a45.049,45.049,0,0,1,7.218,16.69,55.532,55.532,0,0,1,.133,16.21,51.815,51.815,0,0,1-3.23,10.187,55.268,55.268,0,0,1-4.41,7.554c-.54.687-.54.686-.24-.8ZM39.44,10.505A53.651,53.651,0,0,0,27.2,6.18a22.332,22.332,0,0,0-4.08-.23c-2.536.128-2.423,0,1.643-1.925A41.8,41.8,0,0,1,34.793.685,51.654,51.654,0,0,1,51.43.663a46.4,46.4,0,0,1,13,4.84l.9.554-2.07-.1C59.148,5.745,53.15,7.408,46.71,10.54a34.88,34.88,0,0,1-3.754,1.68c-.123-.024-1.706-.8-3.52-1.715Z"/>
</svg>
